<?xml version="1.0" encoding="UTF-8"?>
<svg id="Layer_1" data-name="Layer 1" xmlns="http://www.w3.org/2000/svg" viewBox="0 0 99.2126 113.3858">
  <defs>
    <style>
      .cls-1 {
        fill: #231f20;
      }
    </style>
  </defs>
  <rect class="cls-1" x="76.1857" y="37.1495" width="5.3071" height="5.3071"/>
  <rect class="cls-1" x="76.1857" y="31.8425" width="5.3071" height="5.3071"/>
  <rect class="cls-1" x="76.1857" y="42.4566" width="5.3071" height="5.3071"/>
  <rect class="cls-1" x="76.1857" y="47.7637" width="5.3071" height="5.3071"/>
  <rect class="cls-1" x="17.8078" y="63.9962" width="5.3071" height="5.3071"/>
  <rect class="cls-1" x="23.1149" y="53.0708" width="5.3071" height="5.3071"/>
  <rect class="cls-1" x="23.1149" y="58.3778" width="5.3071" height="5.3071"/>
  <rect class="cls-1" x="76.1857" y="53.0708" width="5.3071" height="5.3071"/>
  <rect class="cls-1" x="12.5007" y="68.992" width="5.3071" height="5.3071"/>
  <rect class="cls-1" x="7.1937" y="74.2991" width="5.3071" height="5.3071"/>
  <rect class="cls-1" x="28.422" y="47.7637" width="5.3071" height="5.3071"/>
  <rect class="cls-1" x="33.729" y="42.4566" width="5.3071" height="5.3071"/>
  <rect class="cls-1" x="39.0361" y="37.1495" width="5.3071" height="5.3071"/>
  <rect class="cls-1" x="44.3432" y="31.8425" width="5.3071" height="5.3071"/>
  <rect class="cls-1" x="49.6487" y="26.5354" width="5.3071" height="5.3071"/>
  <rect class="cls-1" x="49.6487" y="31.8425" width="5.3071" height="5.3071"/>
  <rect class="cls-1" x="54.9558" y="21.2283" width="5.3071" height="5.3071"/>
  <rect class="cls-1" x="60.2629" y="15.9212" width="5.3071" height="5.3071"/>
  <rect class="cls-1" x="12.5007" y="74.2991" width="5.3071" height="5.3071"/>
  <rect class="cls-1" x="17.8078" y="74.2991" width="5.3071" height="5.3071"/>
  <rect class="cls-1" x="23.1149" y="74.2991" width="5.3071" height="5.3071"/>
  <rect class="cls-1" x="28.422" y="74.2991" width="5.3071" height="5.3071"/>
  <rect class="cls-1" x="33.729" y="74.2991" width="5.3071" height="5.3071"/>
  <rect class="cls-1" x="39.0361" y="74.2991" width="5.3071" height="5.3071"/>
  <rect class="cls-1" x="17.8078" y="69.3032" width="5.3071" height="5.3071"/>
  <rect class="cls-1" x="23.1149" y="69.3032" width="5.3071" height="5.3071"/>
  <rect class="cls-1" x="28.422" y="69.3032" width="5.3071" height="5.3071"/>
  <rect class="cls-1" x="33.729" y="69.3032" width="5.3071" height="5.3071"/>
  <rect class="cls-1" x="39.0361" y="69.3032" width="5.3071" height="5.3071"/>
  <rect class="cls-1" x="44.3432" y="74.2991" width="5.3071" height="5.3071"/>
  <rect class="cls-1" x="49.6487" y="74.2991" width="5.3071" height="5.3071"/>
  <rect class="cls-1" x="54.9558" y="74.2991" width="5.3071" height="5.3071"/>
  <rect class="cls-1" x="60.2629" y="74.2991" width="5.3071" height="5.3071"/>
  <rect class="cls-1" x="44.3424" y="69.3032" width="5.3071" height="5.3071"/>
  <rect class="cls-1" x="49.648" y="69.3032" width="5.3071" height="5.3071"/>
  <rect class="cls-1" x="54.9551" y="69.3032" width="5.3071" height="5.3071"/>
  <rect class="cls-1" x="60.2621" y="69.3032" width="5.3071" height="5.3071"/>
  <rect class="cls-1" x="65.5761" y="85.326" width="5.3071" height="5.3071"/>
  <rect class="cls-1" x="76.1857" y="26.5354" width="5.3071" height="5.3071"/>
  <rect class="cls-1" x="76.1857" y="21.2283" width="5.3071" height="5.3071"/>
  <rect class="cls-1" x="70.8786" y="26.5354" width="5.3071" height="5.3071"/>
  <rect class="cls-1" x="65.57" y="21.2283" width="5.3071" height="5.3071"/>
  <rect class="cls-1" x="60.2614" y="21.2283" width="5.3071" height="5.3071"/>
  <rect class="cls-1" x="60.2614" y="26.5354" width="5.3071" height="5.3071"/>
  <rect class="cls-1" x="65.57" y="26.5354" width="5.3071" height="5.3071"/>
  <rect class="cls-1" x="54.9527" y="26.5354" width="5.3071" height="5.3071"/>
  <rect class="cls-1" x="60.2629" y="31.8425" width="5.3071" height="5.3071"/>
  <rect class="cls-1" x="70.8832" y="90.633" width="5.3071" height="5.3071"/>
  <rect class="cls-1" x="49.6487" y="85.326" width="5.3071" height="5.3071"/>
  <rect class="cls-1" x="54.9558" y="90.633" width="5.3071" height="5.3071"/>
  <rect class="cls-1" x="65.5761" y="69.3032" width="5.3071" height="5.3071"/>
  <rect class="cls-1" x="54.9524" y="63.9962" width="5.3071" height="5.3071"/>
  <rect class="cls-1" x="60.2594" y="63.9962" width="5.3071" height="5.3071"/>
  <rect class="cls-1" x="65.5734" y="63.9962" width="5.3071" height="5.3071"/>
  <rect class="cls-1" x="70.8832" y="63.9962" width="5.3071" height="5.3071"/>
  <rect class="cls-1" x="76.1857" y="57.8209" width="5.3071" height="6.1752"/>
  <rect class="cls-1" x="70.8832" y="37.1495" width="5.3071" height="5.3071"/>
  <rect class="cls-1" x="70.8832" y="31.8425" width="5.3071" height="5.3071"/>
  <rect class="cls-1" x="70.8832" y="42.4566" width="5.3071" height="5.3071"/>
  <rect class="cls-1" x="70.8832" y="47.7637" width="5.3071" height="5.3071"/>
  <rect class="cls-1" x="70.8832" y="53.0708" width="5.3071" height="5.3071"/>
  <rect class="cls-1" x="70.8832" y="57.8209" width="5.3071" height="6.1752"/>
  <rect class="cls-1" x="65.57" y="37.1495" width="5.3071" height="5.3071"/>
  <rect class="cls-1" x="65.57" y="31.8425" width="5.3071" height="5.3071"/>
  <rect class="cls-1" x="65.57" y="42.4566" width="5.3071" height="5.3071"/>
  <rect class="cls-1" x="65.57" y="47.7637" width="5.3071" height="5.3071"/>
  <rect class="cls-1" x="65.57" y="53.0708" width="5.3071" height="5.3071"/>
  <rect class="cls-1" x="54.9558" y="37.1495" width="5.3071" height="5.3071"/>
  <rect class="cls-1" x="54.9558" y="42.4566" width="5.3071" height="5.3071"/>
  <rect class="cls-1" x="54.9558" y="47.7637" width="5.3071" height="5.3071"/>
  <rect class="cls-1" x="54.9558" y="53.0708" width="5.3071" height="5.3071"/>
  <rect class="cls-1" x="60.2629" y="58.6891" width="5.3071" height="5.3071"/>
  <rect class="cls-1" x="49.648" y="37.1495" width="5.3071" height="5.3071"/>
  <rect class="cls-1" x="49.648" y="42.4566" width="5.3071" height="5.3071"/>
  <rect class="cls-1" x="49.648" y="47.7637" width="5.3071" height="5.3071"/>
  <rect class="cls-1" x="49.648" y="53.0708" width="5.3071" height="5.3071"/>
  <rect class="cls-1" x="44.3432" y="37.1495" width="5.3071" height="5.3071"/>
  <rect class="cls-1" x="44.3432" y="42.4566" width="5.3071" height="5.3071"/>
  <rect class="cls-1" x="44.3432" y="47.7637" width="5.3071" height="5.3071"/>
  <rect class="cls-1" x="44.3432" y="53.0708" width="5.3071" height="5.3071"/>
  <rect class="cls-1" x="49.6468" y="58.255" width="5.3071" height="5.3071"/>
  <rect class="cls-1" x="44.342" y="58.255" width="5.3071" height="5.3071"/>
  <rect class="cls-1" x="39.0361" y="42.4566" width="5.3071" height="5.3071"/>
  <rect class="cls-1" x="39.0361" y="47.7637" width="5.3071" height="5.3071"/>
  <rect class="cls-1" x="39.0361" y="53.0708" width="5.3071" height="5.3071"/>
  <rect class="cls-1" x="39.0367" y="58.255" width="5.3071" height="5.3071"/>
  <rect class="cls-1" x="33.7288" y="47.7637" width="5.3071" height="5.3071"/>
  <rect class="cls-1" x="33.7288" y="53.0708" width="5.3071" height="5.3071"/>
  <rect class="cls-1" x="33.7288" y="58.255" width="5.3071" height="5.3071"/>
  <rect class="cls-1" x="28.422" y="53.0093" width="5.3071" height="5.3071"/>
  <rect class="cls-1" x="28.4208" y="58.255" width="5.3071" height="5.3071"/>
  <rect class="cls-1" x="65.57" y="57.8209" width="5.3071" height="6.1752"/>
  <rect class="cls-1" x="65.5715" y="15.9212" width="5.3071" height="5.3071"/>
  <rect class="cls-1" x="70.8786" y="15.9212" width="5.3071" height="5.3071"/>
  <rect class="cls-1" x="76.1857" y="15.9212" width="5.3071" height="5.3071"/>
  <rect class="cls-1" x="81.4927" y="21.2283" width="5.3071" height="5.3071"/>
  <rect class="cls-1" x="86.7983" y="26.5354" width="5.3071" height="5.3071"/>
  <rect class="cls-1" x="81.4927" y="26.5354" width="5.3071" height="5.3071"/>
</svg>