<?xml version="1.0" encoding="UTF-8"?>
<svg id="Layer_1" data-name="Layer 1" xmlns="http://www.w3.org/2000/svg" viewBox="0 0 99.2126 113.3858">
  <defs>
    <style>
      .cls-1 {
        fill: #231f20;
      }
    </style>
  </defs>
  <rect class="cls-1" x="17.6792" y="23.0818" width="3.5337" height="3.5337" transform="translate(38.8922 49.6974) rotate(-180)"/>
  <rect class="cls-1" x="14.1455" y="19.5481" width="3.5337" height="3.5337" transform="translate(31.8247 42.6299) rotate(-180)"/>
  <rect class="cls-1" x="24.7467" y="30.1493" width="3.5337" height="3.5337" transform="translate(53.0272 63.8324) rotate(-180)"/>
  <rect class="cls-1" x="21.213" y="26.6156" width="3.5337" height="3.5337" transform="translate(45.9597 56.7649) rotate(-180)"/>
  <rect class="cls-1" x="31.8142" y="37.4104" width="3.5337" height="3.5337" transform="translate(67.1621 78.3546) rotate(-180)"/>
  <rect class="cls-1" x="28.2805" y="33.8767" width="3.5337" height="3.5337" transform="translate(60.0946 71.2871) rotate(-180)"/>
  <rect class="cls-1" x="38.8817" y="44.4779" width="3.5337" height="3.5337" transform="translate(81.2971 92.4896) rotate(-180)"/>
  <rect class="cls-1" x="35.3479" y="40.9442" width="3.5337" height="3.5337" transform="translate(74.2296 85.4221) rotate(-180)"/>
  <rect class="cls-1" x="46.0726" y="51.5454" width="3.5337" height="3.5337" transform="translate(95.6789 106.6246) rotate(-180)"/>
  <rect class="cls-1" x="42.5388" y="48.0117" width="3.5337" height="3.5337" transform="translate(88.6114 99.5571) rotate(-180)"/>
  <rect class="cls-1" x="53.14" y="58.6129" width="3.5337" height="3.5337" transform="translate(109.8138 120.7595) rotate(-180)"/>
  <rect class="cls-1" x="49.6063" y="55.0792" width="3.5337" height="3.5337" transform="translate(102.7463 113.692) rotate(-180)"/>
  <rect class="cls-1" x="60.2075" y="65.6748" width="3.5337" height="3.5337" transform="translate(123.9488 134.8833) rotate(-180)"/>
  <rect class="cls-1" x="56.6738" y="62.141" width="3.5337" height="3.5337" transform="translate(116.8813 127.8158) rotate(-180)"/>
  <rect class="cls-1" x="67.275" y="72.7423" width="3.5337" height="3.5337" transform="translate(138.0838 149.0183) rotate(-180)"/>
  <rect class="cls-1" x="63.7413" y="69.2085" width="3.5337" height="3.5337" transform="translate(131.0163 141.9508) rotate(-180)"/>
  <rect class="cls-1" x="74.3425" y="79.8098" width="3.5337" height="3.5337" transform="translate(152.2188 163.1533) rotate(-180)"/>
  <rect class="cls-1" x="70.8088" y="76.276" width="3.5337" height="3.5337" transform="translate(145.1513 156.0858) rotate(-180)"/>
  <rect class="cls-1" x="81.41" y="86.8773" width="3.5337" height="3.5337" transform="translate(166.3538 177.2883) rotate(-180)"/>
  <rect class="cls-1" x="77.8763" y="83.3435" width="3.5337" height="3.5337" transform="translate(159.2863 170.2208) rotate(-180)"/>
  <rect class="cls-1" x="63.988" y="76.3756" width="3.5337" height="3.5337" transform="translate(131.5098 156.285) rotate(-180)"/>
  <rect class="cls-1" x="71.0555" y="83.4431" width="3.5337" height="3.5337" transform="translate(145.6448 170.42) rotate(-180)"/>
  <rect class="cls-1" x="67.5218" y="79.9094" width="3.5337" height="3.5337" transform="translate(138.5773 163.3525) rotate(-180)"/>
  <rect class="cls-1" x="78.123" y="90.5106" width="3.5337" height="3.5337" transform="translate(159.7798 184.555) rotate(-180)"/>
  <rect class="cls-1" x="74.5893" y="86.9769" width="3.5337" height="3.5337" transform="translate(152.7123 177.4875) rotate(-180)"/>
  <rect class="cls-1" x="46.0109" y="58.7069" width="3.5337" height="3.5337" transform="translate(95.5555 120.9475) rotate(-180)"/>
  <rect class="cls-1" x="53.0784" y="65.7744" width="3.5337" height="3.5337" transform="translate(109.6905 135.0825) rotate(-180)"/>
  <rect class="cls-1" x="49.5446" y="62.2406" width="3.5337" height="3.5337" transform="translate(102.623 128.015) rotate(-180)"/>
  <rect class="cls-1" x="60.1459" y="72.8419" width="3.5337" height="3.5337" transform="translate(123.8255 149.2175) rotate(-180)"/>
  <rect class="cls-1" x="56.6121" y="69.3081" width="3.5337" height="3.5337" transform="translate(116.758 142.15) rotate(-180)"/>
  <rect class="cls-1" x="28.4038" y="40.9442" width="3.5337" height="3.5337" transform="translate(60.3414 85.4221) rotate(-180)"/>
  <rect class="cls-1" x="35.4713" y="48.0117" width="3.5337" height="3.5337" transform="translate(74.4764 99.5571) rotate(-180)"/>
  <rect class="cls-1" x="31.9376" y="44.4779" width="3.5337" height="3.5337" transform="translate(67.4089 92.4896) rotate(-180)"/>
  <rect class="cls-1" x="42.5388" y="55.0792" width="3.5337" height="3.5337" transform="translate(88.6114 113.692) rotate(-180)"/>
  <rect class="cls-1" x="39.0051" y="51.5454" width="3.5337" height="3.5337" transform="translate(81.5439 106.6246) rotate(-180)"/>
  <rect class="cls-1" x="10.55" y="23.2754" width="3.5337" height="3.5337" transform="translate(24.6338 50.0846) rotate(-180)"/>
  <rect class="cls-1" x="17.6175" y="30.3429" width="3.5337" height="3.5337" transform="translate(38.7688 64.2196) rotate(-180)"/>
  <rect class="cls-1" x="14.0838" y="26.8092" width="3.5337" height="3.5337" transform="translate(31.7013 57.1521) rotate(-180)"/>
  <rect class="cls-1" x="24.685" y="37.4104" width="3.5337" height="3.5337" transform="translate(52.9038 78.3546) rotate(-180)"/>
  <rect class="cls-1" x="21.1513" y="33.8767" width="3.5337" height="3.5337" transform="translate(45.8363 71.2871) rotate(-180)"/>
  <rect class="cls-1" x="10.55" y="30.1493" width="3.5337" height="3.5337" transform="translate(24.6338 63.8324) rotate(-180)"/>
  <rect class="cls-1" x="17.6175" y="37.2168" width="3.5337" height="3.5337" transform="translate(38.7688 77.9673) rotate(-180)"/>
  <rect class="cls-1" x="14.0838" y="33.6831" width="3.5337" height="3.5337" transform="translate(31.7013 70.8999) rotate(-180)"/>
  <rect class="cls-1" x="21.0896" y="41.0438" width="3.5337" height="3.5337" transform="translate(45.7129 85.6213) rotate(-180)"/>
  <rect class="cls-1" x="28.1571" y="48.1113" width="3.5337" height="3.5337" transform="translate(59.8479 99.7563) rotate(-180)"/>
  <rect class="cls-1" x="24.6233" y="44.5775" width="3.5337" height="3.5337" transform="translate(52.7804 92.6888) rotate(-180)"/>
  <rect class="cls-1" x="35.2246" y="55.1788" width="3.5337" height="3.5337" transform="translate(73.9829 113.8913) rotate(-180)"/>
  <rect class="cls-1" x="31.6908" y="51.645" width="3.5337" height="3.5337" transform="translate(66.9154 106.8238) rotate(-180)"/>
  <rect class="cls-1" x="39.0051" y="58.7069" width="3.5337" height="3.5337" transform="translate(81.5439 120.9475) rotate(-180)"/>
  <rect class="cls-1" x="46.0726" y="65.7744" width="3.5337" height="3.5337" transform="translate(95.6789 135.0825) rotate(-180)"/>
  <rect class="cls-1" x="42.5388" y="62.2406" width="3.5337" height="3.5337" transform="translate(88.6114 128.015) rotate(-180)"/>
  <rect class="cls-1" x="53.14" y="72.8419" width="3.5337" height="3.5337" transform="translate(109.8138 149.2175) rotate(-180)"/>
  <rect class="cls-1" x="49.6063" y="69.3081" width="3.5337" height="3.5337" transform="translate(102.7463 142.15) rotate(-180)"/>
  <rect class="cls-1" x="56.6121" y="76.3756" width="3.5337" height="3.5337" transform="translate(116.758 156.285) rotate(-180)"/>
  <rect class="cls-1" x="63.6796" y="83.4431" width="3.5337" height="3.5337" transform="translate(130.893 170.42) rotate(-180)"/>
  <rect class="cls-1" x="60.1459" y="79.9094" width="3.5337" height="3.5337" transform="translate(123.8255 163.3525) rotate(-180)"/>
  <rect class="cls-1" x="70.7471" y="90.5106" width="3.5337" height="3.5337" transform="translate(145.0279 184.555) rotate(-180)"/>
  <rect class="cls-1" x="67.2133" y="86.9769" width="3.5337" height="3.5337" transform="translate(137.9604 177.4875) rotate(-180)"/>
  <rect class="cls-1" x="53.0784" y="80.009" width="3.5337" height="3.5337" transform="translate(109.6905 163.5517) rotate(-180)"/>
  <rect class="cls-1" x="60.1459" y="87.0765" width="3.5337" height="3.5337" transform="translate(123.8255 177.6867) rotate(-180)"/>
  <rect class="cls-1" x="56.6121" y="83.5427" width="3.5337" height="3.5337" transform="translate(116.758 170.6192) rotate(-180)"/>
  <rect class="cls-1" x="63.6796" y="90.6102" width="3.5337" height="3.5337" transform="translate(130.893 184.7542) rotate(-180)"/>
  <rect class="cls-1" x="35.4096" y="62.3347" width="3.5337" height="3.5337" transform="translate(74.353 128.2031) rotate(-180)"/>
  <rect class="cls-1" x="42.4771" y="69.4021" width="3.5337" height="3.5337" transform="translate(88.488 142.338) rotate(-180)"/>
  <rect class="cls-1" x="38.9434" y="65.8684" width="3.5337" height="3.5337" transform="translate(81.4205 135.2705) rotate(-180)"/>
  <rect class="cls-1" x="49.5446" y="76.4696" width="3.5337" height="3.5337" transform="translate(102.623 156.473) rotate(-180)"/>
  <rect class="cls-1" x="46.0109" y="72.9359" width="3.5337" height="3.5337" transform="translate(95.5555 149.4055) rotate(-180)"/>
  <rect class="cls-1" x="42.4771" y="76.2841" width="3.5337" height="3.5337" transform="translate(88.488 156.102) rotate(-180)"/>
  <rect class="cls-1" x="46.0109" y="79.8179" width="3.5337" height="3.5337" transform="translate(95.5555 163.1695) rotate(-180)"/>
  <rect class="cls-1" x="49.6063" y="83.5483" width="3.5337" height="3.5337" transform="translate(102.7463 170.6304) rotate(-180)"/>
  <rect class="cls-1" x="56.6121" y="90.4191" width="3.5337" height="3.5337" transform="translate(116.758 184.372) rotate(-180)"/>
  <rect class="cls-1" x="53.0784" y="86.8854" width="3.5337" height="3.5337" transform="translate(109.6905 177.3045) rotate(-180)"/>
  <rect class="cls-1" x="24.8084" y="58.7153" width="3.5337" height="3.5337" transform="translate(53.1505 120.9644) rotate(-180)"/>
  <rect class="cls-1" x="31.8759" y="65.7828" width="3.5337" height="3.5337" transform="translate(67.2855 135.0994) rotate(-180)"/>
  <rect class="cls-1" x="28.3421" y="62.2491" width="3.5337" height="3.5337" transform="translate(60.218 128.0319) rotate(-180)"/>
  <rect class="cls-1" x="38.9434" y="72.8503" width="3.5337" height="3.5337" transform="translate(81.4205 149.2343) rotate(-180)"/>
  <rect class="cls-1" x="35.4096" y="69.3166" width="3.5337" height="3.5337" transform="translate(74.353 142.1669) rotate(-180)"/>
  <rect class="cls-1" x="10.6734" y="44.5747" width="3.5337" height="3.5337" transform="translate(24.8805 92.6832) rotate(-180)"/>
  <rect class="cls-1" x="14.1455" y="48.1113" width="3.5337" height="3.5337" transform="translate(31.8247 99.7563) rotate(-180)"/>
  <rect class="cls-1" x="10.7968" y="51.645" width="3.5337" height="3.5337" transform="translate(25.1273 106.8238) rotate(-180)"/>
  <rect class="cls-1" x="21.2746" y="55.176" width="3.5337" height="3.5337" transform="translate(46.083 113.8857) rotate(-180)"/>
  <rect class="cls-1" x="35.533" y="76.3257" width="3.5337" height="3.5337" transform="translate(74.5997 156.1851) rotate(-180)"/>
  <rect class="cls-1" x="39.0667" y="79.8594" width="3.5337" height="3.5337" transform="translate(81.6672 163.2526) rotate(-180)"/>
  <rect class="cls-1" x="42.6622" y="83.5899" width="3.5337" height="3.5337" transform="translate(88.8581 170.7135) rotate(-180)"/>
  <rect class="cls-1" x="49.668" y="90.4607" width="3.5337" height="3.5337" transform="translate(102.8697 184.4551) rotate(-180)"/>
  <rect class="cls-1" x="46.1342" y="86.9269" width="3.5337" height="3.5337" transform="translate(95.8022 177.3876) rotate(-180)"/>
  <rect class="cls-1" x="17.8643" y="58.7569" width="3.5337" height="3.5337" transform="translate(39.2623 121.0475) rotate(-180)"/>
  <rect class="cls-1" x="24.9318" y="65.8244" width="3.5337" height="3.5337" transform="translate(53.3973 135.1825) rotate(-180)"/>
  <rect class="cls-1" x="21.398" y="62.2906" width="3.5337" height="3.5337" transform="translate(46.3298 128.115) rotate(-180)"/>
  <rect class="cls-1" x="31.9992" y="72.8918" width="3.5337" height="3.5337" transform="translate(67.5322 149.3174) rotate(-180)"/>
  <rect class="cls-1" x="28.4655" y="69.3581" width="3.5337" height="3.5337" transform="translate(60.4648 142.2499) rotate(-180)"/>
  <rect class="cls-1" x="14.3305" y="55.2175" width="3.5337" height="3.5337" transform="translate(32.1948 113.9688) rotate(-180)"/>
  <rect class="cls-1" x="28.4655" y="76.4197" width="3.5337" height="3.5337" transform="translate(60.4648 156.3731) rotate(-180)"/>
  <rect class="cls-1" x="31.9992" y="79.9534" width="3.5337" height="3.5337" transform="translate(67.5322 163.4406) rotate(-180)"/>
  <rect class="cls-1" x="35.5947" y="83.6839" width="3.5337" height="3.5337" transform="translate(74.7231 170.9015) rotate(-180)"/>
  <rect class="cls-1" x="42.6005" y="90.5547" width="3.5337" height="3.5337" transform="translate(88.7347 184.6431) rotate(-180)"/>
  <rect class="cls-1" x="39.0667" y="87.0209" width="3.5337" height="3.5337" transform="translate(81.6672 177.5756) rotate(-180)"/>
  <rect class="cls-1" x="10.7968" y="58.8509" width="3.5337" height="3.5337" transform="translate(25.1273 121.2355) rotate(-180)"/>
  <rect class="cls-1" x="17.8643" y="65.9184" width="3.5337" height="3.5337" transform="translate(39.2623 135.3705) rotate(-180)"/>
  <rect class="cls-1" x="14.3305" y="62.3846" width="3.5337" height="3.5337" transform="translate(32.1948 128.303) rotate(-180)"/>
  <rect class="cls-1" x="24.9318" y="72.9859" width="3.5337" height="3.5337" transform="translate(53.3973 149.5054) rotate(-180)"/>
  <rect class="cls-1" x="21.398" y="69.4521" width="3.5337" height="3.5337" transform="translate(46.3298 142.438) rotate(-180)"/>
  <rect class="cls-1" x="21.2746" y="76.4197" width="3.5337" height="3.5337" transform="translate(46.083 156.3731) rotate(-180)"/>
  <rect class="cls-1" x="24.8084" y="79.9534" width="3.5337" height="3.5337" transform="translate(53.1505 163.4406) rotate(-180)"/>
  <rect class="cls-1" x="28.4038" y="83.6839" width="3.5337" height="3.5337" transform="translate(60.3414 170.9015) rotate(-180)"/>
  <rect class="cls-1" x="35.4096" y="90.5547" width="3.5337" height="3.5337" transform="translate(74.353 184.6431) rotate(-180)"/>
  <rect class="cls-1" x="31.8759" y="87.0209" width="3.5337" height="3.5337" transform="translate(67.2855 177.5756) rotate(-180)"/>
  <rect class="cls-1" x="10.6734" y="65.9184" width="3.5337" height="3.5337" transform="translate(24.8805 135.3705) rotate(-180)"/>
  <rect class="cls-1" x="17.7409" y="72.9859" width="3.5337" height="3.5337" transform="translate(39.0155 149.5054) rotate(-180)"/>
  <rect class="cls-1" x="14.2071" y="69.4521" width="3.5337" height="3.5337" transform="translate(31.948 142.438) rotate(-180)"/>
  <rect class="cls-1" x="14.1105" y="76.2342" width="3.5337" height="3.5337" transform="translate(31.7548 156.0021) rotate(-180)"/>
  <rect class="cls-1" x="17.6443" y="79.7679" width="3.5337" height="3.5337" transform="translate(38.8223 163.0696) rotate(-180)"/>
  <rect class="cls-1" x="21.2397" y="83.4984" width="3.5337" height="3.5337" transform="translate(46.0131 170.5305) rotate(-180)"/>
  <rect class="cls-1" x="28.2455" y="90.3692" width="3.5337" height="3.5337" transform="translate(60.0247 184.2721) rotate(-180)"/>
  <rect class="cls-1" x="24.7117" y="86.8354" width="3.5337" height="3.5337" transform="translate(52.9572 177.2046) rotate(-180)"/>
  <rect class="cls-1" x="10.5768" y="72.8003" width="3.5337" height="3.5337" transform="translate(24.6873 149.1344) rotate(-180)"/>
  <rect class="cls-1" x="10.6734" y="79.8678" width="3.5337" height="3.5337" transform="translate(24.8805 163.2694) rotate(-180)"/>
  <rect class="cls-1" x="14.2688" y="83.5983" width="3.5337" height="3.5337" transform="translate(32.0714 170.7304) rotate(-180)"/>
  <rect class="cls-1" x="21.2746" y="90.4691" width="3.5337" height="3.5337" transform="translate(46.083 184.4719) rotate(-180)"/>
  <rect class="cls-1" x="17.7409" y="86.9353" width="3.5337" height="3.5337" transform="translate(39.0155 177.4044) rotate(-180)"/>
  <rect class="cls-1" x="14.2071" y="90.6046" width="3.5337" height="3.5337" transform="translate(31.948 184.743) rotate(-180)"/>
  <rect class="cls-1" x="10.6734" y="87.0709" width="3.5337" height="3.5337" transform="translate(24.8805 177.6755) rotate(-180)"/>
  <rect class="cls-1" x="17.7409" y="51.6422" width="3.5337" height="3.5337" transform="translate(39.0155 106.8182) rotate(-180)"/>
  <rect class="cls-1" x="17.6175" y="44.5775" width="3.5337" height="3.5337" transform="translate(38.7688 92.6888) rotate(-180)"/>
  <rect class="cls-1" x="24.685" y="51.645" width="3.5337" height="3.5337" transform="translate(52.9038 106.8238) rotate(-180)"/>
  <rect class="cls-1" x="21.1513" y="48.1113" width="3.5337" height="3.5337" transform="translate(45.8363 99.7563) rotate(-180)"/>
  <rect class="cls-1" x="31.7525" y="58.7125" width="3.5337" height="3.5337" transform="translate(67.0388 120.9588) rotate(-180)"/>
  <rect class="cls-1" x="28.2188" y="55.1788" width="3.5337" height="3.5337" transform="translate(59.9713 113.8913) rotate(-180)"/>
  <rect class="cls-1" x="14.111" y="40.8972" width="3.5337" height="3.5337" transform="translate(31.7558 85.3281) rotate(-180)"/>
  <rect class="cls-1" x="10.5773" y="37.3634" width="3.5337" height="3.5337" transform="translate(24.6883 78.2606) rotate(-180)"/>
  <rect class="cls-1" x="21.2746" y="19.6477" width="3.5337" height="3.5337" transform="translate(46.083 42.8291) rotate(-180)"/>
  <rect class="cls-1" x="17.7409" y="16.1139" width="3.5337" height="3.5337" transform="translate(39.0155 35.7616) rotate(-180)"/>
  <rect class="cls-1" x="28.3421" y="26.7152" width="3.5337" height="3.5337" transform="translate(60.218 56.9641) rotate(-180)"/>
  <rect class="cls-1" x="24.8084" y="23.1814" width="3.5337" height="3.5337" transform="translate(53.1505 49.8966) rotate(-180)"/>
  <rect class="cls-1" x="35.4096" y="33.9763" width="3.5337" height="3.5337" transform="translate(74.353 71.4863) rotate(-180)"/>
  <rect class="cls-1" x="31.8759" y="30.4425" width="3.5337" height="3.5337" transform="translate(67.2855 64.4188) rotate(-180)"/>
  <rect class="cls-1" x="42.4771" y="41.0438" width="3.5337" height="3.5337" transform="translate(88.488 85.6213) rotate(-180)"/>
  <rect class="cls-1" x="38.9434" y="37.51" width="3.5337" height="3.5337" transform="translate(81.4205 78.5538) rotate(-180)"/>
  <rect class="cls-1" x="49.668" y="48.1113" width="3.5337" height="3.5337" transform="translate(102.8697 99.7563) rotate(-180)"/>
  <rect class="cls-1" x="46.1342" y="44.5775" width="3.5337" height="3.5337" transform="translate(95.8022 92.6888) rotate(-180)"/>
  <rect class="cls-1" x="56.7355" y="55.1788" width="3.5337" height="3.5337" transform="translate(117.0047 113.8913) rotate(-180)"/>
  <rect class="cls-1" x="53.2017" y="51.645" width="3.5337" height="3.5337" transform="translate(109.9372 106.8238) rotate(-180)"/>
  <rect class="cls-1" x="63.803" y="62.2406" width="3.5337" height="3.5337" transform="translate(131.1397 128.015) rotate(-180)"/>
  <rect class="cls-1" x="60.2692" y="58.7069" width="3.5337" height="3.5337" transform="translate(124.0722 120.9475) rotate(-180)"/>
  <rect class="cls-1" x="70.8705" y="69.3081" width="3.5337" height="3.5337" transform="translate(145.2747 142.15) rotate(-180)"/>
  <rect class="cls-1" x="67.3367" y="65.7744" width="3.5337" height="3.5337" transform="translate(138.2072 135.0825) rotate(-180)"/>
  <rect class="cls-1" x="77.938" y="76.3756" width="3.5337" height="3.5337" transform="translate(159.4097 156.285) rotate(-180)"/>
  <rect class="cls-1" x="74.4042" y="72.8419" width="3.5337" height="3.5337" transform="translate(152.3422 149.2175) rotate(-180)"/>
  <rect class="cls-1" x="85.0055" y="83.4431" width="3.5337" height="3.5337" transform="translate(173.5446 170.42) rotate(-180)"/>
  <rect class="cls-1" x="81.4717" y="79.9094" width="3.5337" height="3.5337" transform="translate(166.4772 163.3525) rotate(-180)"/>
  <rect class="cls-1" x="24.8701" y="16.0143" width="3.5337" height="3.5337" transform="translate(53.2739 35.5624) rotate(-180)"/>
  <rect class="cls-1" x="31.9376" y="23.0818" width="3.5337" height="3.5337" transform="translate(67.4089 49.6974) rotate(-180)"/>
  <rect class="cls-1" x="28.4038" y="19.5481" width="3.5337" height="3.5337" transform="translate(60.3414 42.6299) rotate(-180)"/>
  <rect class="cls-1" x="39.0051" y="30.3429" width="3.5337" height="3.5337" transform="translate(81.5439 64.2196) rotate(-180)"/>
  <rect class="cls-1" x="35.4713" y="26.8092" width="3.5337" height="3.5337" transform="translate(74.4764 57.1521) rotate(-180)"/>
  <rect class="cls-1" x="46.0726" y="37.4104" width="3.5337" height="3.5337" transform="translate(95.6789 78.3546) rotate(-180)"/>
  <rect class="cls-1" x="42.5388" y="33.8767" width="3.5337" height="3.5337" transform="translate(88.6114 71.2871) rotate(-180)"/>
  <rect class="cls-1" x="53.2634" y="44.4779" width="3.5337" height="3.5337" transform="translate(110.0606 92.4896) rotate(-180)"/>
  <rect class="cls-1" x="49.7297" y="40.9442" width="3.5337" height="3.5337" transform="translate(102.9931 85.4221) rotate(-180)"/>
  <rect class="cls-1" x="60.3309" y="51.5454" width="3.5337" height="3.5337" transform="translate(124.1956 106.6246) rotate(-180)"/>
  <rect class="cls-1" x="56.7972" y="48.0117" width="3.5337" height="3.5337" transform="translate(117.1281 99.5571) rotate(-180)"/>
  <rect class="cls-1" x="67.3984" y="58.6073" width="3.5337" height="3.5337" transform="translate(138.3305 120.7483) rotate(-180)"/>
  <rect class="cls-1" x="63.8647" y="55.0735" width="3.5337" height="3.5337" transform="translate(131.2631 113.6808) rotate(-180)"/>
  <rect class="cls-1" x="74.4659" y="65.6748" width="3.5337" height="3.5337" transform="translate(152.4655 134.8833) rotate(-180)"/>
  <rect class="cls-1" x="70.9321" y="62.141" width="3.5337" height="3.5337" transform="translate(145.398 127.8158) rotate(-180)"/>
  <rect class="cls-1" x="81.5334" y="72.7423" width="3.5337" height="3.5337" transform="translate(166.6005 149.0183) rotate(-180)"/>
  <rect class="cls-1" x="77.9996" y="69.2085" width="3.5337" height="3.5337" transform="translate(159.533 141.9508) rotate(-180)"/>
  <rect class="cls-1" x="85.0671" y="76.276" width="3.5337" height="3.5337" transform="translate(173.668 156.0858) rotate(-180)"/>
  <rect class="cls-1" x="35.4096" y="19.6477" width="3.5337" height="3.5337" transform="translate(74.353 42.8291) rotate(-180)"/>
  <rect class="cls-1" x="31.8759" y="16.1139" width="3.5337" height="3.5337" transform="translate(67.2855 35.7616) rotate(-180)"/>
  <rect class="cls-1" x="42.4771" y="26.9088" width="3.5337" height="3.5337" transform="translate(88.488 57.3513) rotate(-180)"/>
  <rect class="cls-1" x="38.9434" y="23.375" width="3.5337" height="3.5337" transform="translate(81.4205 50.2838) rotate(-180)"/>
  <rect class="cls-1" x="49.5446" y="33.9763" width="3.5337" height="3.5337" transform="translate(102.623 71.4863) rotate(-180)"/>
  <rect class="cls-1" x="46.0109" y="30.4425" width="3.5337" height="3.5337" transform="translate(95.5555 64.4188) rotate(-180)"/>
  <rect class="cls-1" x="56.7355" y="41.0438" width="3.5337" height="3.5337" transform="translate(117.0047 85.6213) rotate(-180)"/>
  <rect class="cls-1" x="53.2017" y="37.51" width="3.5337" height="3.5337" transform="translate(109.9372 78.5538) rotate(-180)"/>
  <rect class="cls-1" x="63.803" y="48.1113" width="3.5337" height="3.5337" transform="translate(131.1397 99.7563) rotate(-180)"/>
  <rect class="cls-1" x="60.2692" y="44.5775" width="3.5337" height="3.5337" transform="translate(124.0722 92.6888) rotate(-180)"/>
  <rect class="cls-1" x="70.8705" y="55.1732" width="3.5337" height="3.5337" transform="translate(145.2747 113.8801) rotate(-180)"/>
  <rect class="cls-1" x="67.3367" y="51.6394" width="3.5337" height="3.5337" transform="translate(138.2072 106.8126) rotate(-180)"/>
  <rect class="cls-1" x="77.938" y="62.2406" width="3.5337" height="3.5337" transform="translate(159.4097 128.015) rotate(-180)"/>
  <rect class="cls-1" x="74.4042" y="58.7069" width="3.5337" height="3.5337" transform="translate(152.3422 120.9475) rotate(-180)"/>
  <rect class="cls-1" x="85.0055" y="69.3081" width="3.5337" height="3.5337" transform="translate(173.5446 142.15) rotate(-180)"/>
  <rect class="cls-1" x="81.4717" y="65.7744" width="3.5337" height="3.5337" transform="translate(166.4772 135.0825) rotate(-180)"/>
  <rect class="cls-1" x="39.0051" y="16.1139" width="3.5337" height="3.5337" transform="translate(81.5439 35.7616) rotate(-180)"/>
  <rect class="cls-1" x="46.0726" y="23.375" width="3.5337" height="3.5337" transform="translate(95.6789 50.2838) rotate(-180)"/>
  <rect class="cls-1" x="42.5388" y="19.8413" width="3.5337" height="3.5337" transform="translate(88.6114 43.2163) rotate(-180)"/>
  <rect class="cls-1" x="53.14" y="30.4425" width="3.5337" height="3.5337" transform="translate(109.8138 64.4188) rotate(-180)"/>
  <rect class="cls-1" x="49.6063" y="26.9088" width="3.5337" height="3.5337" transform="translate(102.7463 57.3513) rotate(-180)"/>
  <rect class="cls-1" x="60.3309" y="37.51" width="3.5337" height="3.5337" transform="translate(124.1956 78.5538) rotate(-180)"/>
  <rect class="cls-1" x="56.7972" y="33.9763" width="3.5337" height="3.5337" transform="translate(117.1281 71.4863) rotate(-180)"/>
  <rect class="cls-1" x="67.3984" y="44.5775" width="3.5337" height="3.5337" transform="translate(138.3305 92.6888) rotate(-180)"/>
  <rect class="cls-1" x="63.8647" y="41.0438" width="3.5337" height="3.5337" transform="translate(131.2631 85.6213) rotate(-180)"/>
  <rect class="cls-1" x="74.4659" y="51.6394" width="3.5337" height="3.5337" transform="translate(152.4655 106.8126) rotate(-180)"/>
  <rect class="cls-1" x="70.9321" y="48.1057" width="3.5337" height="3.5337" transform="translate(145.398 99.7451) rotate(-180)"/>
  <rect class="cls-1" x="81.5334" y="58.7069" width="3.5337" height="3.5337" transform="translate(166.6005 120.9475) rotate(-180)"/>
  <rect class="cls-1" x="77.9996" y="55.1732" width="3.5337" height="3.5337" transform="translate(159.533 113.8801) rotate(-180)"/>
  <rect class="cls-1" x="85.0671" y="62.2406" width="3.5337" height="3.5337" transform="translate(173.668 128.015) rotate(-180)"/>
  <rect class="cls-1" x="49.668" y="19.7417" width="3.5337" height="3.5337" transform="translate(102.8697 43.0171) rotate(-180)"/>
  <rect class="cls-1" x="46.1342" y="16.2079" width="3.5337" height="3.5337" transform="translate(95.8022 35.9496) rotate(-180)"/>
  <rect class="cls-1" x="56.7355" y="26.8092" width="3.5337" height="3.5337" transform="translate(117.0047 57.1521) rotate(-180)"/>
  <rect class="cls-1" x="53.2017" y="23.2754" width="3.5337" height="3.5337" transform="translate(109.9372 50.0846) rotate(-180)"/>
  <rect class="cls-1" x="63.9263" y="33.8767" width="3.5337" height="3.5337" transform="translate(131.3864 71.2871) rotate(-180)"/>
  <rect class="cls-1" x="60.3926" y="30.3429" width="3.5337" height="3.5337" transform="translate(124.3189 64.2196) rotate(-180)"/>
  <rect class="cls-1" x="70.9938" y="40.9442" width="3.5337" height="3.5337" transform="translate(145.5214 85.4221) rotate(-180)"/>
  <rect class="cls-1" x="67.4601" y="37.4104" width="3.5337" height="3.5337" transform="translate(138.4539 78.3546) rotate(-180)"/>
  <rect class="cls-1" x="78.0613" y="48.006" width="3.5337" height="3.5337" transform="translate(159.6564 99.5458) rotate(-180)"/>
  <rect class="cls-1" x="74.5276" y="44.4723" width="3.5337" height="3.5337" transform="translate(152.5889 92.4784) rotate(-180)"/>
  <rect class="cls-1" x="85.1288" y="55.0735" width="3.5337" height="3.5337" transform="translate(173.7914 113.6808) rotate(-180)"/>
  <rect class="cls-1" x="81.5951" y="51.5398" width="3.5337" height="3.5337" transform="translate(166.7239 106.6133) rotate(-180)"/>
  <rect class="cls-1" x="53.14" y="16.2079" width="3.5337" height="3.5337" transform="translate(109.8138 35.9496) rotate(-180)"/>
  <rect class="cls-1" x="60.2075" y="23.2754" width="3.5337" height="3.5337" transform="translate(123.9488 50.0846) rotate(-180)"/>
  <rect class="cls-1" x="56.6738" y="19.7417" width="3.5337" height="3.5337" transform="translate(116.8813 43.0171) rotate(-180)"/>
  <rect class="cls-1" x="67.3984" y="30.3429" width="3.5337" height="3.5337" transform="translate(138.3305 64.2196) rotate(-180)"/>
  <rect class="cls-1" x="63.8647" y="26.8092" width="3.5337" height="3.5337" transform="translate(131.2631 57.1521) rotate(-180)"/>
  <rect class="cls-1" x="74.4659" y="37.4104" width="3.5337" height="3.5337" transform="translate(152.4655 78.3546) rotate(-180)"/>
  <rect class="cls-1" x="70.9321" y="33.8767" width="3.5337" height="3.5337" transform="translate(145.398 71.2871) rotate(-180)"/>
  <rect class="cls-1" x="81.5334" y="44.4723" width="3.5337" height="3.5337" transform="translate(166.6005 92.4784) rotate(-180)"/>
  <rect class="cls-1" x="77.9996" y="40.9386" width="3.5337" height="3.5337" transform="translate(159.533 85.4109) rotate(-180)"/>
  <rect class="cls-1" x="85.0671" y="48.006" width="3.5337" height="3.5337" transform="translate(173.668 99.5458) rotate(-180)"/>
  <rect class="cls-1" x="63.8647" y="19.7417" width="3.5337" height="3.5337" transform="translate(131.2631 43.0171) rotate(-180)"/>
  <rect class="cls-1" x="60.3309" y="16.2079" width="3.5337" height="3.5337" transform="translate(124.1956 35.9496) rotate(-180)"/>
  <rect class="cls-1" x="71.0555" y="26.8092" width="3.5337" height="3.5337" transform="translate(145.6448 57.1521) rotate(-180)"/>
  <rect class="cls-1" x="67.5218" y="23.2754" width="3.5337" height="3.5337" transform="translate(138.5773 50.0846) rotate(-180)"/>
  <rect class="cls-1" x="78.123" y="33.8767" width="3.5337" height="3.5337" transform="translate(159.7798 71.2871) rotate(-180)"/>
  <rect class="cls-1" x="74.5893" y="30.3429" width="3.5337" height="3.5337" transform="translate(152.7123 64.2196) rotate(-180)"/>
  <rect class="cls-1" x="85.1905" y="40.9386" width="3.5337" height="3.5337" transform="translate(173.9148 85.4109) rotate(-180)"/>
  <rect class="cls-1" x="81.6568" y="37.4048" width="3.5337" height="3.5337" transform="translate(166.8473 78.3434) rotate(-180)"/>
  <rect class="cls-1" x="67.3367" y="16.2079" width="3.5337" height="3.5337" transform="translate(138.2072 35.9496) rotate(-180)"/>
  <rect class="cls-1" x="74.5276" y="23.2754" width="3.5337" height="3.5337" transform="translate(152.5889 50.0846) rotate(-180)"/>
  <rect class="cls-1" x="70.9938" y="19.7417" width="3.5337" height="3.5337" transform="translate(145.5214 43.0171) rotate(-180)"/>
  <rect class="cls-1" x="81.5951" y="30.3429" width="3.5337" height="3.5337" transform="translate(166.7239 64.2196) rotate(-180)"/>
  <rect class="cls-1" x="78.0613" y="26.8092" width="3.5337" height="3.5337" transform="translate(159.6564 57.1521) rotate(-180)"/>
  <rect class="cls-1" x="85.1288" y="33.8711" width="3.5337" height="3.5337" transform="translate(173.7914 71.2759) rotate(-180)"/>
  <rect class="cls-1" x="78.0613" y="19.5943" width="3.5337" height="3.5337" transform="translate(159.6564 42.7224) rotate(-180)"/>
  <rect class="cls-1" x="74.5276" y="16.0606" width="3.5337" height="3.5337" transform="translate(152.5889 35.6549) rotate(-180)"/>
  <rect class="cls-1" x="85.1288" y="26.6618" width="3.5337" height="3.5337" transform="translate(173.7914 56.8574) rotate(-180)"/>
  <rect class="cls-1" x="81.5951" y="23.1281" width="3.5337" height="3.5337" transform="translate(166.7239 49.7899) rotate(-180)"/>
  <rect class="cls-1" x="81.4197" y="15.7232" width="3.5337" height="3.5337" transform="translate(166.3731 34.9802) rotate(-180)"/>
  <rect class="cls-1" x="84.9534" y="19.257" width="3.5337" height="3.5337" transform="translate(173.4406 42.0477) rotate(-180)"/>
  <rect class="cls-1" x="10.5773" y="16.0143" width="3.5337" height="3.5337" transform="translate(24.6883 35.5624) rotate(-180)"/>
  <rect class="cls-1" x="7.0435" y="16.0143" width="3.5337" height="3.5337" transform="translate(17.6208 35.5624) rotate(-180)"/>
  <rect class="cls-1" x="10.5778" y="12.4806" width="3.5337" height="3.5337" transform="translate(24.6893 28.4949) rotate(-180)"/>
  <rect class="cls-1" x="7.043" y="12.4806" width="3.5337" height="3.5337" transform="translate(17.6198 28.4949) rotate(-180)"/>
  <rect class="cls-1" x="10.5768" y="93.9557" width="3.5337" height="3.5337" transform="translate(24.6873 191.4451) rotate(-180)"/>
  <rect class="cls-1" x="7.043" y="93.9557" width="3.5337" height="3.5337" transform="translate(17.6198 191.4451) rotate(-180)"/>
  <rect class="cls-1" x="10.5773" y="90.4219" width="3.5337" height="3.5337" transform="translate(24.6883 184.3776) rotate(-180)"/>
  <rect class="cls-1" x="7.0425" y="90.4219" width="3.5337" height="3.5337" transform="translate(17.6188 184.3776) rotate(-180)"/>
  <rect class="cls-1" x="88.426" y="93.9557" width="3.5337" height="3.5337" transform="translate(180.3858 191.4451) rotate(-180)"/>
  <rect class="cls-1" x="84.8923" y="93.9557" width="3.5337" height="3.5337" transform="translate(173.3183 191.4451) rotate(-180)"/>
  <rect class="cls-1" x="88.4265" y="90.4219" width="3.5337" height="3.5337" transform="translate(180.3868 184.3776) rotate(-180)"/>
  <rect class="cls-1" x="84.8917" y="90.4219" width="3.5337" height="3.5337" transform="translate(173.3172 184.3776) rotate(-180)"/>
  <rect class="cls-1" x="88.4255" y="16.0143" width="3.5337" height="3.5337" transform="translate(180.3847 35.5624) rotate(-180)"/>
  <rect class="cls-1" x="84.8917" y="16.0143" width="3.5337" height="3.5337" transform="translate(173.3172 35.5624) rotate(-180)"/>
  <rect class="cls-1" x="88.426" y="12.4806" width="3.5337" height="3.5337" transform="translate(180.3858 28.4949) rotate(-180)"/>
  <rect class="cls-1" x="84.8912" y="12.4806" width="3.5337" height="3.5337" transform="translate(173.3162 28.4949) rotate(-180)"/>
</svg>