<?xml version="1.0" encoding="UTF-8"?>
<svg id="Layer_1" data-name="Layer 1" xmlns="http://www.w3.org/2000/svg" viewBox="0 0 99.2126 113.3858">
  <defs>
    <style>
      .cls-1 {
        fill: #231f20;
      }
    </style>
  </defs>
  <rect class="cls-1" x="50.0182" y="40.9508" width="5.2111" height="5.2111" transform="translate(105.2475 87.1127) rotate(-180)"/>
  <rect class="cls-1" x="55.2293" y="45.9402" width="5.2111" height="5.2111" transform="translate(115.6698 97.0916) rotate(-180)"/>
  <rect class="cls-1" x="55.3154" y="35.7396" width="5.2111" height="5.2111" transform="translate(115.8419 76.6904) rotate(-180)"/>
  <rect class="cls-1" x="60.5265" y="30.5285" width="5.2111" height="5.2111" transform="translate(126.2642 66.2682) rotate(-180)"/>
  <rect class="cls-1" x="65.6516" y="25.5391" width="5.2111" height="5.2111" transform="translate(136.5143 56.2892) rotate(-180)"/>
  <rect class="cls-1" x="70.8627" y="25.5391" width="5.2111" height="5.2111" transform="translate(146.9365 56.2892) rotate(-180)"/>
  <rect class="cls-1" x="55.2293" y="61.7911" width="5.2111" height="5.2111" transform="translate(115.6698 128.7934) rotate(-180)"/>
  <rect class="cls-1" x="34.3863" y="56.5842" width="5.2111" height="5.2111" transform="translate(73.9838 118.3794) rotate(-180)"/>
  <rect class="cls-1" x="29.1737" y="61.7911" width="5.2111" height="5.2111" transform="translate(63.5585 128.7934) rotate(-180)"/>
  <rect class="cls-1" x="18.7507" y="72.2155" width="5.2111" height="5.2111" transform="translate(42.7125 149.6421) rotate(-180)"/>
  <rect class="cls-1" x="23.9626" y="67.0023" width="5.2111" height="5.2111" transform="translate(53.1363 139.2157) rotate(-180)"/>
  <rect class="cls-1" x="18.7507" y="77.4225" width="5.2111" height="5.2111" transform="translate(42.7125 160.056) rotate(-180)"/>
  <rect class="cls-1" x="34.3863" y="51.373" width="5.2111" height="5.2111" transform="translate(73.9838 107.9572) rotate(-180)"/>
  <rect class="cls-1" x="29.1737" y="46.1619" width="5.2111" height="5.2111" transform="translate(63.5585 97.5349) rotate(-180)"/>
  <rect class="cls-1" x="23.9626" y="40.9508" width="5.2111" height="5.2111" transform="translate(53.1363 87.1127) rotate(-180)"/>
  <rect class="cls-1" x="18.7514" y="35.7396" width="5.2111" height="5.2111" transform="translate(42.714 76.6904) rotate(-180)"/>
  <rect class="cls-1" x="18.7514" y="30.5327" width="5.2111" height="5.2111" transform="translate(42.714 66.2764) rotate(-180)"/>
  <rect class="cls-1" x="60.4405" y="56.5842" width="5.2111" height="5.2111" transform="translate(126.092 118.3794) rotate(-180)"/>
  <rect class="cls-1" x="65.6516" y="61.7911" width="5.2111" height="5.2111" transform="translate(136.5143 128.7934) rotate(-180)"/>
  <rect class="cls-1" x="70.8627" y="67.0023" width="5.2111" height="5.2111" transform="translate(146.9365 139.2157) rotate(-180)"/>
  <rect class="cls-1" x="76.0738" y="72.2155" width="5.2111" height="5.2111" transform="translate(157.3588 149.6421) rotate(-180)"/>
  <rect class="cls-1" x="76.0738" y="77.4225" width="5.2111" height="5.2111" transform="translate(157.3588 160.056) rotate(-180)"/>
  <rect class="cls-1" x="60.4405" y="51.373" width="5.2111" height="5.2111" transform="translate(126.092 107.9572) rotate(-180)"/>
  <rect class="cls-1" x="65.6516" y="46.1536" width="5.2111" height="5.2111" transform="translate(136.5143 97.5184) rotate(-180)"/>
  <rect class="cls-1" x="70.8627" y="40.9508" width="5.2111" height="5.2111" transform="translate(146.9365 87.1127) rotate(-180)"/>
  <rect class="cls-1" x="76.0738" y="35.7396" width="5.2111" height="5.2111" transform="translate(157.3588 76.6904) rotate(-180)"/>
  <rect class="cls-1" x="76.0738" y="30.5285" width="5.2111" height="5.2111" transform="translate(157.3588 66.2682) rotate(-180)"/>
  <rect class="cls-1" x="44.9792" y="40.9508" width="5.2111" height="5.2111" transform="translate(95.1695 87.1127) rotate(-180)"/>
  <rect class="cls-1" x="49.9321" y="14.891" width="5.2111" height="5.2111" transform="translate(105.0754 34.9931) rotate(-180)"/>
  <rect class="cls-1" x="44.8931" y="14.891" width="5.2111" height="5.2111" transform="translate(94.9974 34.9931) rotate(-180)"/>
  <rect class="cls-1" x="39.596" y="35.7396" width="5.2111" height="5.2111" transform="translate(84.403 76.6904) rotate(-180)"/>
  <rect class="cls-1" x="39.596" y="25.3174" width="5.2111" height="5.2111" transform="translate(84.403 55.8459) rotate(-180)"/>
  <rect class="cls-1" x="39.596" y="20.1021" width="5.2111" height="5.2111" transform="translate(84.403 45.4154) rotate(-180)"/>
  <rect class="cls-1" x="55.2293" y="25.5391" width="5.2111" height="5.2111" transform="translate(115.6698 56.2892) rotate(-180)"/>
  <rect class="cls-1" x="55.2293" y="20.3279" width="5.2111" height="5.2111" transform="translate(115.6698 45.867) rotate(-180)"/>
  <rect class="cls-1" x="45.1513" y="93.2837" width="5.2111" height="5.2111"/>
  <rect class="cls-1" x="50.1903" y="93.2837" width="5.2111" height="5.2111"/>
  <rect class="cls-1" x="55.4875" y="82.8573" width="5.2111" height="5.2111"/>
  <rect class="cls-1" x="55.4875" y="88.0726" width="5.2111" height="5.2111"/>
  <rect class="cls-1" x="39.8541" y="82.6357" width="5.2111" height="5.2111"/>
  <rect class="cls-1" x="39.8541" y="87.8468" width="5.2111" height="5.2111"/>
  <rect class="cls-1" x="86.7219" y="56.4981" width="5.2111" height="5.2111" transform="translate(30.2238 148.4311) rotate(-90)"/>
  <rect class="cls-1" x="86.7219" y="51.4591" width="5.2111" height="5.2111" transform="translate(35.2628 143.3921) rotate(-90)"/>
  <rect class="cls-1" x="76.2955" y="46.1619" width="5.2111" height="5.2111" transform="translate(30.1336 127.6685) rotate(-90)"/>
  <rect class="cls-1" x="81.5107" y="46.1619" width="5.2111" height="5.2111" transform="translate(35.3488 132.8838) rotate(-90)"/>
  <rect class="cls-1" x="76.0738" y="61.7953" width="5.2111" height="5.2111" transform="translate(14.2786 143.0802) rotate(-90)"/>
  <rect class="cls-1" x="81.285" y="61.7953" width="5.2111" height="5.2111" transform="translate(19.4897 148.2914) rotate(-90)"/>
  <rect class="cls-1" x="8.1034" y="56.5842" width="5.2111" height="5.2111" transform="translate(-48.4807 69.8987) rotate(-90)"/>
  <rect class="cls-1" x="8.1034" y="51.5452" width="5.2111" height="5.2111" transform="translate(-43.4417 64.8597) rotate(-90)"/>
  <rect class="cls-1" x="18.5298" y="46.248" width="5.2111" height="5.2111" transform="translate(-27.7182 69.9889) rotate(-90)"/>
  <rect class="cls-1" x="13.3145" y="46.248" width="5.2111" height="5.2111" transform="translate(-32.9334 64.7736) rotate(-90)"/>
  <rect class="cls-1" x="18.7514" y="61.8813" width="5.2111" height="5.2111" transform="translate(-43.1299 85.8439) rotate(-90)"/>
  <rect class="cls-1" x="13.5403" y="61.8813" width="5.2111" height="5.2111" transform="translate(-48.341 80.6328) rotate(-90)"/>
  <rect class="cls-1" x="34.3863" y="30.5327" width="5.2111" height="5.2111" transform="translate(73.9838 66.2764) rotate(-180)"/>
  <rect class="cls-1" x="29.1737" y="25.3174" width="5.2111" height="5.2111" transform="translate(63.5585 55.8459) rotate(-180)"/>
  <rect class="cls-1" x="23.9626" y="25.3174" width="5.2111" height="5.2111" transform="translate(53.1363 55.8459) rotate(-180)"/>
  <rect class="cls-1" x="50.1043" y="67.0023" width="5.2111" height="5.2111" transform="translate(105.4197 139.2157) rotate(-180)"/>
  <rect class="cls-1" x="55.2293" y="72.2134" width="5.2111" height="5.2111" transform="translate(115.6698 149.6379) rotate(-180)"/>
  <rect class="cls-1" x="60.5265" y="77.4287" width="5.2111" height="5.2111" transform="translate(126.2642 160.0684) rotate(-180)"/>
  <rect class="cls-1" x="65.6516" y="82.6419" width="5.2111" height="5.2111" transform="translate(136.5143 170.4948) rotate(-180)"/>
  <rect class="cls-1" x="70.8627" y="82.6419" width="5.2111" height="5.2111" transform="translate(146.9365 170.4948) rotate(-180)"/>
  <rect class="cls-1" x="45.0653" y="67.0023" width="5.2111" height="5.2111" transform="translate(95.3417 139.2157) rotate(-180)"/>
  <rect class="cls-1" x="39.596" y="72.2093" width="5.2111" height="5.2111" transform="translate(84.403 149.6297) rotate(-180)"/>
  <rect class="cls-1" x="29.1745" y="82.6419" width="5.2111" height="5.2111" transform="translate(63.56 170.4948) rotate(-180)"/>
  <rect class="cls-1" x="34.3863" y="77.4287" width="5.2111" height="5.2111" transform="translate(73.9838 160.0684) rotate(-180)"/>
  <rect class="cls-1" x="23.9618" y="82.6419" width="5.2111" height="5.2111" transform="translate(53.1348 170.4948) rotate(-180)"/>
  <rect class="cls-1" x="39.596" y="46.1619" width="5.2111" height="5.2111" transform="translate(84.403 97.5349) rotate(-180)"/>
  <rect class="cls-1" x="39.596" y="61.7911" width="5.2111" height="5.2111" transform="translate(84.403 128.7934) rotate(-180)"/>
</svg>