<?xml version="1.0" encoding="UTF-8"?>
<svg id="Layer_2" data-name="Layer 2" xmlns="http://www.w3.org/2000/svg" viewBox="0 0 141.732 141.732">
  <rect x="35.39" y="21.239" width="7.105" height="7.105"/>
  <rect x="28.286" y="21.239" width="7.105" height="7.105"/>
  <rect x="21.181" y="21.239" width="7.105" height="7.105"/>
  <rect x="42.495" y="113.43" width="7.105" height="7.105"/>
  <rect x="35.39" y="113.43" width="7.105" height="7.105"/>
  <rect x="28.286" y="113.43" width="7.105" height="7.105"/>
  <rect x="21.181" y="28.343" width="7.105" height="7.105"/>
  <rect x="21.181" y="35.448" width="7.105" height="7.105"/>
  <rect x="21.181" y="42.552" width="7.105" height="7.105"/>
  <rect x="21.181" y="49.628" width="7.105" height="7.105"/>
  <rect x="21.181" y="56.733" width="7.105" height="7.105"/>
  <rect x="21.181" y="63.809" width="7.105" height="7.105"/>
  <rect x="21.181" y="70.914" width="7.105" height="7.105"/>
  <rect x="21.181" y="78.018" width="7.105" height="7.105"/>
  <rect x="21.181" y="85.012" width="7.105" height="7.105"/>
  <rect x="21.181" y="99.221" width="7.105" height="7.105"/>
  <rect x="21.181" y="92.117" width="7.105" height="7.105"/>
  <rect x="21.181" y="106.326" width="7.105" height="7.105"/>
  <rect x="21.181" y="113.43" width="7.105" height="7.105"/>
  <rect x="113.54" y="21.265" width="7.105" height="7.105"/>
  <rect x="113.54" y="28.37" width="7.105" height="7.105"/>
  <rect x="113.54" y="35.474" width="7.105" height="7.105"/>
  <rect x="113.54" y="42.579" width="7.105" height="7.105"/>
  <rect x="113.54" y="49.655" width="7.105" height="7.105"/>
  <rect x="113.54" y="56.76" width="7.105" height="7.105"/>
  <rect x="113.54" y="63.836" width="7.105" height="7.105"/>
  <rect x="113.54" y="70.94" width="7.105" height="7.105"/>
  <rect x="113.54" y="78.045" width="7.105" height="7.105"/>
  <rect x="113.54" y="85.039" width="7.105" height="7.105"/>
  <rect x="113.54" y="99.248" width="7.105" height="7.105"/>
  <rect x="113.54" y="92.144" width="7.105" height="7.105"/>
  <rect x="113.54" y="106.353" width="7.105" height="7.105"/>
  <rect x="113.54" y="113.457" width="7.105" height="7.105"/>
  <rect x="72.8" y="5.899" width="7.105" height="7.105" transform="translate(15.68 56.758) rotate(-45)"/>
  <rect x="77.824" y="10.923" width="7.105" height="7.105" transform="translate(13.599 61.781) rotate(-45)"/>
  <rect x="82.848" y="15.946" width="7.105" height="7.105" transform="translate(11.518 66.805) rotate(-45)"/>
  <rect x="87.851" y="20.95" width="7.105" height="7.105" transform="translate(9.446 71.808) rotate(-45)"/>
  <rect x="92.875" y="25.973" width="7.105" height="7.105" transform="translate(7.365 76.832) rotate(-45)"/>
  <rect x="97.878" y="30.977" width="7.105" height="7.105" transform="translate(5.292 81.836) rotate(-45)"/>
  <rect x="102.902" y="36.001" width="7.105" height="7.105" transform="translate(3.212 86.859) rotate(-45)"/>
  <rect x="107.926" y="41.024" width="7.105" height="7.105" transform="translate(1.131 91.883) rotate(-45)"/>
  <rect x="112.871" y="45.97" width="7.105" height="7.105" transform="translate(-.918 96.829) rotate(-45)"/>
  <rect x="122.919" y="56.017" width="7.105" height="7.105" transform="translate(-5.08 106.876) rotate(-45)"/>
  <rect x="117.895" y="50.994" width="7.105" height="7.105" transform="translate(-2.999 101.852) rotate(-45)"/>
  <rect x="127.942" y="61.041" width="7.105" height="7.105" transform="translate(-7.16 111.9) rotate(-45)"/>
  <rect x="132.966" y="66.065" width="7.105" height="7.105" transform="translate(-9.241 116.923) rotate(-45)"/>
  <rect x="70.913" y="113.43" width="7.105" height="7.105"/>
  <rect x="63.808" y="113.43" width="7.105" height="7.105"/>
  <rect x="56.704" y="113.43" width="7.105" height="7.105"/>
  <rect x="49.599" y="113.43" width="7.105" height="7.105"/>
  <rect x="63.808" y="21.265" width="7.105" height="7.105"/>
  <rect x="56.704" y="21.265" width="7.105" height="7.105"/>
  <rect x="49.599" y="21.265" width="7.105" height="7.105"/>
  <rect x="42.495" y="21.265" width="7.105" height="7.105"/>
  <rect x="85.122" y="21.265" width="7.105" height="7.105"/>
  <rect x="78.017" y="21.265" width="7.105" height="7.105"/>
  <rect x="70.913" y="21.265" width="7.105" height="7.105"/>
  <rect x="106.435" y="21.265" width="7.105" height="7.105"/>
  <rect x="99.331" y="21.265" width="7.105" height="7.105"/>
  <rect x="92.226" y="21.265" width="7.105" height="7.105"/>
  <rect x="12.774" y="56.393" width="7.105" height="7.105" transform="translate(-37.606 29.102) rotate(-45)"/>
  <rect x="7.751" y="61.417" width="7.105" height="7.105" transform="translate(-42.63 27.022) rotate(-45)"/>
  <rect x="2.727" y="66.441" width="7.105" height="7.105" transform="translate(-47.653 24.941) rotate(-45)"/>
  <rect x="68.054" y="1.152" width="7.105" height="7.105" transform="translate(17.646 52.011) rotate(-45)"/>
  <rect x="12.179" y="75.893" width="7.105" height="7.105" transform="translate(-51.568 34.393) rotate(-45)"/>
  <rect x="17.203" y="80.916" width="7.105" height="7.105" transform="translate(-53.649 39.417) rotate(-45)"/>
  <rect x="22.227" y="85.94" width="7.105" height="7.105" transform="translate(-55.73 44.44) rotate(-45)"/>
  <rect x="26.987" y="90.701" width="7.105" height="7.105" transform="translate(-57.702 49.201) rotate(-45)"/>
  <rect x="32.011" y="95.724" width="7.105" height="7.105" transform="translate(-59.783 54.224) rotate(-45)"/>
  <rect x="37.035" y="100.748" width="7.105" height="7.105" transform="translate(-61.864 59.248) rotate(-45)"/>
  <rect x="42.058" y="105.772" width="7.105" height="7.105" transform="translate(-63.945 64.272) rotate(-45)"/>
  <rect x="47.082" y="110.795" width="7.105" height="7.105" transform="translate(-66.025 69.295) rotate(-45)"/>
  <rect x="52.105" y="115.819" width="7.105" height="7.105" transform="translate(-68.106 74.319) rotate(-45)"/>
  <rect x="57.129" y="120.842" width="7.105" height="7.105" transform="translate(-70.187 79.343) rotate(-45)"/>
  <rect x="62.153" y="125.866" width="7.105" height="7.105" transform="translate(-72.268 84.366) rotate(-45)"/>
  <rect x="67.176" y="130.89" width="7.105" height="7.105" transform="translate(-74.349 89.39) rotate(-45)"/>
  <rect x="7.433" y="71.146" width="7.105" height="7.105" transform="translate(-49.602 29.646) rotate(-45)"/>
  <rect x="32.888" y="36.318" width="7.105" height="7.105" transform="translate(-17.519 37.445) rotate(-45)"/>
  <rect x="27.864" y="41.341" width="7.105" height="7.105" transform="translate(-22.543 35.364) rotate(-45)"/>
  <rect x="22.841" y="46.365" width="7.105" height="7.105" transform="translate(-27.566 33.283) rotate(-45)"/>
  <rect x="17.817" y="51.389" width="7.105" height="7.105" transform="translate(-32.59 31.202) rotate(-45)"/>
  <rect x="107.838" y="91.173" width="7.105" height="7.105" transform="translate(-34.356 106.51) rotate(-45)"/>
  <rect x="102.815" y="96.197" width="7.105" height="7.105" transform="translate(-39.379 104.429) rotate(-45)"/>
  <rect x="97.791" y="101.221" width="7.105" height="7.105" transform="translate(-44.403 102.348) rotate(-45)"/>
  <rect x="127.952" y="71.098" width="7.105" height="7.105" transform="translate(-14.269 114.852) rotate(-45)"/>
  <rect x="122.928" y="76.121" width="7.105" height="7.105" transform="translate(-19.293 112.771) rotate(-45)"/>
  <rect x="117.905" y="81.145" width="7.105" height="7.105" transform="translate(-24.316 110.69) rotate(-45)"/>
  <rect x="112.881" y="86.169" width="7.105" height="7.105" transform="translate(-29.34 108.609) rotate(-45)"/>
  <rect x="72.663" y="126.329" width="7.105" height="7.105" transform="translate(-69.517 91.934) rotate(-45)"/>
  <rect x="67.64" y="131.353" width="7.105" height="7.105" transform="translate(-74.541 89.853) rotate(-45)"/>
  <rect x="92.777" y="106.254" width="7.105" height="7.105" transform="translate(-49.43 100.276) rotate(-45)"/>
  <rect x="87.753" y="111.277" width="7.105" height="7.105" transform="translate(-54.454 98.196) rotate(-45)"/>
  <rect x="82.73" y="116.301" width="7.105" height="7.105" transform="translate(-59.478 96.115) rotate(-45)"/>
  <rect x="77.706" y="121.325" width="7.105" height="7.105" transform="translate(-64.501 94.034) rotate(-45)"/>
  <rect x="47.959" y="21.247" width="7.105" height="7.105" transform="translate(-2.448 43.687) rotate(-45)"/>
  <rect x="42.935" y="26.27" width="7.105" height="7.105" transform="translate(-7.472 41.607) rotate(-45)"/>
  <rect x="37.912" y="31.294" width="7.105" height="7.105" transform="translate(-12.496 39.526) rotate(-45)"/>
  <rect x="63.03" y="6.176" width="7.105" height="7.105" transform="translate(12.623 49.93) rotate(-45)"/>
  <rect x="58.006" y="11.199" width="7.105" height="7.105" transform="translate(7.599 47.849) rotate(-45)"/>
  <rect x="52.983" y="16.223" width="7.105" height="7.105" transform="translate(2.575 45.768) rotate(-45)"/>
  <rect x="78.017" y="113.43" width="7.105" height="7.105"/>
  <rect x="106.435" y="113.43" width="7.105" height="7.105"/>
  <rect x="99.331" y="113.43" width="7.105" height="7.105"/>
  <rect x="92.226" y="113.43" width="7.105" height="7.105"/>
  <rect x="85.122" y="113.43" width="7.105" height="7.105"/>
  <rect x="56.704" y="56.76" width="27.709" height="27.709"/>
  <rect x="57.751" y="57.086" width="27.709" height="27.709" transform="translate(71.135 -29.855) rotate(45)"/>
</svg>