<?xml version="1.0" encoding="UTF-8"?>
<svg id="Layer_1" data-name="Layer 1" xmlns="http://www.w3.org/2000/svg" viewBox="0 0 142.8157 94.0748">
  <polygon points="142.1074 17.7385 99.6865 67.4613 59.0827 19.9101 57.1517 23.9926 61.4322 28.8236 99.4131 72.8396 99.669 72.8396 138.0283 28.3841 138.0283 93.4497 142.2365 93.4497 142.2365 17.7385 142.1074 17.7385"/>
  <path d="M91.7401,48.7007l-.6671,1.2183c5.7173,4.21,8.5782,8.8659,8.5782,13.9635,0,7.9064-3.6046,13.7785-10.807,17.6185-5.7196,3.0308-12.9243,4.545-21.614,4.545-8.2436,0-17.489-1.7361-27.7382-5.2086,4.9016-6.4269,8.3158-11.5985,10.2493-15.5147,1.1133-2.2888,2.0975-4.9127,2.9506-7.8694.853-2.9524,1.577-6.242,2.1741-9.8623,7.4999-3.1025,13.775-7.2755,18.8275-12.5231,6.0148-6.205,9.0244-12.8909,9.0244-20.0576,0-5.1694-2.9352-7.7562-8.8013-7.7562-2.8237,0-5.9426,1.3293-9.3591,3.988-2.8237,2.1452-5.2734,4.582-7.3534,7.3146-3.4908,4.582-5.7195,7.9064-6.6841,9.9733-2.1544,4.36-4.4203,11.4527-6.7957,21.278-3.7882,2.217-7.6136,3.3245-11.4741,3.3245-6.2401,0-11.4391-2.3998-15.597-7.2037-4.0113-4.5058-6.017-9.9363-6.017-16.2892,0-8.348,3.0818-15.1448,9.2475-20.3925,5.9405-5.0215,13.1451-7.5344,21.6118-7.5344.3718,0,1.3736.074,3.0096.2219,1.6317.1479,3.8604.3699,6.6841.6636-2.3775-1.3293-5.6102-1.9929-9.6937-1.9929-8.8385,0-16.3035,2.5869-22.3926,7.7563-6.3889,5.5414-9.58,12.6341-9.58,21.278,0,6.6489,2.0778,12.3752,6.2379,17.1769,4.3066,4.9496,9.8052,7.4234,16.4894,7.4234,2.6727,0,6.3494-.8855,11.0279-2.6587-1.262,4.7277-2.8412,9.2901-4.7332,13.685-1.8941,4.397-4.031,8.7005-6.4063,12.9104-7.6509-4.062-13.7794-6.0941-18.3835-6.0941-3.119,0-5.9427.7028-8.4667,2.1061-3.1934,1.6252-4.79,3.8422-4.79,6.6488,0,3.3984,1.8547,5.9483,5.5708,7.6453,2.7471,1.3315,6.1263,1.9951,10.1377,1.9951,2.8215,0,5.8289-.6288,9.0244-1.8842.9646-.3699,2.1348-.9029,3.5083-1.6057,1.3736-.7028,2.9899-1.5687,4.8469-2.6042,3.119,1.4772,5.8858,2.7696,8.3005,3.8792,2.4125,1.1074,4.5472,1.9559,6.4041,2.5477,5.199,1.7732,10.4352,2.6587,15.7086,2.6587,9.136,0,17.4167-2.5869,24.8445-7.7563,8.3923-5.9091,12.5895-13.1867,12.5895-21.8306,0-6.353-3.2305-11.4158-9.6937-15.1818ZM58.8806,19.9298l-1.9833,4.1933,1.9833-4.1933ZM56.4987,32.3355c.0378-.0757.0865-.1401.1271-.2129.1456-.5624.3056-1.1313.4682-1.7013h-.0002s.0002,0,.0002,0c.0018-.0065.0035-.0128.0053-.0193l-.0055.0019.0055-.0019c.6457-2.2636,1.4183-4.5844,2.3335-6.9695,3.8604-10.0451,8.6898-15.0709,14.4837-15.0709,4.9016,0,7.3512,2.217,7.3512,6.6488,0,5.4675-3.119,11.5637-9.3569,18.2844-5.7195,6.1332-11.4391,10.2714-17.1565,12.4122,0-4.2463.6263-8.7758,1.8715-13.5844-.0406.0728-.0893.1372-.1271.2129ZM26.734,84.5492c-1.2992.8506-2.6924,1.5904-4.1776,2.217-1.4851.6288-2.9702,1.127-4.4554,1.4969-1.4872.3677-2.8958.5526-4.2344.5526-2.8237,0-5.3849-.5918-7.6859-1.7732-2.8237-1.5512-4.2344-3.6181-4.2344-6.205,0-1.9211,1.1155-3.6203,3.3421-5.0976,1.9313-1.2554,3.9741-1.8841,6.1285-1.8841,4.3066,0,10.5839,2.6586,18.8275,7.9781-1.0411.9617-2.2113,1.8668-3.5105,2.7153Z"/>
</svg>