<?xml version="1.0" encoding="UTF-8"?>
<svg id="Layer_1" data-name="Layer 1" xmlns="http://www.w3.org/2000/svg" viewBox="0 0 99.2126 113.3858">
  <defs>
    <style>
      .cls-1 {
        fill: #231f20;
      }
    </style>
  </defs>
  <rect class="cls-1" x="43.0374" y="95.0351" width="6.4504" height="6.4504"/>
  <rect class="cls-1" x="43.0374" y="101.4855" width="6.4504" height="6.4504"/>
  <rect class="cls-1" x="49.4933" y="18.3507" width="6.4504" height="6.4504"/>
  <rect class="cls-1" x="55.9437" y="18.3507" width="6.4504" height="6.4504"/>
  <rect class="cls-1" x="49.4933" y="11.9003" width="6.4504" height="6.4504"/>
  <rect class="cls-1" x="49.4933" y="24.8011" width="6.4504" height="6.4504"/>
  <rect class="cls-1" x="49.4933" y="31.2515" width="6.4504" height="6.4504"/>
  <rect class="cls-1" x="81.7452" y="24.8011" width="6.4504" height="6.4504"/>
  <rect class="cls-1" x="81.7452" y="18.3507" width="6.4504" height="6.4504"/>
  <rect class="cls-1" x="81.7452" y="31.2515" width="6.4504" height="6.4504"/>
  <rect class="cls-1" x="81.7452" y="37.7018" width="6.4504" height="6.4504"/>
  <rect class="cls-1" x="55.9437" y="31.2515" width="6.4504" height="6.4504"/>
  <rect class="cls-1" x="43.043" y="57.053" width="6.4504" height="6.4504"/>
  <rect class="cls-1" x="36.5926" y="63.5033" width="6.4504" height="6.4504"/>
  <rect class="cls-1" x="43.043" y="50.6026" width="6.4504" height="6.4504"/>
  <rect class="cls-1" x="36.5926" y="50.304" width="6.4504" height="6.4504"/>
  <rect class="cls-1" x="43.043" y="63.5033" width="6.4504" height="6.4504"/>
  <rect class="cls-1" x="43.043" y="69.9537" width="6.4504" height="6.4504"/>
  <rect class="cls-1" x="10.7911" y="50.6026" width="6.4504" height="6.4504"/>
  <rect class="cls-1" x="10.7911" y="44.1522" width="6.4504" height="6.4504"/>
  <rect class="cls-1" x="10.7911" y="57.053" width="6.4504" height="6.4504"/>
  <rect class="cls-1" x="10.7911" y="63.5033" width="6.4504" height="6.4504"/>
  <rect class="cls-1" x="49.4933" y="82.9123" width="6.4504" height="6.4504"/>
  <rect class="cls-1" x="49.4933" y="89.3626" width="6.4504" height="6.4504"/>
  <rect class="cls-1" x="43.043" y="76.4619" width="6.4504" height="6.4504"/>
  <rect class="cls-1" x="43.043" y="82.9123" width="6.4504" height="6.4504"/>
  <rect class="cls-1" x="43.043" y="89.3626" width="6.4504" height="6.4504"/>
  <rect class="cls-1" x="75.2948" y="44.1522" width="6.4504" height="6.4504"/>
  <rect class="cls-1" x="68.8445" y="44.1522" width="6.4504" height="6.4504"/>
  <rect class="cls-1" x="68.8445" y="50.304" width="6.4504" height="6.4504"/>
  <rect class="cls-1" x="62.3941" y="44.1522" width="6.4504" height="6.4504"/>
  <rect class="cls-1" x="55.9437" y="44.1522" width="6.4504" height="6.4504"/>
  <rect class="cls-1" x="68.8445" y="76.4619" width="6.4504" height="6.4504"/>
  <rect class="cls-1" x="62.3941" y="76.4619" width="6.4504" height="6.4504"/>
  <rect class="cls-1" x="55.9437" y="76.4619" width="6.4504" height="6.4504"/>
  <rect class="cls-1" x="49.4933" y="76.4619" width="6.4504" height="6.4504"/>
  <rect class="cls-1" x="17.2415" y="69.9537" width="6.4504" height="6.4504"/>
  <rect class="cls-1" x="30.1422" y="56.7543" width="6.4504" height="6.4504"/>
  <rect class="cls-1" x="23.6918" y="63.5033" width="6.4504" height="6.4504"/>
  <rect class="cls-1" x="10.7911" y="69.9537" width="6.4504" height="6.4504"/>
  <rect class="cls-1" x="55.9437" y="50.304" width="6.4504" height="6.4504"/>
  <rect class="cls-1" x="62.3941" y="57.053" width="6.4504" height="6.4504"/>
  <rect class="cls-1" x="68.8445" y="63.5033" width="6.4504" height="6.4504"/>
  <rect class="cls-1" x="75.2948" y="69.9537" width="6.4504" height="6.4504"/>
  <rect class="cls-1" x="75.2948" y="76.4619" width="6.4504" height="6.4504"/>
  <rect class="cls-1" x="36.5926" y="37.7018" width="6.4504" height="6.4504"/>
  <rect class="cls-1" x="36.5926" y="31.2515" width="6.4504" height="6.4504"/>
  <rect class="cls-1" x="30.1422" y="25.0997" width="6.4504" height="6.4504"/>
  <rect class="cls-1" x="23.6918" y="18.3507" width="6.4504" height="6.4504"/>
  <rect class="cls-1" x="17.2415" y="11.9003" width="6.4504" height="6.4504"/>
  <rect class="cls-1" x="17.2415" y="5.45" width="6.4504" height="6.4504"/>
  <rect class="cls-1" x="23.6918" y="5.45" width="6.4504" height="6.4504"/>
  <rect class="cls-1" x="30.1422" y="5.45" width="6.4504" height="6.4504"/>
  <rect class="cls-1" x="36.5926" y="5.45" width="6.4504" height="6.4504"/>
  <rect class="cls-1" x="43.043" y="5.45" width="6.4504" height="6.4504"/>
  <rect class="cls-1" x="62.3941" y="24.8011" width="6.4504" height="6.4504"/>
  <rect class="cls-1" x="68.8445" y="18.3507" width="6.4504" height="6.4504"/>
  <rect class="cls-1" x="75.2948" y="11.9003" width="6.4504" height="6.4504"/>
  <rect class="cls-1" x="81.7452" y="11.9003" width="6.4504" height="6.4504"/>
  <rect class="cls-1" x="30.1422" y="37.7018" width="6.4504" height="6.4504"/>
  <rect class="cls-1" x="23.6918" y="37.7018" width="6.4504" height="6.4504"/>
  <rect class="cls-1" x="23.6918" y="31.2515" width="6.4504" height="6.4504"/>
  <rect class="cls-1" x="17.2415" y="37.7018" width="6.4504" height="6.4504"/>
  <rect class="cls-1" x="43.043" y="37.7018" width="6.4504" height="6.4504"/>
  <rect class="cls-1" x="43.043" y="44.1522" width="6.4504" height="6.4504"/>
  <rect class="cls-1" x="49.4933" y="37.7018" width="6.4504" height="6.4504"/>
  <rect class="cls-1" x="49.4933" y="44.1522" width="6.4504" height="6.4504"/>
  <rect class="cls-1" x="49.4989" y="101.4855" width="6.4504" height="6.4504"/>
  <rect class="cls-1" x="49.4915" y="95.0351" width="6.4504" height="6.4504"/>
</svg>