<?xml version="1.0" encoding="UTF-8"?>
<svg id="Layer_1" data-name="Layer 1" xmlns="http://www.w3.org/2000/svg" viewBox="0 0 99.2126 113.3858">
  <defs>
    <style>
      .cls-1 {
        fill: #231f20;
      }
    </style>
  </defs>
  <rect class="cls-1" x="63.729" y="33.8713" width="3.5337" height="3.5337"/>
  <rect class="cls-1" x="67.2689" y="33.8872" width="3.5337" height="3.5337"/>
  <rect class="cls-1" x="70.8026" y="33.8872" width="3.5337" height="3.5337"/>
  <rect class="cls-1" x="74.3446" y="37.4209" width="3.5337" height="3.5337"/>
  <rect class="cls-1" x="77.8783" y="37.4209" width="3.5337" height="3.5337"/>
  <rect class="cls-1" x="46.0644" y="55.1055" width="3.5337" height="3.5337"/>
  <rect class="cls-1" x="49.5981" y="55.1055" width="3.5337" height="3.5337"/>
  <rect class="cls-1" x="81.4121" y="40.9546" width="3.5337" height="3.5337"/>
  <rect class="cls-1" x="81.4121" y="44.4884" width="3.5337" height="3.5337"/>
  <rect class="cls-1" x="49.594" y="40.9388" width="3.5337" height="3.5337"/>
  <rect class="cls-1" x="49.594" y="44.4726" width="3.5337" height="3.5337"/>
  <rect class="cls-1" x="46.0726" y="48.0063" width="3.5337" height="3.5337"/>
  <rect class="cls-1" x="46.0726" y="51.5401" width="3.5337" height="3.5337"/>
  <rect class="cls-1" x="42.5327" y="51.5401" width="3.5337" height="3.5337"/>
  <rect class="cls-1" x="88.4837" y="58.6551" width="3.5337" height="3.5337"/>
  <rect class="cls-1" x="88.4837" y="55.1213" width="3.5337" height="3.5337"/>
  <rect class="cls-1" x="88.4837" y="62.1888" width="3.5337" height="3.5337"/>
  <rect class="cls-1" x="88.4837" y="65.7225" width="3.5337" height="3.5337"/>
  <rect class="cls-1" x="88.4837" y="69.2563" width="3.5337" height="3.5337"/>
  <rect class="cls-1" x="88.4837" y="72.79" width="3.5337" height="3.5337"/>
  <rect class="cls-1" x="7.2013" y="62.173" width="3.5337" height="3.5337"/>
  <rect class="cls-1" x="63.7413" y="72.7742" width="3.5337" height="3.5337"/>
  <rect class="cls-1" x="63.7413" y="76.3079" width="3.5337" height="3.5337"/>
  <rect class="cls-1" x="7.2013" y="65.7067" width="3.5337" height="3.5337"/>
  <rect class="cls-1" x="7.2013" y="69.2405" width="3.5337" height="3.5337"/>
  <rect class="cls-1" x="7.2013" y="72.7742" width="3.5337" height="3.5337"/>
  <rect class="cls-1" x="7.2013" y="76.3079" width="3.5337" height="3.5337"/>
  <rect class="cls-1" x="84.9499" y="76.3238" width="3.5337" height="3.5337"/>
  <rect class="cls-1" x="84.9499" y="79.8575" width="3.5337" height="3.5337"/>
  <rect class="cls-1" x="81.4162" y="83.3913" width="3.5337" height="3.5337"/>
  <rect class="cls-1" x="81.4162" y="86.925" width="3.5337" height="3.5337"/>
  <rect class="cls-1" x="77.8824" y="86.925" width="3.5337" height="3.5337"/>
  <rect class="cls-1" x="74.3487" y="86.925" width="3.5337" height="3.5337"/>
  <rect class="cls-1" x="70.8149" y="86.925" width="3.5337" height="3.5337"/>
  <rect class="cls-1" x="67.2689" y="86.9092" width="3.5337" height="3.5337"/>
  <rect class="cls-1" x="63.7413" y="86.9092" width="3.5337" height="3.5337"/>
  <rect class="cls-1" x="53.14" y="97.5104" width="3.5337" height="3.5337"/>
  <rect class="cls-1" x="49.6063" y="97.5104" width="3.5337" height="3.5337"/>
  <rect class="cls-1" x="46.0726" y="97.5104" width="3.5337" height="3.5337"/>
  <rect class="cls-1" x="42.5388" y="97.5104" width="3.5337" height="3.5337"/>
  <rect class="cls-1" x="39.0051" y="97.5104" width="3.5337" height="3.5337"/>
  <rect class="cls-1" x="63.7413" y="90.4429" width="3.5337" height="3.5337"/>
  <rect class="cls-1" x="60.2075" y="93.9767" width="3.5337" height="3.5337"/>
  <rect class="cls-1" x="56.6738" y="93.9767" width="3.5337" height="3.5337"/>
  <rect class="cls-1" x="53.1278" y="90.564" width="3.5337" height="3.5337"/>
  <rect class="cls-1" x="49.594" y="90.564" width="3.5337" height="3.5337"/>
  <rect class="cls-1" x="46.0603" y="90.564" width="3.5337" height="3.5337"/>
  <rect class="cls-1" x="60.1953" y="87.0303" width="3.5337" height="3.5337"/>
  <rect class="cls-1" x="56.6615" y="87.0303" width="3.5337" height="3.5337"/>
  <rect class="cls-1" x="35.4713" y="97.5104" width="3.5337" height="3.5337"/>
  <rect class="cls-1" x="31.9376" y="97.5104" width="3.5337" height="3.5337"/>
  <rect class="cls-1" x="35.4774" y="51.5717" width="3.5337" height="3.5337"/>
  <rect class="cls-1" x="39.0112" y="51.5717" width="3.5337" height="3.5337"/>
  <rect class="cls-1" x="31.9437" y="51.5717" width="3.5337" height="3.5337"/>
  <rect class="cls-1" x="28.41" y="51.5717" width="3.5337" height="3.5337"/>
  <rect class="cls-1" x="24.8762" y="51.5717" width="3.5337" height="3.5337"/>
  <rect class="cls-1" x="21.3425" y="51.5717" width="3.5337" height="3.5337"/>
  <rect class="cls-1" x="17.8087" y="51.5717" width="3.5337" height="3.5337"/>
  <rect class="cls-1" x="14.275" y="51.5717" width="3.5337" height="3.5337"/>
  <rect class="cls-1" x="28.4038" y="94.0978" width="3.5337" height="3.5337"/>
  <rect class="cls-1" x="24.8701" y="94.0978" width="3.5337" height="3.5337"/>
  <rect class="cls-1" x="31.9437" y="86.9092" width="3.5337" height="3.5337"/>
  <rect class="cls-1" x="28.41" y="86.9092" width="3.5337" height="3.5337"/>
  <rect class="cls-1" x="14.275" y="55.1371" width="3.5337" height="3.5337"/>
  <rect class="cls-1" x="10.7412" y="55.1371" width="3.5337" height="3.5337"/>
  <rect class="cls-1" x="46.0726" y="37.4051" width="3.5337" height="3.5337"/>
  <rect class="cls-1" x="42.5388" y="37.4051" width="3.5337" height="3.5337"/>
  <rect class="cls-1" x="39.0112" y="33.8872" width="3.5337" height="3.5337"/>
  <rect class="cls-1" x="39.0112" y="30.3692" width="3.5337" height="3.5337"/>
  <rect class="cls-1" x="42.5327" y="26.8513" width="3.5337" height="3.5337"/>
  <rect class="cls-1" x="46.0787" y="33.8872" width="3.5337" height="3.5337"/>
  <rect class="cls-1" x="49.6002" y="26.8513" width="3.5337" height="3.5337"/>
  <rect class="cls-1" x="49.6002" y="30.3534" width="3.5337" height="3.5337"/>
  <rect class="cls-1" x="49.5879" y="19.7838" width="3.5337" height="3.5337"/>
  <rect class="cls-1" x="49.5879" y="16.2659" width="3.5337" height="3.5337"/>
  <rect class="cls-1" x="56.6554" y="19.7918" width="3.5337" height="3.5337"/>
  <rect class="cls-1" x="56.6554" y="16.2738" width="3.5337" height="3.5337"/>
  <rect class="cls-1" x="60.1994" y="26.8434" width="3.5337" height="3.5337"/>
  <rect class="cls-1" x="60.1891" y="30.3692" width="3.5337" height="3.5337"/>
  <rect class="cls-1" x="60.1994" y="23.3255" width="3.5337" height="3.5337"/>
  <rect class="cls-1" x="53.1216" y="12.7322" width="3.5337" height="3.5337"/>
  <rect class="cls-1" x="46.0664" y="23.3176" width="3.5337" height="3.5337"/>
  <rect class="cls-1" x="35.4774" y="33.8872" width="3.5337" height="3.5337"/>
  <rect class="cls-1" x="31.9437" y="30.3534" width="3.5337" height="3.5337"/>
  <rect class="cls-1" x="28.41" y="30.3534" width="3.5337" height="3.5337"/>
  <rect class="cls-1" x="24.8762" y="30.3534" width="3.5337" height="3.5337"/>
  <rect class="cls-1" x="21.3425" y="26.8197" width="3.5337" height="3.5337"/>
  <rect class="cls-1" x="17.8087" y="26.8197" width="3.5337" height="3.5337"/>
  <rect class="cls-1" x="14.275" y="26.8197" width="3.5337" height="3.5337"/>
  <rect class="cls-1" x="10.7412" y="26.8197" width="3.5337" height="3.5337"/>
  <rect class="cls-1" x="7.2013" y="58.6709" width="3.5337" height="3.5337"/>
  <rect class="cls-1" x="10.7596" y="40.923" width="3.5337" height="3.5337"/>
  <rect class="cls-1" x="17.8087" y="48.038" width="3.5337" height="3.5337"/>
  <rect class="cls-1" x="14.275" y="44.4726" width="3.5337" height="3.5337"/>
  <rect class="cls-1" x="10.7596" y="37.4209" width="3.5337" height="3.5337"/>
  <rect class="cls-1" x="17.8179" y="37.3496" width="3.5337" height="3.5337"/>
  <rect class="cls-1" x="21.3333" y="44.4726" width="3.5337" height="3.5337"/>
  <rect class="cls-1" x="24.8762" y="48.038" width="3.5337" height="3.5337"/>
  <rect class="cls-1" x="28.41" y="48.038" width="3.5337" height="3.5337"/>
  <rect class="cls-1" x="21.3333" y="40.8992" width="3.5337" height="3.5337"/>
  <rect class="cls-1" x="14.275" y="33.8476" width="3.5337" height="3.5337"/>
  <rect class="cls-1" x="14.275" y="30.3534" width="3.5337" height="3.5337"/>
  <rect class="cls-1" x="7.2075" y="30.3217" width="3.5337" height="3.5337"/>
  <rect class="cls-1" x="7.2075" y="33.8555" width="3.5337" height="3.5337"/>
  <rect class="cls-1" x="7.2075" y="26.8197" width="3.5337" height="3.5337"/>
  <rect class="cls-1" x="21.3363" y="90.564" width="3.5337" height="3.5337"/>
  <rect class="cls-1" x="17.8026" y="87.0303" width="3.5337" height="3.5337"/>
  <rect class="cls-1" x="14.2688" y="83.4965" width="3.5337" height="3.5337"/>
  <rect class="cls-1" x="24.8762" y="83.4965" width="3.5337" height="3.5337"/>
  <rect class="cls-1" x="21.3425" y="79.9628" width="3.5337" height="3.5337"/>
  <rect class="cls-1" x="17.8087" y="76.4291" width="3.5337" height="3.5337"/>
  <rect class="cls-1" x="10.7351" y="79.9628" width="3.5337" height="3.5337"/>
  <rect class="cls-1" x="63.7413" y="83.3754" width="3.5337" height="3.5337"/>
  <rect class="cls-1" x="63.7413" y="79.8417" width="3.5337" height="3.5337"/>
  <rect class="cls-1" x="84.9499" y="51.5559" width="3.5337" height="3.5337"/>
  <rect class="cls-1" x="84.9458" y="48.0221" width="3.5337" height="3.5337"/>
  <rect class="cls-1" x="77.8804" y="69.2405" width="3.5337" height="3.5337"/>
  <rect class="cls-1" x="77.8804" y="65.7067" width="3.5337" height="3.5337"/>
  <rect class="cls-1" x="74.3425" y="76.3079" width="3.5337" height="3.5337"/>
  <rect class="cls-1" x="70.8026" y="79.9628" width="3.5337" height="3.5337"/>
  <rect class="cls-1" x="74.3384" y="72.7742" width="3.5337" height="3.5337"/>
  <rect class="cls-1" x="60.1994" y="69.2563" width="3.5337" height="3.5337"/>
  <rect class="cls-1" x="60.1994" y="65.6909" width="3.5337" height="3.5337"/>
  <rect class="cls-1" x="56.6656" y="62.173" width="3.5337" height="3.5337"/>
  <rect class="cls-1" x="53.1319" y="58.6392" width="3.5337" height="3.5337"/>
  <rect class="cls-1" x="60.1953" y="33.8713" width="3.5337" height="3.5337"/>
  <rect class="cls-1" x="56.6615" y="33.8713" width="3.5337" height="3.5337"/>
  <rect class="cls-1" x="53.1278" y="37.4051" width="3.5337" height="3.5337"/>
</svg>