<?xml version="1.0" encoding="UTF-8"?>
<svg id="Layer_1" data-name="Layer 1" xmlns="http://www.w3.org/2000/svg" viewBox="0 0 99.2126 113.3858">
  <defs>
    <style>
      .cls-1 {
        fill: #231f20;
      }
    </style>
  </defs>
  <rect class="cls-1" x="5.8222" y="59.9869" width="4.799" height="4.799"/>
  <rect class="cls-1" x="5.8222" y="55.188" width="4.799" height="4.799"/>
  <rect class="cls-1" x="10.6212" y="50.389" width="4.799" height="4.799"/>
  <rect class="cls-1" x="10.6212" y="45.5901" width="4.799" height="4.799"/>
  <rect class="cls-1" x="15.4201" y="40.7911" width="4.799" height="4.799"/>
  <rect class="cls-1" x="20.2191" y="35.9922" width="4.799" height="4.799"/>
  <rect class="cls-1" x="5.8222" y="64.7859" width="4.799" height="4.799"/>
  <rect class="cls-1" x="5.8222" y="69.5849" width="4.799" height="4.799"/>
  <rect class="cls-1" x="10.4181" y="74.3838" width="4.799" height="4.799"/>
  <rect class="cls-1" x="10.4181" y="79.1828" width="4.799" height="4.799"/>
  <rect class="cls-1" x="25.018" y="31.1932" width="4.799" height="4.799"/>
  <rect class="cls-1" x="25.018" y="31.1932" width="4.799" height="4.799"/>
  <rect class="cls-1" x="34.6215" y="31.1932" width="4.799" height="4.799"/>
  <rect class="cls-1" x="34.6215" y="26.3943" width="4.799" height="4.799"/>
  <rect class="cls-1" x="34.6215" y="21.5953" width="4.799" height="4.799"/>
  <rect class="cls-1" x="29.8225" y="21.5953" width="4.799" height="4.799"/>
  <rect class="cls-1" x="34.6215" y="16.7963" width="4.799" height="4.799"/>
  <rect class="cls-1" x="29.8225" y="16.7963" width="4.799" height="4.799"/>
  <rect class="cls-1" x="49.0156" y="21.5953" width="4.799" height="4.799"/>
  <rect class="cls-1" x="53.8132" y="21.5953" width="4.799" height="4.799"/>
  <rect class="cls-1" x="44.2166" y="21.5953" width="4.799" height="4.799"/>
  <rect class="cls-1" x="39.4177" y="21.5953" width="4.799" height="4.799"/>
  <rect class="cls-1" x="53.9731" y="93.5796" width="4.799" height="4.799"/>
  <rect class="cls-1" x="58.7706" y="93.5796" width="4.799" height="4.799"/>
  <rect class="cls-1" x="63.5696" y="93.5796" width="4.799" height="4.799"/>
  <rect class="cls-1" x="49.1741" y="93.5796" width="4.799" height="4.799"/>
  <rect class="cls-1" x="49.1755" y="93.5796" width="4.799" height="4.799"/>
  <rect class="cls-1" x="49.0156" y="16.7963" width="4.799" height="4.799"/>
  <rect class="cls-1" x="44.2166" y="16.7963" width="4.799" height="4.799"/>
  <rect class="cls-1" x="63.4111" y="21.5953" width="4.799" height="4.799"/>
  <rect class="cls-1" x="58.6121" y="21.5953" width="4.799" height="4.799"/>
  <rect class="cls-1" x="63.4111" y="16.7963" width="4.799" height="4.799"/>
  <rect class="cls-1" x="58.6121" y="16.7963" width="4.799" height="4.799"/>
  <rect class="cls-1" x="29.817" y="31.1932" width="4.799" height="4.799"/>
  <rect class="cls-1" x="87.5644" y="59.9869" width="4.799" height="4.799" transform="translate(179.9277 124.7729) rotate(-180)"/>
  <rect class="cls-1" x="87.5644" y="55.188" width="4.799" height="4.799" transform="translate(179.9277 115.1749) rotate(-180)"/>
  <rect class="cls-1" x="82.7654" y="50.389" width="4.799" height="4.799" transform="translate(170.3298 105.577) rotate(-180)"/>
  <rect class="cls-1" x="82.7654" y="45.5901" width="4.799" height="4.799" transform="translate(170.3298 95.9791) rotate(-180)"/>
  <rect class="cls-1" x="82.7654" y="79.1828" width="4.799" height="4.799" transform="translate(170.3298 163.1645) rotate(-180)"/>
  <rect class="cls-1" x="77.9637" y="83.9817" width="4.799" height="4.799" transform="translate(160.7263 172.7624) rotate(-180)"/>
  <rect class="cls-1" x="73.1647" y="88.7807" width="4.799" height="4.799" transform="translate(151.1284 182.3603) rotate(-180)"/>
  <rect class="cls-1" x="68.3658" y="88.7807" width="4.799" height="4.799" transform="translate(141.5305 182.3603) rotate(-180)"/>
  <rect class="cls-1" x="70.768" y="74.3838" width="4.799" height="4.799" transform="translate(146.335 153.5666) rotate(-180)"/>
  <rect class="cls-1" x="65.9691" y="79.1828" width="4.799" height="4.799" transform="translate(136.7371 163.1645) rotate(-180)"/>
  <rect class="cls-1" x="61.1701" y="79.1828" width="4.799" height="4.799" transform="translate(127.1392 163.1645) rotate(-180)"/>
  <rect class="cls-1" x="82.7654" y="74.3838" width="4.799" height="4.799" transform="translate(170.3298 153.5666) rotate(-180)"/>
  <rect class="cls-1" x="39.2126" y="93.5796" width="4.799" height="4.799" transform="translate(83.2241 191.9582) rotate(-180)"/>
  <rect class="cls-1" x="34.415" y="93.5796" width="4.799" height="4.799" transform="translate(73.629 191.9582) rotate(-180)"/>
  <rect class="cls-1" x="29.6171" y="93.5796" width="4.799" height="4.799" transform="translate(64.0332 191.9582) rotate(-180)"/>
  <rect class="cls-1" x="44.0115" y="93.5796" width="4.799" height="4.799" transform="translate(92.822 191.9582) rotate(-180)"/>
  <rect class="cls-1" x="48.8105" y="93.5796" width="4.799" height="4.799" transform="translate(102.4199 191.9582) rotate(-180)"/>
  <rect class="cls-1" x="15.2192" y="83.9817" width="4.799" height="4.799"/>
  <rect class="cls-1" x="20.0181" y="88.7807" width="4.799" height="4.799"/>
  <rect class="cls-1" x="24.8171" y="88.7807" width="4.799" height="4.799"/>
  <rect class="cls-1" x="20.0171" y="57.5875" width="4.799" height="4.799"/>
  <rect class="cls-1" x="20.0171" y="62.3864" width="4.799" height="4.799"/>
  <rect class="cls-1" x="24.8161" y="67.1854" width="4.799" height="4.799"/>
  <rect class="cls-1" x="24.8161" y="71.9843" width="4.799" height="4.799"/>
  <rect class="cls-1" x="44.014" y="86.3812" width="4.799" height="4.799" transform="translate(92.8269 177.5614) rotate(-180)"/>
  <rect class="cls-1" x="29.6171" y="76.7833" width="4.799" height="4.799"/>
  <rect class="cls-1" x="34.4161" y="81.5823" width="4.799" height="4.799"/>
  <rect class="cls-1" x="39.215" y="81.5823" width="4.799" height="4.799"/>
  <rect class="cls-1" x="77.9664" y="40.7911" width="4.799" height="4.799" transform="translate(160.7318 86.3812) rotate(-180)"/>
  <rect class="cls-1" x="73.1675" y="35.9922" width="4.799" height="4.799" transform="translate(151.1339 76.7833) rotate(-180)"/>
  <rect class="cls-1" x="87.5644" y="64.7859" width="4.799" height="4.799" transform="translate(179.9277 134.3708) rotate(-180)"/>
  <rect class="cls-1" x="87.5644" y="69.5849" width="4.799" height="4.799" transform="translate(179.9277 143.9687) rotate(-180)"/>
  <rect class="cls-1" x="68.3685" y="31.1932" width="4.799" height="4.799" transform="translate(141.536 67.1854) rotate(-180)"/>
  <rect class="cls-1" x="58.7706" y="31.1932" width="4.799" height="4.799" transform="translate(122.3402 67.1854) rotate(-180)"/>
  <rect class="cls-1" x="58.6649" y="26.3943" width="4.799" height="4.799" transform="translate(122.1289 57.5875) rotate(-180)"/>
  <rect class="cls-1" x="63.5696" y="31.1932" width="4.799" height="4.799" transform="translate(131.9381 67.1854) rotate(-180)"/>
</svg>