<?xml version="1.0" encoding="UTF-8"?>
<svg id="Blocks" xmlns="http://www.w3.org/2000/svg" viewBox="0 0 191.3323 148.8415">
  <rect x="106.293" y="7.1063" width="7.0866" height="7.0866"/>
  <rect x="77.9465" y="7.0955" width="7.0866" height="7.0866"/>
  <rect x="106.293" y="113.4113" width="7.0866" height="7.0866"/>
  <rect x="77.9465" y="14.1821" width="7.0866" height="7.0866"/>
  <rect x="85.0331" y="14.1821" width="7.0866" height="7.0866"/>
  <rect x="70.8599" y="14.1821" width="7.0866" height="7.0866"/>
  <rect x="106.293" y="14.1929" width="7.0866" height="7.0866"/>
  <rect x="113.3796" y="14.1929" width="7.0866" height="7.0866"/>
  <rect x="99.2064" y="14.1929" width="7.0866" height="7.0866"/>
  <rect x="70.8599" y="21.2722" width="7.0866" height="7.0866"/>
  <rect x="85.0331" y="85.0587" width="7.0866" height="7.0866"/>
  <rect x="85.0331" y="92.1489" width="7.0866" height="7.0866"/>
  <rect x="77.9465" y="92.1489" width="7.0866" height="7.0866"/>
  <rect x="77.9465" y="85.0587" width="7.0866" height="7.0866"/>
  <rect x="85.0331" y="106.3247" width="7.0866" height="7.0866"/>
  <rect x="85.0331" y="113.4148" width="7.0866" height="7.0866"/>
  <rect x="77.9465" y="113.4074" width="7.0866" height="7.0866"/>
  <rect x="77.9465" y="106.3247" width="7.0866" height="7.0866"/>
  <rect x="106.293" y="106.3177" width="7.0866" height="7.0866"/>
  <rect x="99.2064" y="113.4078" width="7.0866" height="7.0866"/>
  <rect x="99.2064" y="106.3177" width="7.0866" height="7.0866"/>
  <rect x="106.293" y="85.0627" width="7.0866" height="7.0866"/>
  <rect x="106.293" y="92.1528" width="7.0866" height="7.0866"/>
  <rect x="134.6394" y="85.0553" width="7.0866" height="7.0866"/>
  <rect x="134.6394" y="92.1659" width="7.0866" height="7.0866"/>
  <rect x="99.2064" y="92.1528" width="7.0866" height="7.0866"/>
  <rect x="99.2064" y="85.0627" width="7.0866" height="7.0866"/>
  <rect x="170.0725" y="49.6406" width="7.0866" height="7.0866"/>
  <rect x="155.8993" y="49.6335" width="7.0866" height="7.0866"/>
  <rect x="170.0725" y="42.5477" width="7.0866" height="7.0866"/>
  <rect x="155.8993" y="42.5405" width="7.0866" height="7.0866"/>
  <rect x="148.8127" y="42.5381" width="7.0866" height="7.0866"/>
  <rect x="177.1591" y="42.5477" width="7.0866" height="7.0866"/>
  <rect x="177.1591" y="35.4547" width="7.0866" height="7.0866"/>
  <rect x="120.4662" y="49.631" width="7.0866" height="7.0866"/>
  <rect x="106.293" y="49.631" width="7.0866" height="7.0866"/>
  <rect x="113.3796" y="49.631" width="7.0866" height="7.0866"/>
  <rect x="148.8127" y="49.631" width="7.0866" height="7.0866"/>
  <rect x="127.5528" y="49.631" width="7.0866" height="7.0866"/>
  <rect x="134.6394" y="49.631" width="7.0866" height="7.0866"/>
  <rect x="141.726" y="49.631" width="7.0866" height="7.0866"/>
  <rect x="155.8993" y="56.7162" width="7.0866" height="7.0866"/>
  <rect x="120.4662" y="56.7137" width="7.0866" height="7.0866"/>
  <rect x="106.293" y="56.7137" width="7.0866" height="7.0866"/>
  <rect x="106.293" y="63.8005" width="7.0866" height="7.0866"/>
  <rect x="113.3796" y="56.7137" width="7.0866" height="7.0866"/>
  <rect x="148.8127" y="56.7137" width="7.0866" height="7.0866"/>
  <rect x="127.5528" y="56.7137" width="7.0866" height="7.0866"/>
  <rect x="134.6394" y="56.7137" width="7.0866" height="7.0866"/>
  <rect x="141.726" y="56.7137" width="7.0866" height="7.0866"/>
  <rect x="155.8993" y="70.891" width="7.0866" height="7.0866"/>
  <rect x="162.9859" y="49.6335" width="7.0866" height="7.0866"/>
  <rect x="162.9859" y="42.5405" width="7.0866" height="7.0866"/>
  <rect x="162.9859" y="56.7162" width="7.0866" height="7.0866"/>
  <rect x="155.8993" y="63.8033" width="7.0866" height="7.0866"/>
  <rect x="120.4662" y="63.8009" width="7.0866" height="7.0866"/>
  <rect x="113.3796" y="63.8009" width="7.0866" height="7.0866"/>
  <rect x="148.8127" y="63.8009" width="7.0866" height="7.0866"/>
  <rect x="127.5528" y="63.8009" width="7.0866" height="7.0866"/>
  <rect x="134.6394" y="63.8009" width="7.0866" height="7.0866"/>
  <rect x="141.726" y="63.8009" width="7.0866" height="7.0866"/>
  <rect x="162.9859" y="63.8033" width="7.0866" height="7.0866"/>
  <rect x="120.4662" y="70.8885" width="7.0866" height="7.0866"/>
  <rect x="113.3796" y="70.8885" width="7.0866" height="7.0866"/>
  <rect x="148.8127" y="70.8885" width="7.0866" height="7.0866"/>
  <rect x="127.5528" y="70.8885" width="7.0866" height="7.0866"/>
  <rect x="134.6394" y="70.8885" width="7.0866" height="7.0866"/>
  <rect x="141.726" y="70.8885" width="7.0866" height="7.0866"/>
  <rect x="120.4662" y="77.9812" width="7.0866" height="7.0866"/>
  <rect x="127.5528" y="77.9812" width="7.0866" height="7.0866"/>
  <rect x="134.6394" y="77.9812" width="7.0866" height="7.0866"/>
  <rect x="141.726" y="77.9812" width="7.0866" height="7.0866"/>
  <rect x="63.7733" y="63.8087" width="7.0866" height="7.0866" transform="translate(134.6332 134.7041) rotate(-180)"/>
  <rect x="70.8599" y="63.8087" width="7.0866" height="7.0866" transform="translate(148.8064 134.7041) rotate(-180)"/>
  <rect x="56.6867" y="63.8087" width="7.0866" height="7.0866" transform="translate(120.46 134.7041) rotate(-180)"/>
  <rect x="49.6001" y="63.8087" width="7.0866" height="7.0866" transform="translate(106.2867 134.7041) rotate(-180)"/>
  <rect x="42.5134" y="63.8087" width="7.0866" height="7.0866" transform="translate(92.1135 134.7041) rotate(-180)"/>
  <rect x="63.7733" y="70.8929" width="7.0866" height="7.0866" transform="translate(134.6332 148.8723) rotate(-180)"/>
  <rect x="70.8599" y="70.8929" width="7.0866" height="7.0866" transform="translate(148.8064 148.8723) rotate(-180)"/>
  <rect x="56.6867" y="70.8929" width="7.0866" height="7.0866" transform="translate(120.46 148.8723) rotate(-180)"/>
  <rect x="49.6001" y="70.8929" width="7.0866" height="7.0866" transform="translate(106.2867 148.8723) rotate(-180)"/>
  <rect x="42.5134" y="70.8929" width="7.0866" height="7.0866" transform="translate(92.1135 148.8723) rotate(-180)"/>
  <rect x="63.7733" y="77.9856" width="7.0866" height="7.0866" transform="translate(134.6332 163.0578) rotate(-180)"/>
  <rect x="56.6867" y="77.9856" width="7.0866" height="7.0866" transform="translate(120.46 163.0578) rotate(-180)"/>
  <rect x="49.6001" y="77.9856" width="7.0866" height="7.0866" transform="translate(106.2867 163.0578) rotate(-180)"/>
  <rect x="42.5134" y="77.9856" width="7.0866" height="7.0866" transform="translate(92.1135 163.0578) rotate(-180)"/>
  <rect x="148.8127" y="77.9812" width="7.0866" height="7.0866"/>
  <rect x="127.5528" y="99.2434" width="7.0866" height="7.0866"/>
  <rect x="120.4662" y="99.2434" width="7.0866" height="7.0866"/>
  <rect x="113.3796" y="99.2346" width="7.0866" height="7.0866"/>
  <rect x="134.6394" y="99.2434" width="7.0866" height="7.0866"/>
  <rect x="141.726" y="99.2434" width="7.0866" height="7.0866"/>
  <rect x="148.8127" y="99.2434" width="7.0866" height="7.0866"/>
  <rect x="155.8993" y="99.2434" width="7.0866" height="7.0866"/>
  <rect x="170.0725" y="77.9501" width="7.0866" height="7.0866"/>
  <rect x="162.9859" y="85.0681" width="7.0866" height="7.0866"/>
  <rect x="170.0725" y="92.1456" width="7.0866" height="7.0866"/>
  <rect x="177.1591" y="85.0508" width="7.0866" height="7.0866"/>
  <rect x="170.0725" y="106.3171" width="7.0866" height="7.0866"/>
  <rect x="162.9859" y="113.4351" width="7.0866" height="7.0866"/>
  <rect x="170.0725" y="120.5126" width="7.0866" height="7.0866"/>
  <rect x="177.1591" y="113.4178" width="7.0866" height="7.0866"/>
  <rect x="14.167" y="77.939" width="7.0866" height="7.0866"/>
  <rect x="7.0804" y="85.057" width="7.0866" height="7.0866"/>
  <rect x="14.167" y="92.1346" width="7.0866" height="7.0866"/>
  <rect x="21.2536" y="85.0397" width="7.0866" height="7.0866"/>
  <rect x="14.167" y="106.306" width="7.0866" height="7.0866"/>
  <rect x="7.0804" y="113.424" width="7.0866" height="7.0866"/>
  <rect x="14.167" y="120.5016" width="7.0866" height="7.0866"/>
  <rect x="21.2536" y="113.4067" width="7.0866" height="7.0866"/>
  <rect x="49.6001" y="85.0478" width="7.0866" height="7.0866"/>
  <rect x="49.6001" y="92.1584" width="7.0866" height="7.0866"/>
  <rect x="42.5134" y="99.2359" width="7.0866" height="7.0866"/>
  <rect x="35.4268" y="99.2359" width="7.0866" height="7.0866"/>
  <rect x="28.3402" y="99.2272" width="7.0866" height="7.0866"/>
  <rect x="49.6001" y="99.2359" width="7.0866" height="7.0866"/>
  <rect x="56.6867" y="99.2359" width="7.0866" height="7.0866"/>
  <rect x="63.7733" y="99.2359" width="7.0866" height="7.0866"/>
  <rect x="70.8599" y="99.2359" width="7.0866" height="7.0866"/>
  <rect x="14.167" y="49.6347" width="7.0866" height="7.0866" transform="translate(35.4206 106.356) rotate(-180)"/>
  <rect x="28.3402" y="49.6276" width="7.0866" height="7.0866" transform="translate(63.767 106.3417) rotate(-180)"/>
  <rect x="14.167" y="42.5417" width="7.0866" height="7.0866" transform="translate(35.4206 92.17) rotate(-180)"/>
  <rect x="28.3402" y="42.5346" width="7.0866" height="7.0866" transform="translate(63.767 92.1558) rotate(-180)"/>
  <rect x="35.4268" y="42.5321" width="7.0866" height="7.0866" transform="translate(77.9403 92.1508) rotate(-180)"/>
  <rect x="7.0804" y="42.5417" width="7.0866" height="7.0866" transform="translate(21.2474 92.17) rotate(-180)"/>
  <rect x="7.0804" y="35.4487" width="7.0866" height="7.0866" transform="translate(21.2474 77.9841) rotate(-180)"/>
  <rect x="35.4268" y="49.6251" width="7.0866" height="7.0866" transform="translate(77.9403 106.3368) rotate(-180)"/>
  <rect x="28.3402" y="63.813" width="7.0866" height="7.0866" transform="translate(63.767 134.7127) rotate(-180)"/>
  <rect x="35.4268" y="63.8106" width="7.0866" height="7.0866" transform="translate(77.9403 134.7078) rotate(-180)"/>
  <rect x="28.3402" y="70.8972" width="7.0866" height="7.0866" transform="translate(63.767 148.8809) rotate(-180)"/>
  <rect x="21.2536" y="49.6276" width="7.0866" height="7.0866" transform="translate(49.5938 106.3417) rotate(-180)"/>
  <rect x="21.2536" y="42.5346" width="7.0866" height="7.0866" transform="translate(49.5938 92.1558) rotate(-180)"/>
  <rect x="21.2536" y="63.813" width="7.0866" height="7.0866" transform="translate(49.5938 134.7127) rotate(-180)"/>
  <rect x="35.4268" y="70.8947" width="7.0866" height="7.0866" transform="translate(77.9403 148.876) rotate(-180)"/>
  <rect x="35.4268" y="77.9874" width="7.0866" height="7.0866" transform="translate(77.9403 163.0615) rotate(-180)"/>
  <rect x="56.6867" y="49.6189" width="7.0866" height="7.0866"/>
  <rect x="42.5134" y="49.6189" width="7.0866" height="7.0866"/>
  <rect x="49.6001" y="49.6189" width="7.0866" height="7.0866"/>
  <rect x="77.9465" y="49.6189" width="7.0866" height="7.0866"/>
  <rect x="63.7733" y="49.6189" width="7.0866" height="7.0866"/>
  <rect x="70.8599" y="49.6189" width="7.0866" height="7.0866"/>
  <rect x="28.3402" y="56.7145" width="7.0866" height="7.0866" transform="translate(63.767 120.5156) rotate(-180)"/>
  <rect x="35.4268" y="56.712" width="7.0866" height="7.0866" transform="translate(77.9403 120.5106) rotate(-180)"/>
  <rect x="21.2536" y="56.7145" width="7.0866" height="7.0866" transform="translate(49.5938 120.5156) rotate(-180)"/>
  <rect x="56.6867" y="56.7058" width="7.0866" height="7.0866"/>
  <rect x="42.5134" y="56.7058" width="7.0866" height="7.0866"/>
  <rect x="49.6001" y="56.7058" width="7.0866" height="7.0866"/>
  <rect x="77.9465" y="63.7929" width="7.0866" height="7.0866"/>
  <rect x="77.9465" y="56.7058" width="7.0866" height="7.0866"/>
  <rect x="63.7733" y="56.7058" width="7.0866" height="7.0866"/>
  <rect x="70.8599" y="56.7058" width="7.0866" height="7.0866"/>
  <rect x="70.8599" y="28.3553" width="7.0866" height="7.0866"/>
  <rect x="77.9465" y="28.3553" width="7.0866" height="7.0866"/>
  <rect x="56.6867" y="21.2766" width="7.0866" height="7.0866"/>
  <rect x="63.7733" y="21.2766" width="7.0866" height="7.0866"/>
  <rect x="85.0331" y="21.274" width="7.0866" height="7.0866"/>
  <rect x="85.0331" y="28.3571" width="7.0866" height="7.0866"/>
  <rect x="99.2064" y="21.2857" width="7.0866" height="7.0866"/>
  <rect x="99.2064" y="28.3688" width="7.0866" height="7.0866"/>
  <rect x="106.293" y="28.3688" width="7.0866" height="7.0866"/>
  <rect x="113.3796" y="21.2874" width="7.0866" height="7.0866"/>
  <rect x="113.3796" y="28.3705" width="7.0866" height="7.0866"/>
  <rect x="120.4662" y="21.2866" width="7.0866" height="7.0866"/>
  <rect x="127.5528" y="21.2883" width="7.0866" height="7.0866"/>
  <rect x="92.1197" y="134.683" width="7.0866" height="7.0866"/>
  <rect x="92.1229" y="141.74" width="7.0866" height="7.0866"/>
  <rect x="92.1229" y="127.575" width="7.0866" height="7.0866"/>
  <rect x="92.1229" y="120.4883" width="7.0866" height="7.0866"/>
  <rect x="92.1197" y="63.8081" width="7.0866" height="7.0866"/>
  <rect x="92.1197" y="70.8912" width="7.0866" height="7.0866"/>
  <rect x="92.1229" y="77.9501" width="7.0866" height="7.0866"/>
  <rect x="77.9465" y="35.4428" width="7.0866" height="7.0866"/>
  <rect x="77.9465" y="42.5259" width="7.0866" height="7.0866"/>
  <rect x="85.0331" y="49.62" width="7.0866" height="7.0866"/>
  <rect x="85.0331" y="56.7137" width="7.0866" height="7.0866"/>
  <rect x="85.0331" y="35.4439" width="7.0866" height="7.0866"/>
  <rect x="85.0331" y="42.527" width="7.0866" height="7.0866"/>
  <rect x="106.293" y="35.455" width="7.0866" height="7.0866"/>
  <rect x="106.293" y="42.5381" width="7.0866" height="7.0866"/>
  <rect x="99.2064" y="49.6312" width="7.0866" height="7.0866"/>
  <rect x="99.2064" y="56.7137" width="7.0866" height="7.0866"/>
  <rect x="99.2064" y="35.4551" width="7.0866" height="7.0866"/>
  <rect x="99.2064" y="42.5382" width="7.0866" height="7.0866"/>
  <rect x="92.1197" y="99.2346" width="7.0866" height="7.0866"/>
  <rect x="92.1197" y="106.3177" width="7.0866" height="7.0866"/>
  <rect x="99.2064" y="99.2346" width="7.0866" height="7.0866"/>
  <rect x="85.0331" y="99.2346" width="7.0866" height="7.0866"/>
  <rect x="92.1229" y="92.1659" width="7.0866" height="7.0866"/>
  <rect y=".0077" width="7.0866" height="7.0866"/>
  <rect y="7.0943" width="7.0866" height="7.0866"/>
  <rect y="14.1809" width="7.0866" height="7.0866"/>
  <rect y="21.2675" width="7.0866" height="7.0866"/>
  <rect y="28.3541" width="7.0866" height="7.0866"/>
  <rect y="35.4408" width="7.0866" height="7.0866"/>
  <rect y="42.5274" width="7.0866" height="7.0866"/>
  <rect y="49.614" width="7.0866" height="7.0866"/>
  <rect y="56.7006" width="7.0866" height="7.0866"/>
  <rect y="63.7872" width="7.0866" height="7.0866"/>
  <rect y="70.8738" width="7.0866" height="7.0866"/>
  <rect y="77.9604" width="7.0866" height="7.0866"/>
  <rect y="85.0471" width="7.0866" height="7.0866"/>
  <rect y="92.1337" width="7.0866" height="7.0866"/>
  <rect y="99.2203" width="7.0866" height="7.0866"/>
  <rect y="106.3069" width="7.0866" height="7.0866"/>
  <rect y="113.3935" width="7.0866" height="7.0866"/>
  <rect y="120.4801" width="7.0866" height="7.0866"/>
  <rect y="127.5667" width="7.0866" height="7.0866"/>
  <rect y="134.6534" width="7.0866" height="7.0866"/>
  <rect y="141.74" width="7.0866" height="7.0866"/>
  <rect x="184.2457" y=".0226" width="7.0866" height="7.0866"/>
  <rect x="184.2457" y="7.1092" width="7.0866" height="7.0866"/>
  <rect x="184.2457" y="14.1958" width="7.0866" height="7.0866"/>
  <rect x="184.2457" y="21.2824" width="7.0866" height="7.0866"/>
  <rect x="184.2457" y="28.369" width="7.0866" height="7.0866"/>
  <rect x="184.2457" y="35.4556" width="7.0866" height="7.0866"/>
  <rect x="184.2457" y="42.5423" width="7.0866" height="7.0866"/>
  <rect x="184.2457" y="49.6289" width="7.0866" height="7.0866"/>
  <rect x="184.2457" y="56.7155" width="7.0866" height="7.0866"/>
  <rect x="184.2457" y="63.8021" width="7.0866" height="7.0866"/>
  <rect x="184.2457" y="70.8887" width="7.0866" height="7.0866"/>
  <rect x="184.2457" y="77.9753" width="7.0866" height="7.0866"/>
  <rect x="184.2457" y="85.0619" width="7.0866" height="7.0866"/>
  <rect x="184.2457" y="92.1486" width="7.0866" height="7.0866"/>
  <rect x="184.2457" y="99.2352" width="7.0866" height="7.0866"/>
  <rect x="184.2457" y="106.3218" width="7.0866" height="7.0866"/>
  <rect x="184.2457" y="113.4084" width="7.0866" height="7.0866"/>
  <rect x="184.2457" y="120.495" width="7.0866" height="7.0866"/>
  <rect x="184.2457" y="127.5816" width="7.0866" height="7.0866"/>
  <rect x="184.2457" y="134.6682" width="7.0866" height="7.0866"/>
  <rect x="184.2457" y="141.7549" width="7.0866" height="7.0866"/>
</svg>