<?xml version="1.0" encoding="UTF-8"?>
<svg id="Blocks" xmlns="http://www.w3.org/2000/svg" viewBox="0 0 141.7323 148.7349">
  <rect x="63.7795" y="77.9705" width="7.0866" height="7.0866"/>
  <rect x="70.8661" y="77.9705" width="7.0866" height="7.0866"/>
  <rect x="70.8661" y="70.8839" width="7.0866" height="7.0866"/>
  <rect x="77.9528" y="77.9705" width="7.0866" height="7.0866"/>
  <rect x="77.9528" y="70.8839" width="7.0866" height="7.0866"/>
  <rect x="56.6929" y="77.9705" width="7.0866" height="7.0866"/>
  <rect x="56.6929" y="70.8839" width="7.0866" height="7.0866"/>
  <rect x="63.7795" y="70.8839" width="7.0866" height="7.0866"/>
  <rect x="99.2126" y="63.7973" width="7.0866" height="7.0866"/>
  <rect x="106.2992" y="63.7973" width="7.0866" height="7.0866"/>
  <rect x="85.0394" y="63.7973" width="7.0866" height="7.0866"/>
  <rect x="92.126" y="63.7973" width="7.0866" height="7.0866"/>
  <rect x="99.2126" y="56.7071" width="7.0866" height="7.0866"/>
  <rect x="106.2992" y="56.7071" width="7.0866" height="7.0866"/>
  <rect x="113.3858" y="56.7071" width="7.0866" height="7.0866"/>
  <rect x="113.3858" y="63.7973" width="7.0866" height="7.0866"/>
  <rect x="99.2126" y="49.624" width="7.0866" height="7.0866"/>
  <rect x="106.2992" y="49.624" width="7.0866" height="7.0866"/>
  <rect x="113.3858" y="49.624" width="7.0866" height="7.0866"/>
  <rect x="120.4724" y="56.7071" width="7.0866" height="7.0866"/>
  <rect x="120.4724" y="49.624" width="7.0866" height="7.0866"/>
  <rect x="106.2992" y="42.5339" width="7.0866" height="7.0866"/>
  <rect x="113.3858" y="42.5339" width="7.0866" height="7.0866"/>
  <rect x="92.126" y="56.7071" width="7.0866" height="7.0866"/>
  <rect x="42.5197" y="63.7973" width="7.0866" height="7.0866"/>
  <rect x="49.6063" y="63.7973" width="7.0866" height="7.0866"/>
  <rect x="28.3465" y="63.7973" width="7.0866" height="7.0866"/>
  <rect x="35.4331" y="63.7973" width="7.0866" height="7.0866"/>
  <rect x="42.5197" y="56.7071" width="7.0866" height="7.0866"/>
  <rect x="28.3465" y="56.7071" width="7.0866" height="7.0866"/>
  <rect x="21.2598" y="56.7071" width="7.0866" height="7.0866"/>
  <rect x="21.2598" y="63.7973" width="7.0866" height="7.0866"/>
  <rect x="35.4331" y="56.7071" width="7.0866" height="7.0866"/>
  <rect x="28.3465" y="49.624" width="7.0866" height="7.0866"/>
  <rect x="21.2598" y="49.624" width="7.0866" height="7.0866"/>
  <rect x="49.6063" y="63.7973" width="7.0866" height="7.0866"/>
  <rect x="14.1732" y="49.6205" width="7.0866" height="7.0866"/>
  <rect x="14.1732" y="56.7142" width="7.0866" height="7.0866"/>
  <rect x="28.3465" y="42.5339" width="7.0866" height="7.0866"/>
  <rect x="21.2598" y="42.5339" width="7.0866" height="7.0866"/>
  <rect x="35.4331" y="49.624" width="7.0866" height="7.0866"/>
  <rect x="70.8661" y="63.7973" width="7.0866" height="7.0866"/>
  <rect x="63.7795" y="63.7973" width="7.0866" height="7.0866"/>
  <rect x="70.8661" y="85.0571" width="7.0866" height="7.0866"/>
  <rect x="63.7795" y="85.0571" width="7.0866" height="7.0866"/>
  <rect x="77.9528" y="42.5339" width="7.0866" height="7.0866"/>
  <rect x="77.9528" y="49.6205" width="7.0866" height="7.0866"/>
  <rect x="77.9528" y="56.7071" width="7.0866" height="7.0866"/>
  <rect x="56.6929" y="42.5339" width="7.0866" height="7.0866"/>
  <rect x="56.6929" y="49.6205" width="7.0866" height="7.0866"/>
  <rect x="56.6929" y="35.4473" width="7.0866" height="7.0866"/>
  <rect x="49.6063" y="42.5374" width="7.0866" height="7.0866"/>
  <rect x="49.6063" y="49.624" width="7.0866" height="7.0866"/>
  <rect x="49.6063" y="28.3642" width="7.0866" height="7.0866"/>
  <rect x="56.6929" y="28.3642" width="7.0866" height="7.0866"/>
  <rect x="49.6063" y="35.4508" width="7.0866" height="7.0866"/>
  <rect x="42.5197" y="42.5339" width="7.0866" height="7.0866"/>
  <rect x="42.5197" y="28.3607" width="7.0866" height="7.0866"/>
  <rect x="49.6063" y="21.2776" width="7.0866" height="7.0866"/>
  <rect x="42.5197" y="21.2741" width="7.0866" height="7.0866"/>
  <rect x="42.5197" y="35.4473" width="7.0866" height="7.0866"/>
  <rect x="35.4331" y="28.3572" width="7.0866" height="7.0866"/>
  <rect x="35.4331" y="35.4438" width="7.0866" height="7.0866"/>
  <rect x="77.9528" y="35.4473" width="7.0866" height="7.0866"/>
  <rect x="85.0394" y="42.5374" width="7.0866" height="7.0866"/>
  <rect x="85.0394" y="49.624" width="7.0866" height="7.0866"/>
  <rect x="85.0394" y="28.3642" width="7.0866" height="7.0866"/>
  <rect x="77.9528" y="28.3572" width="7.0866" height="7.0866"/>
  <rect x="85.0394" y="35.4508" width="7.0866" height="7.0866"/>
  <rect x="92.126" y="42.5374" width="7.0866" height="7.0866"/>
  <rect x="92.126" y="28.3642" width="7.0866" height="7.0866"/>
  <rect x="85.0394" y="21.2776" width="7.0866" height="7.0866"/>
  <rect x="92.126" y="21.2776" width="7.0866" height="7.0866"/>
  <rect x="92.126" y="35.4508" width="7.0866" height="7.0866"/>
  <rect x="99.2126" y="28.3642" width="7.0866" height="7.0866"/>
  <rect x="99.2126" y="35.4508" width="7.0866" height="7.0866"/>
  <rect x="99.2126" y="85.0571" width="7.0866" height="7.0866"/>
  <rect x="106.2992" y="85.0571" width="7.0866" height="7.0866"/>
  <rect x="85.0394" y="85.0571" width="7.0866" height="7.0866"/>
  <rect x="92.126" y="85.0571" width="7.0866" height="7.0866"/>
  <rect x="99.2126" y="92.1472" width="7.0866" height="7.0866"/>
  <rect x="106.2992" y="92.1472" width="7.0866" height="7.0866"/>
  <rect x="113.3858" y="92.1472" width="7.0866" height="7.0866"/>
  <rect x="113.3858" y="85.0571" width="7.0866" height="7.0866"/>
  <rect x="99.2126" y="99.2303" width="7.0866" height="7.0866"/>
  <rect x="106.2992" y="99.2303" width="7.0866" height="7.0866"/>
  <rect x="113.3858" y="99.2303" width="7.0866" height="7.0866"/>
  <rect x="120.4724" y="92.1472" width="7.0866" height="7.0866"/>
  <rect x="120.4724" y="99.2303" width="7.0866" height="7.0866"/>
  <rect x="106.2992" y="106.3205" width="7.0866" height="7.0866"/>
  <rect x="113.3858" y="106.3205" width="7.0866" height="7.0866"/>
  <rect x="92.126" y="92.1472" width="7.0866" height="7.0866"/>
  <rect x="77.9528" y="106.3205" width="7.0866" height="7.0866"/>
  <rect x="77.9528" y="99.2339" width="7.0866" height="7.0866"/>
  <rect x="77.9528" y="92.1472" width="7.0866" height="7.0866"/>
  <rect x="77.9528" y="113.4071" width="7.0866" height="7.0866"/>
  <rect x="85.0394" y="106.317" width="7.0866" height="7.0866"/>
  <rect x="85.0394" y="99.2303" width="7.0866" height="7.0866"/>
  <rect x="85.0394" y="120.4902" width="7.0866" height="7.0866"/>
  <rect x="77.9528" y="120.4972" width="7.0866" height="7.0866"/>
  <rect x="85.0394" y="113.4036" width="7.0866" height="7.0866"/>
  <rect x="92.126" y="106.317" width="7.0866" height="7.0866"/>
  <rect x="92.126" y="120.4902" width="7.0866" height="7.0866"/>
  <rect x="85.0394" y="127.5768" width="7.0866" height="7.0866"/>
  <rect x="92.126" y="127.5768" width="7.0866" height="7.0866"/>
  <rect x="92.126" y="113.4036" width="7.0866" height="7.0866"/>
  <rect x="99.2126" y="120.4902" width="7.0866" height="7.0866"/>
  <rect x="99.2126" y="113.4036" width="7.0866" height="7.0866"/>
  <rect x="56.6929" y="56.7071" width="7.0866" height="7.0866"/>
  <rect x="42.5197" y="85.0554" width="7.0866" height="7.0866"/>
  <rect x="49.6063" y="85.0554" width="7.0866" height="7.0866"/>
  <rect x="28.3465" y="85.0554" width="7.0866" height="7.0866"/>
  <rect x="35.4331" y="85.0554" width="7.0866" height="7.0866"/>
  <rect x="42.5197" y="92.1455" width="7.0866" height="7.0866"/>
  <rect x="28.3465" y="92.1455" width="7.0866" height="7.0866"/>
  <rect x="21.2598" y="92.1455" width="7.0866" height="7.0866"/>
  <rect x="21.2598" y="85.0554" width="7.0866" height="7.0866"/>
  <rect x="35.4331" y="92.1455" width="7.0866" height="7.0866"/>
  <rect x="28.3465" y="99.2286" width="7.0866" height="7.0866"/>
  <rect x="21.2598" y="99.2286" width="7.0866" height="7.0866"/>
  <rect x="14.1732" y="92.149" width="7.0866" height="7.0866"/>
  <rect x="14.1732" y="99.2321" width="7.0866" height="7.0866"/>
  <rect x="28.3465" y="106.3187" width="7.0866" height="7.0866"/>
  <rect x="21.2598" y="106.3187" width="7.0866" height="7.0866"/>
  <rect x="35.4331" y="99.2286" width="7.0866" height="7.0866"/>
  <rect x="56.6929" y="106.3187" width="7.0866" height="7.0866"/>
  <rect x="56.6929" y="99.2321" width="7.0866" height="7.0866"/>
  <rect x="56.6929" y="113.4053" width="7.0866" height="7.0866"/>
  <rect x="49.6063" y="106.3152" width="7.0866" height="7.0866"/>
  <rect x="49.6063" y="99.2286" width="7.0866" height="7.0866"/>
  <rect x="49.6063" y="120.4884" width="7.0866" height="7.0866"/>
  <rect x="56.6929" y="120.4884" width="7.0866" height="7.0866"/>
  <rect x="49.6063" y="113.4018" width="7.0866" height="7.0866"/>
  <rect x="42.5197" y="106.3187" width="7.0866" height="7.0866"/>
  <rect x="42.5197" y="120.4919" width="7.0866" height="7.0866"/>
  <rect x="49.6063" y="127.575" width="7.0866" height="7.0866"/>
  <rect x="42.5197" y="127.5786" width="7.0866" height="7.0866"/>
  <rect x="42.5197" y="113.4053" width="7.0866" height="7.0866"/>
  <rect x="35.4331" y="120.4955" width="7.0866" height="7.0866"/>
  <rect x="35.4331" y="113.4088" width="7.0866" height="7.0866"/>
  <rect x="56.6929" y="92.1455" width="7.0866" height="7.0866"/>
  <rect x="0" y=".0177" width="7.0866" height="7.0866"/>
  <rect x="0" y="7.1044" width="7.0866" height="7.0866"/>
  <rect x="0" y="14.191" width="7.0866" height="7.0866"/>
  <rect x="0" y="21.2776" width="7.0866" height="7.0866"/>
  <rect x="0" y="28.3642" width="7.0866" height="7.0866"/>
  <rect x="0" y="35.4508" width="7.0866" height="7.0866"/>
  <rect x="0" y="42.5374" width="7.0866" height="7.0866"/>
  <rect x="0" y="49.624" width="7.0866" height="7.0866"/>
  <rect x="0" y="56.7107" width="7.0866" height="7.0866"/>
  <rect x="0" y="63.7973" width="7.0866" height="7.0866"/>
  <rect x="0" y="70.8839" width="7.0866" height="7.0866"/>
  <rect x="0" y="77.9705" width="7.0866" height="7.0866"/>
  <rect x="0" y="85.0571" width="7.0866" height="7.0866"/>
  <rect x="0" y="92.1437" width="7.0866" height="7.0866"/>
  <rect x="0" y="99.2303" width="7.0866" height="7.0866"/>
  <rect x="0" y="106.317" width="7.0866" height="7.0866"/>
  <rect x="0" y="113.4036" width="7.0866" height="7.0866"/>
  <rect x="0" y="120.4902" width="7.0866" height="7.0866"/>
  <rect x="0" y="127.5768" width="7.0866" height="7.0866"/>
  <rect x="0" y="134.6634" width="7.0866" height="7.0866"/>
  <rect x="0" y="141.75" width="7.0866" height="7.0866"/>
  <rect x="134.6457" y=".0177" width="7.0866" height="7.0866"/>
  <rect x="134.6457" y="7.1044" width="7.0866" height="7.0866"/>
  <rect x="134.6457" y="14.191" width="7.0866" height="7.0866"/>
  <rect x="134.6457" y="21.2776" width="7.0866" height="7.0866"/>
  <rect x="134.6457" y="28.3642" width="7.0866" height="7.0866"/>
  <rect x="134.6457" y="35.4508" width="7.0866" height="7.0866"/>
  <rect x="134.6457" y="42.5374" width="7.0866" height="7.0866"/>
  <rect x="134.6457" y="49.624" width="7.0866" height="7.0866"/>
  <rect x="134.6457" y="56.7107" width="7.0866" height="7.0866"/>
  <rect x="134.6457" y="63.7973" width="7.0866" height="7.0866"/>
  <rect x="134.6457" y="70.8839" width="7.0866" height="7.0866"/>
  <rect x="134.6457" y="77.9705" width="7.0866" height="7.0866"/>
  <rect x="134.6457" y="85.0571" width="7.0866" height="7.0866"/>
  <rect x="134.6457" y="92.1437" width="7.0866" height="7.0866"/>
  <rect x="134.6457" y="99.2303" width="7.0866" height="7.0866"/>
  <rect x="134.6457" y="106.317" width="7.0866" height="7.0866"/>
  <rect x="134.6457" y="113.4036" width="7.0866" height="7.0866"/>
  <rect x="134.6457" y="120.4902" width="7.0866" height="7.0866"/>
  <rect x="134.6457" y="127.5768" width="7.0866" height="7.0866"/>
  <rect x="134.6457" y="134.6634" width="7.0866" height="7.0866"/>
  <rect x="134.6457" y="141.75" width="7.0866" height="7.0866"/>
</svg>