<?xml version="1.0" encoding="UTF-8"?>
<svg id="Blocks" xmlns="http://www.w3.org/2000/svg" viewBox="0 0 240.9378 148.8131">
  <rect width="7.0866" height="7.0866"/>
  <rect y="7.0866" width="7.0866" height="7.0866"/>
  <rect y="14.1732" width="7.0866" height="7.0866"/>
  <rect y="21.2598" width="7.0866" height="7.0866"/>
  <rect y="28.3465" width="7.0866" height="7.0866"/>
  <rect y="35.4331" width="7.0866" height="7.0866"/>
  <rect y="42.5197" width="7.0866" height="7.0866"/>
  <rect y="49.6063" width="7.0866" height="7.0866"/>
  <rect y="56.6929" width="7.0866" height="7.0866"/>
  <rect y="63.7795" width="7.0866" height="7.0866"/>
  <rect y="70.8661" width="7.0866" height="7.0866"/>
  <rect y="77.9528" width="7.0866" height="7.0866"/>
  <rect y="85.0394" width="7.0866" height="7.0866"/>
  <rect y="92.126" width="7.0866" height="7.0866"/>
  <rect y="99.2126" width="7.0866" height="7.0866"/>
  <rect y="106.2992" width="7.0866" height="7.0866"/>
  <rect y="113.3858" width="7.0866" height="7.0866"/>
  <rect y="120.4724" width="7.0866" height="7.0866"/>
  <rect y="127.5591" width="7.0866" height="7.0866"/>
  <rect y="134.6457" width="7.0866" height="7.0866"/>
  <rect y="141.7323" width="7.0866" height="7.0866"/>
  <rect x="7.0866" width="7.0866" height="7.0866"/>
  <rect x="7.0866" y="7.0866" width="7.0866" height="7.0866"/>
  <rect x="14.1732" width="7.0866" height="7.0866"/>
  <rect x="14.1732" y="7.0866" width="7.0866" height="7.0866"/>
  <rect x="28.3465" y="21.2598" width="7.0866" height="7.0866"/>
  <rect x="28.3465" y="28.3465" width="7.0866" height="7.0866"/>
  <rect x="35.4331" y="21.2598" width="7.0866" height="7.0866"/>
  <rect x="35.4331" y="28.3465" width="7.0866" height="7.0866"/>
  <rect x="28.3465" y="63.7795" width="7.0866" height="7.0866"/>
  <rect x="28.3465" y="70.8661" width="7.0866" height="7.0866"/>
  <rect x="35.4331" y="63.7795" width="7.0866" height="7.0866"/>
  <rect x="35.4331" y="70.8661" width="7.0866" height="7.0866"/>
  <rect x="7.0866" y="85.0394" width="7.0866" height="7.0866"/>
  <rect x="7.0866" y="92.126" width="7.0866" height="7.0866"/>
  <rect x="14.1732" y="85.0394" width="7.0866" height="7.0866"/>
  <rect x="14.1732" y="92.126" width="7.0866" height="7.0866"/>
  <rect x="28.3465" y="106.2992" width="7.0866" height="7.0866"/>
  <rect x="28.3465" y="113.3858" width="7.0866" height="7.0866"/>
  <rect x="35.4331" y="106.2992" width="7.0866" height="7.0866"/>
  <rect x="35.4331" y="113.3858" width="7.0866" height="7.0866"/>
  <rect x="7.0866" y="127.5591" width="7.0866" height="7.0866"/>
  <rect x="7.0866" y="134.6457" width="7.0866" height="7.0866"/>
  <rect x="14.1732" y="127.5591" width="7.0866" height="7.0866"/>
  <rect x="14.1732" y="134.6457" width="7.0866" height="7.0866"/>
  <rect x="7.0866" y="141.7323" width="7.0866" height="7.0866"/>
  <rect x="14.1732" y="141.7323" width="7.0866" height="7.0866"/>
  <rect x="7.0866" y="42.5197" width="7.0866" height="7.0866"/>
  <rect x="7.0866" y="49.6063" width="7.0866" height="7.0866"/>
  <rect x="14.1732" y="42.5197" width="7.0866" height="7.0866"/>
  <rect x="14.1732" y="49.6063" width="7.0866" height="7.0866"/>
  <rect x="21.2598" y="14.1732" width="7.0866" height="7.0866"/>
  <rect x="21.2598" y="35.4331" width="7.0866" height="7.0866"/>
  <rect x="21.2598" y="56.6929" width="7.0866" height="7.0866"/>
  <rect x="21.2598" y="77.9528" width="7.0866" height="7.0866"/>
  <rect x="21.2598" y="99.2126" width="7.0866" height="7.0866"/>
  <rect x="21.2598" y="120.4724" width="7.0866" height="7.0866"/>
  <rect x="42.5197" y="14.1732" width="7.0866" height="7.0866"/>
  <rect x="42.5197" y="35.4331" width="7.0866" height="7.0866"/>
  <rect x="42.5197" y="56.6929" width="7.0866" height="7.0866"/>
  <rect x="42.5197" y="77.9528" width="7.0866" height="7.0866"/>
  <rect x="42.5197" y="99.2126" width="7.0866" height="7.0866"/>
  <rect x="42.5197" y="120.4724" width="7.0866" height="7.0866"/>
  <rect x="49.6063" y="-.0029" width="7.0866" height="7.0866"/>
  <rect x="49.6063" y="7.0837" width="7.0866" height="7.0866"/>
  <rect x="56.6929" y="-.0029" width="7.0866" height="7.0866"/>
  <rect x="56.6929" y="7.0837" width="7.0866" height="7.0866"/>
  <rect x="70.8661" y="21.2569" width="7.0866" height="7.0866"/>
  <rect x="70.8661" y="28.3436" width="7.0866" height="7.0866"/>
  <rect x="77.9528" y="21.2569" width="7.0866" height="7.0866"/>
  <rect x="77.9528" y="28.3436" width="7.0866" height="7.0866"/>
  <rect x="70.8661" y="63.7766" width="7.0866" height="7.0866"/>
  <rect x="70.8661" y="70.8632" width="7.0866" height="7.0866"/>
  <rect x="77.9528" y="63.7766" width="7.0866" height="7.0866"/>
  <rect x="77.9528" y="70.8632" width="7.0866" height="7.0866"/>
  <rect x="49.6063" y="85.0365" width="7.0866" height="7.0866"/>
  <rect x="49.6063" y="92.1231" width="7.0866" height="7.0866"/>
  <rect x="56.6929" y="85.0365" width="7.0866" height="7.0866"/>
  <rect x="56.6929" y="92.1231" width="7.0866" height="7.0866"/>
  <rect x="70.8661" y="106.2963" width="7.0866" height="7.0866"/>
  <rect x="70.8661" y="113.3829" width="7.0866" height="7.0866"/>
  <rect x="77.9528" y="106.2963" width="7.0866" height="7.0866"/>
  <rect x="77.9528" y="113.3829" width="7.0866" height="7.0866"/>
  <rect x="49.6063" y="127.5562" width="7.0866" height="7.0866"/>
  <rect x="49.6063" y="134.6428" width="7.0866" height="7.0866"/>
  <rect x="56.6929" y="127.5562" width="7.0866" height="7.0866"/>
  <rect x="56.6929" y="134.6428" width="7.0866" height="7.0866"/>
  <rect x="49.6063" y="141.7294" width="7.0866" height="7.0866"/>
  <rect x="56.6929" y="141.7294" width="7.0866" height="7.0866"/>
  <rect x="49.6063" y="42.5168" width="7.0866" height="7.0866"/>
  <rect x="49.6063" y="49.6034" width="7.0866" height="7.0866"/>
  <rect x="56.6929" y="42.5168" width="7.0866" height="7.0866"/>
  <rect x="56.6929" y="49.6034" width="7.0866" height="7.0866"/>
  <rect x="85.0394" y="14.1732" width="7.0866" height="7.0866"/>
  <rect x="85.0394" y="35.4331" width="7.0866" height="7.0866"/>
  <rect x="85.0394" y="56.6929" width="7.0866" height="7.0866"/>
  <rect x="85.0394" y="77.9528" width="7.0866" height="7.0866"/>
  <rect x="85.0394" y="99.2126" width="7.0866" height="7.0866"/>
  <rect x="85.0394" y="120.4724" width="7.0866" height="7.0866"/>
  <rect x="92.126" y="-.0029" width="7.0866" height="7.0866"/>
  <rect x="92.126" y="7.0837" width="7.0866" height="7.0866"/>
  <rect x="99.2126" y="-.0029" width="7.0866" height="7.0866"/>
  <rect x="99.2126" y="7.0837" width="7.0866" height="7.0866"/>
  <rect x="92.126" y="85.0365" width="7.0866" height="7.0866"/>
  <rect x="92.126" y="92.1231" width="7.0866" height="7.0866"/>
  <rect x="99.2126" y="85.0365" width="7.0866" height="7.0866"/>
  <rect x="99.2126" y="92.1231" width="7.0866" height="7.0866"/>
  <rect x="92.126" y="127.5562" width="7.0866" height="7.0866"/>
  <rect x="92.126" y="134.6428" width="7.0866" height="7.0866"/>
  <rect x="99.2126" y="127.5562" width="7.0866" height="7.0866"/>
  <rect x="99.2126" y="134.6428" width="7.0866" height="7.0866"/>
  <rect x="92.126" y="141.7294" width="7.0866" height="7.0866"/>
  <rect x="99.2126" y="141.7294" width="7.0866" height="7.0866"/>
  <rect x="92.126" y="42.5168" width="7.0866" height="7.0866"/>
  <rect x="92.126" y="49.6034" width="7.0866" height="7.0866"/>
  <rect x="99.2126" y="42.5168" width="7.0866" height="7.0866"/>
  <rect x="99.2126" y="49.6034" width="7.0866" height="7.0866"/>
  <rect x="63.7795" y="14.1703" width="7.0866" height="7.0866"/>
  <rect x="63.7795" y="35.4302" width="7.0866" height="7.0866"/>
  <rect x="63.7795" y="56.69" width="7.0866" height="7.0866"/>
  <rect x="63.7795" y="77.9499" width="7.0866" height="7.0866"/>
  <rect x="63.7795" y="99.2097" width="7.0866" height="7.0866"/>
  <rect x="63.7795" y="120.4695" width="7.0866" height="7.0866"/>
  <rect x="113.3858" y="21.2598" width="7.0866" height="7.0866"/>
  <rect x="113.3858" y="28.3465" width="7.0866" height="7.0866"/>
  <rect x="120.4724" y="21.2598" width="7.0866" height="7.0866"/>
  <rect x="120.4724" y="28.3465" width="7.0866" height="7.0866"/>
  <rect x="113.3858" y="63.7795" width="7.0866" height="7.0866"/>
  <rect x="113.3858" y="70.8661" width="7.0866" height="7.0866"/>
  <rect x="120.4724" y="63.7795" width="7.0866" height="7.0866"/>
  <rect x="120.4724" y="70.8661" width="7.0866" height="7.0866"/>
  <rect x="113.3858" y="106.2992" width="7.0866" height="7.0866"/>
  <rect x="113.3858" y="113.3858" width="7.0866" height="7.0866"/>
  <rect x="120.4724" y="106.2992" width="7.0866" height="7.0866"/>
  <rect x="120.4724" y="113.3858" width="7.0866" height="7.0866"/>
  <rect x="106.2992" y="14.1732" width="7.0866" height="7.0866"/>
  <rect x="106.2992" y="35.4331" width="7.0866" height="7.0866"/>
  <rect x="106.2992" y="56.6929" width="7.0866" height="7.0866"/>
  <rect x="106.2992" y="77.9528" width="7.0866" height="7.0866"/>
  <rect x="106.2992" y="99.2126" width="7.0866" height="7.0866"/>
  <rect x="106.2992" y="120.4724" width="7.0866" height="7.0866"/>
  <rect x="155.8773" y="21.2598" width="7.0866" height="7.0866"/>
  <rect x="155.8773" y="28.3465" width="7.0866" height="7.0866"/>
  <rect x="162.9639" y="21.2598" width="7.0866" height="7.0866"/>
  <rect x="162.9639" y="28.3465" width="7.0866" height="7.0866"/>
  <rect x="155.8773" y="63.7795" width="7.0866" height="7.0866"/>
  <rect x="155.8773" y="70.8661" width="7.0866" height="7.0866"/>
  <rect x="162.9639" y="63.7795" width="7.0866" height="7.0866"/>
  <rect x="162.9639" y="70.8661" width="7.0866" height="7.0866"/>
  <rect x="155.8773" y="106.2992" width="7.0866" height="7.0866"/>
  <rect x="155.8773" y="113.3858" width="7.0866" height="7.0866"/>
  <rect x="162.9639" y="106.2992" width="7.0866" height="7.0866"/>
  <rect x="162.9639" y="113.3858" width="7.0866" height="7.0866"/>
  <rect x="148.7906" y="14.1732" width="7.0866" height="7.0866"/>
  <rect x="148.7906" y="35.4331" width="7.0866" height="7.0866"/>
  <rect x="148.7906" y="56.6929" width="7.0866" height="7.0866"/>
  <rect x="148.7906" y="77.9528" width="7.0866" height="7.0866"/>
  <rect x="148.7906" y="99.2126" width="7.0866" height="7.0866"/>
  <rect x="148.7906" y="120.4724" width="7.0866" height="7.0866"/>
  <rect x="198.4111" y="21.2569" width="7.0866" height="7.0866"/>
  <rect x="198.4111" y="28.3436" width="7.0866" height="7.0866"/>
  <rect x="205.4977" y="21.2569" width="7.0866" height="7.0866"/>
  <rect x="205.4977" y="28.3436" width="7.0866" height="7.0866"/>
  <rect x="198.4111" y="63.7766" width="7.0866" height="7.0866"/>
  <rect x="198.4111" y="70.8632" width="7.0866" height="7.0866"/>
  <rect x="205.4977" y="63.7766" width="7.0866" height="7.0866"/>
  <rect x="205.4977" y="70.8632" width="7.0866" height="7.0866"/>
  <rect x="198.4111" y="106.2963" width="7.0866" height="7.0866"/>
  <rect x="198.4111" y="113.3829" width="7.0866" height="7.0866"/>
  <rect x="205.4977" y="106.2963" width="7.0866" height="7.0866"/>
  <rect x="205.4977" y="113.3829" width="7.0866" height="7.0866"/>
  <rect x="191.3245" y="14.1703" width="7.0866" height="7.0866"/>
  <rect x="191.3245" y="35.4302" width="7.0866" height="7.0866"/>
  <rect x="191.3245" y="56.69" width="7.0866" height="7.0866"/>
  <rect x="191.3245" y="77.9499" width="7.0866" height="7.0866"/>
  <rect x="191.3245" y="99.2097" width="7.0866" height="7.0866"/>
  <rect x="191.3245" y="120.4695" width="7.0866" height="7.0866"/>
  <rect x="233.8512" width="7.0866" height="7.0866"/>
  <rect x="233.8512" y="7.0866" width="7.0866" height="7.0866"/>
  <rect x="233.8512" y="14.1732" width="7.0866" height="7.0866"/>
  <rect x="233.8512" y="21.2598" width="7.0866" height="7.0866"/>
  <rect x="233.8512" y="28.3465" width="7.0866" height="7.0866"/>
  <rect x="233.8512" y="35.4331" width="7.0866" height="7.0866"/>
  <rect x="233.8512" y="42.5197" width="7.0866" height="7.0866"/>
  <rect x="233.8512" y="49.6063" width="7.0866" height="7.0866"/>
  <rect x="233.8512" y="56.6929" width="7.0866" height="7.0866"/>
  <rect x="233.8512" y="63.7795" width="7.0866" height="7.0866"/>
  <rect x="233.8512" y="70.8661" width="7.0866" height="7.0866"/>
  <rect x="233.8512" y="77.9528" width="7.0866" height="7.0866"/>
  <rect x="233.8512" y="85.0394" width="7.0866" height="7.0866"/>
  <rect x="233.8512" y="92.126" width="7.0866" height="7.0866"/>
  <rect x="233.8512" y="99.2126" width="7.0866" height="7.0866"/>
  <rect x="233.8512" y="106.2992" width="7.0866" height="7.0866"/>
  <rect x="233.8512" y="113.3858" width="7.0866" height="7.0866"/>
  <rect x="233.8512" y="120.4724" width="7.0866" height="7.0866"/>
  <rect x="233.8512" y="127.5591" width="7.0866" height="7.0866"/>
  <rect x="233.8512" y="134.6457" width="7.0866" height="7.0866"/>
  <rect x="233.8512" y="141.7323" width="7.0866" height="7.0866"/>
  <rect x="127.5308" y="14.1732" width="7.0866" height="7.0866"/>
  <rect x="127.5308" y="35.4331" width="7.0866" height="7.0866"/>
  <rect x="127.5308" y="56.6929" width="7.0866" height="7.0866"/>
  <rect x="127.5308" y="77.9528" width="7.0866" height="7.0866"/>
  <rect x="127.5308" y="99.2126" width="7.0866" height="7.0866"/>
  <rect x="127.5308" y="120.4724" width="7.0866" height="7.0866"/>
  <rect x="134.6174" y="-.0029" width="7.0866" height="7.0866"/>
  <rect x="134.6174" y="7.0837" width="7.0866" height="7.0866"/>
  <rect x="141.704" y="-.0029" width="7.0866" height="7.0866"/>
  <rect x="141.704" y="7.0837" width="7.0866" height="7.0866"/>
  <rect x="134.6174" y="85.0365" width="7.0866" height="7.0866"/>
  <rect x="134.6174" y="92.1231" width="7.0866" height="7.0866"/>
  <rect x="141.704" y="85.0365" width="7.0866" height="7.0866"/>
  <rect x="141.704" y="92.1231" width="7.0866" height="7.0866"/>
  <rect x="134.6174" y="127.5562" width="7.0866" height="7.0866"/>
  <rect x="134.6174" y="134.6428" width="7.0866" height="7.0866"/>
  <rect x="141.704" y="127.5562" width="7.0866" height="7.0866"/>
  <rect x="141.704" y="134.6428" width="7.0866" height="7.0866"/>
  <rect x="134.6174" y="141.7294" width="7.0866" height="7.0866"/>
  <rect x="141.704" y="141.7294" width="7.0866" height="7.0866"/>
  <rect x="134.6174" y="42.5168" width="7.0866" height="7.0866"/>
  <rect x="134.6174" y="49.6034" width="7.0866" height="7.0866"/>
  <rect x="141.704" y="42.5168" width="7.0866" height="7.0866"/>
  <rect x="141.704" y="49.6034" width="7.0866" height="7.0866"/>
  <rect x="170.0505" y="14.2019" width="7.0866" height="7.0866"/>
  <rect x="170.0505" y="35.4617" width="7.0866" height="7.0866"/>
  <rect x="170.0505" y="56.7216" width="7.0866" height="7.0866"/>
  <rect x="170.0505" y="77.9814" width="7.0866" height="7.0866"/>
  <rect x="170.0505" y="99.2413" width="7.0866" height="7.0866"/>
  <rect x="170.0505" y="120.5011" width="7.0866" height="7.0866"/>
  <rect x="177.1371" y=".0258" width="7.0866" height="7.0866"/>
  <rect x="177.1371" y="7.1124" width="7.0866" height="7.0866"/>
  <rect x="184.2237" y=".0258" width="7.0866" height="7.0866"/>
  <rect x="184.2237" y="7.1124" width="7.0866" height="7.0866"/>
  <rect x="177.1371" y="85.0651" width="7.0866" height="7.0866"/>
  <rect x="177.1371" y="92.1517" width="7.0866" height="7.0866"/>
  <rect x="184.2237" y="85.0651" width="7.0866" height="7.0866"/>
  <rect x="184.2237" y="92.1517" width="7.0866" height="7.0866"/>
  <rect x="177.1371" y="127.5848" width="7.0866" height="7.0866"/>
  <rect x="177.1371" y="134.6714" width="7.0866" height="7.0866"/>
  <rect x="184.2237" y="127.5848" width="7.0866" height="7.0866"/>
  <rect x="184.2237" y="134.6714" width="7.0866" height="7.0866"/>
  <rect x="177.1371" y="141.758" width="7.0866" height="7.0866"/>
  <rect x="184.2237" y="141.758" width="7.0866" height="7.0866"/>
  <rect x="177.1371" y="42.5454" width="7.0866" height="7.0866"/>
  <rect x="177.1371" y="49.6321" width="7.0866" height="7.0866"/>
  <rect x="184.2237" y="42.5454" width="7.0866" height="7.0866"/>
  <rect x="184.2237" y="49.6321" width="7.0866" height="7.0866"/>
  <rect x="212.5843" y="14.1732" width="7.0866" height="7.0866"/>
  <rect x="212.5843" y="35.4331" width="7.0866" height="7.0866"/>
  <rect x="212.5843" y="56.6929" width="7.0866" height="7.0866"/>
  <rect x="212.5843" y="77.9528" width="7.0866" height="7.0866"/>
  <rect x="212.5843" y="99.2126" width="7.0866" height="7.0866"/>
  <rect x="212.5843" y="120.4724" width="7.0866" height="7.0866"/>
  <rect x="219.6709" y="-.0029" width="7.0866" height="7.0866"/>
  <rect x="219.6709" y="7.0837" width="7.0866" height="7.0866"/>
  <rect x="226.7575" y="-.0029" width="7.0866" height="7.0866"/>
  <rect x="226.7575" y="7.0837" width="7.0866" height="7.0866"/>
  <rect x="219.6709" y="85.0365" width="7.0866" height="7.0866"/>
  <rect x="219.6709" y="92.1231" width="7.0866" height="7.0866"/>
  <rect x="226.7575" y="85.0365" width="7.0866" height="7.0866"/>
  <rect x="226.7575" y="92.1231" width="7.0866" height="7.0866"/>
  <rect x="219.6709" y="127.5562" width="7.0866" height="7.0866"/>
  <rect x="219.6709" y="134.6428" width="7.0866" height="7.0866"/>
  <rect x="226.7575" y="127.5562" width="7.0866" height="7.0866"/>
  <rect x="226.7575" y="134.6428" width="7.0866" height="7.0866"/>
  <rect x="219.6709" y="141.7294" width="7.0866" height="7.0866"/>
  <rect x="226.7575" y="141.7294" width="7.0866" height="7.0866"/>
  <rect x="219.6709" y="42.5168" width="7.0866" height="7.0866"/>
  <rect x="219.6709" y="49.6034" width="7.0866" height="7.0866"/>
  <rect x="226.7575" y="42.5168" width="7.0866" height="7.0866"/>
  <rect x="226.7575" y="49.6034" width="7.0866" height="7.0866"/>
</svg>