<?xml version="1.0" encoding="UTF-8"?>
<svg id="Blocks" xmlns="http://www.w3.org/2000/svg" viewBox="0 0 276.378 148.8131">
  <rect width="7.0866" height="7.0866"/>
  <rect y="7.0866" width="7.0866" height="7.0866"/>
  <rect y="14.1732" width="7.0866" height="7.0866"/>
  <rect y="21.2598" width="7.0866" height="7.0866"/>
  <rect y="28.3465" width="7.0866" height="7.0866"/>
  <rect y="35.4331" width="7.0866" height="7.0866"/>
  <rect y="42.5197" width="7.0866" height="7.0866"/>
  <rect y="49.6063" width="7.0866" height="7.0866"/>
  <rect y="56.6929" width="7.0866" height="7.0866"/>
  <rect y="63.7795" width="7.0866" height="7.0866"/>
  <rect y="70.8661" width="7.0866" height="7.0866"/>
  <rect y="77.9528" width="7.0866" height="7.0866"/>
  <rect y="85.0394" width="7.0866" height="7.0866"/>
  <rect y="92.126" width="7.0866" height="7.0866"/>
  <rect y="99.2126" width="7.0866" height="7.0866"/>
  <rect y="106.2992" width="7.0866" height="7.0866"/>
  <rect y="113.3858" width="7.0866" height="7.0866"/>
  <rect y="120.4724" width="7.0866" height="7.0866"/>
  <rect y="127.5591" width="7.0866" height="7.0866"/>
  <rect y="134.6457" width="7.0866" height="7.0866"/>
  <rect y="141.7323" width="7.0866" height="7.0866"/>
  <rect x="7.0866" width="7.0866" height="7.0866"/>
  <rect x="7.0866" y="7.0866" width="7.0866" height="7.0866"/>
  <rect x="7.0866" y="14.1732" width="7.0866" height="7.0866"/>
  <rect x="7.0866" y="21.2598" width="7.0866" height="7.0866"/>
  <rect x="7.0866" y="28.3465" width="7.0866" height="7.0866"/>
  <rect x="7.0866" y="35.4331" width="7.0866" height="7.0866"/>
  <rect x="7.0866" y="42.5197" width="7.0866" height="7.0866"/>
  <rect x="7.0866" y="49.6063" width="7.0866" height="7.0866"/>
  <rect x="7.0866" y="56.6929" width="7.0866" height="7.0866"/>
  <rect x="7.0866" y="63.7795" width="7.0866" height="7.0866"/>
  <rect x="7.0866" y="70.8661" width="7.0866" height="7.0866"/>
  <rect x="7.0866" y="77.9528" width="7.0866" height="7.0866"/>
  <rect x="7.0866" y="85.0394" width="7.0866" height="7.0866"/>
  <rect x="7.0866" y="92.126" width="7.0866" height="7.0866"/>
  <rect x="7.0866" y="99.2126" width="7.0866" height="7.0866"/>
  <rect x="7.0866" y="106.2992" width="7.0866" height="7.0866"/>
  <rect x="7.0866" y="113.3858" width="7.0866" height="7.0866"/>
  <rect x="7.0866" y="120.4724" width="7.0866" height="7.0866"/>
  <rect x="7.0866" y="127.5591" width="7.0866" height="7.0866"/>
  <rect x="7.0866" y="134.6457" width="7.0866" height="7.0866"/>
  <rect x="7.0866" y="141.7323" width="7.0866" height="7.0866"/>
  <rect x="28.2752" width="7.0866" height="7.0866"/>
  <rect x="28.2752" y="7.0866" width="7.0866" height="7.0866"/>
  <rect x="28.2752" y="14.1732" width="7.0866" height="7.0866"/>
  <rect x="28.2752" y="21.2598" width="7.0866" height="7.0866"/>
  <rect x="28.2752" y="28.3465" width="7.0866" height="7.0866"/>
  <rect x="28.2752" y="35.4331" width="7.0866" height="7.0866"/>
  <rect x="28.2752" y="42.5197" width="7.0866" height="7.0866"/>
  <rect x="28.2752" y="49.6063" width="7.0866" height="7.0866"/>
  <rect x="28.2752" y="56.6929" width="7.0866" height="7.0866"/>
  <rect x="28.2752" y="63.7795" width="7.0866" height="7.0866"/>
  <rect x="28.2752" y="70.8661" width="7.0866" height="7.0866"/>
  <rect x="28.2752" y="77.9528" width="7.0866" height="7.0866"/>
  <rect x="28.2752" y="85.0394" width="7.0866" height="7.0866"/>
  <rect x="28.2752" y="92.126" width="7.0866" height="7.0866"/>
  <rect x="28.2752" y="99.2126" width="7.0866" height="7.0866"/>
  <rect x="28.2752" y="106.2992" width="7.0866" height="7.0866"/>
  <rect x="28.2752" y="113.3858" width="7.0866" height="7.0866"/>
  <rect x="28.2752" y="120.4724" width="7.0866" height="7.0866"/>
  <rect x="28.2752" y="127.5591" width="7.0866" height="7.0866"/>
  <rect x="28.2752" y="134.6457" width="7.0866" height="7.0866"/>
  <rect x="28.2752" y="141.7323" width="7.0866" height="7.0866"/>
  <rect x="35.3618" width="7.0866" height="7.0866"/>
  <rect x="35.3618" y="7.0866" width="7.0866" height="7.0866"/>
  <rect x="35.3618" y="14.1732" width="7.0866" height="7.0866"/>
  <rect x="35.3618" y="21.2598" width="7.0866" height="7.0866"/>
  <rect x="35.3618" y="28.3465" width="7.0866" height="7.0866"/>
  <rect x="35.3618" y="35.4331" width="7.0866" height="7.0866"/>
  <rect x="35.3618" y="42.5197" width="7.0866" height="7.0866"/>
  <rect x="35.3618" y="49.6063" width="7.0866" height="7.0866"/>
  <rect x="35.3618" y="56.6929" width="7.0866" height="7.0866"/>
  <rect x="35.3618" y="63.7795" width="7.0866" height="7.0866"/>
  <rect x="35.3618" y="70.8661" width="7.0866" height="7.0866"/>
  <rect x="35.3618" y="77.9528" width="7.0866" height="7.0866"/>
  <rect x="35.3618" y="85.0394" width="7.0866" height="7.0866"/>
  <rect x="35.3618" y="92.126" width="7.0866" height="7.0866"/>
  <rect x="35.3618" y="99.2126" width="7.0866" height="7.0866"/>
  <rect x="35.3618" y="106.2992" width="7.0866" height="7.0866"/>
  <rect x="35.3618" y="113.3858" width="7.0866" height="7.0866"/>
  <rect x="35.3618" y="120.4724" width="7.0866" height="7.0866"/>
  <rect x="35.3618" y="127.5591" width="7.0866" height="7.0866"/>
  <rect x="35.3618" y="134.6457" width="7.0866" height="7.0866"/>
  <rect x="35.3618" y="141.7323" width="7.0866" height="7.0866"/>
  <rect x="42.4485" width="7.0866" height="7.0866"/>
  <rect x="42.4485" y="7.0866" width="7.0866" height="7.0866"/>
  <rect x="42.4485" y="14.1732" width="7.0866" height="7.0866"/>
  <rect x="42.4485" y="21.2598" width="7.0866" height="7.0866"/>
  <rect x="42.4485" y="28.3465" width="7.0866" height="7.0866"/>
  <rect x="42.4485" y="35.4331" width="7.0866" height="7.0866"/>
  <rect x="42.4485" y="42.5197" width="7.0866" height="7.0866"/>
  <rect x="42.4485" y="49.6063" width="7.0866" height="7.0866"/>
  <rect x="42.4485" y="56.6929" width="7.0866" height="7.0866"/>
  <rect x="42.4485" y="63.7795" width="7.0866" height="7.0866"/>
  <rect x="42.4485" y="70.8661" width="7.0866" height="7.0866"/>
  <rect x="42.4485" y="77.9528" width="7.0866" height="7.0866"/>
  <rect x="42.4485" y="85.0394" width="7.0866" height="7.0866"/>
  <rect x="42.4485" y="92.126" width="7.0866" height="7.0866"/>
  <rect x="42.4485" y="99.2126" width="7.0866" height="7.0866"/>
  <rect x="42.4485" y="106.2992" width="7.0866" height="7.0866"/>
  <rect x="42.4485" y="113.3858" width="7.0866" height="7.0866"/>
  <rect x="42.4485" y="120.4724" width="7.0866" height="7.0866"/>
  <rect x="42.4485" y="127.5591" width="7.0866" height="7.0866"/>
  <rect x="42.4485" y="134.6457" width="7.0866" height="7.0866"/>
  <rect x="42.4485" y="141.7323" width="7.0866" height="7.0866"/>
  <rect x="49.5351" width="7.0866" height="7.0866"/>
  <rect x="49.5351" y="7.0866" width="7.0866" height="7.0866"/>
  <rect x="49.5351" y="14.1732" width="7.0866" height="7.0866"/>
  <rect x="49.5351" y="21.2598" width="7.0866" height="7.0866"/>
  <rect x="49.5351" y="28.3465" width="7.0866" height="7.0866"/>
  <rect x="49.5351" y="35.4331" width="7.0866" height="7.0866"/>
  <rect x="49.5351" y="42.5197" width="7.0866" height="7.0866"/>
  <rect x="49.5351" y="49.6063" width="7.0866" height="7.0866"/>
  <rect x="49.5351" y="56.6929" width="7.0866" height="7.0866"/>
  <rect x="49.5351" y="63.7795" width="7.0866" height="7.0866"/>
  <rect x="49.5351" y="70.8661" width="7.0866" height="7.0866"/>
  <rect x="49.5351" y="77.9528" width="7.0866" height="7.0866"/>
  <rect x="49.5351" y="85.0394" width="7.0866" height="7.0866"/>
  <rect x="49.5351" y="92.126" width="7.0866" height="7.0866"/>
  <rect x="49.5351" y="99.2126" width="7.0866" height="7.0866"/>
  <rect x="49.5351" y="106.2992" width="7.0866" height="7.0866"/>
  <rect x="49.5351" y="113.3858" width="7.0866" height="7.0866"/>
  <rect x="49.5351" y="120.4724" width="7.0866" height="7.0866"/>
  <rect x="49.5351" y="127.5591" width="7.0866" height="7.0866"/>
  <rect x="49.5351" y="134.6457" width="7.0866" height="7.0866"/>
  <rect x="49.5351" y="141.7323" width="7.0866" height="7.0866"/>
  <rect x="70.8774" width="7.0866" height="7.0866"/>
  <rect x="70.8774" y="7.0866" width="7.0866" height="7.0866"/>
  <rect x="70.8774" y="14.1732" width="7.0866" height="7.0866"/>
  <rect x="70.8774" y="21.2598" width="7.0866" height="7.0866"/>
  <rect x="70.8774" y="28.3465" width="7.0866" height="7.0866"/>
  <rect x="70.8774" y="35.4331" width="7.0866" height="7.0866"/>
  <rect x="70.8774" y="42.5197" width="7.0866" height="7.0866"/>
  <rect x="70.8774" y="49.6063" width="7.0866" height="7.0866"/>
  <rect x="70.8774" y="56.6929" width="7.0866" height="7.0866"/>
  <rect x="70.8774" y="63.7795" width="7.0866" height="7.0866"/>
  <rect x="70.8774" y="70.8661" width="7.0866" height="7.0866"/>
  <rect x="70.8774" y="77.9528" width="7.0866" height="7.0866"/>
  <rect x="70.8774" y="85.0394" width="7.0866" height="7.0866"/>
  <rect x="70.8774" y="92.126" width="7.0866" height="7.0866"/>
  <rect x="70.8774" y="99.2126" width="7.0866" height="7.0866"/>
  <rect x="70.8774" y="106.2992" width="7.0866" height="7.0866"/>
  <rect x="70.8774" y="113.3858" width="7.0866" height="7.0866"/>
  <rect x="70.8774" y="120.4724" width="7.0866" height="7.0866"/>
  <rect x="70.8774" y="127.5591" width="7.0866" height="7.0866"/>
  <rect x="70.8774" y="134.6457" width="7.0866" height="7.0866"/>
  <rect x="70.8774" y="141.7323" width="7.0866" height="7.0866"/>
  <rect x="77.964" width="7.0866" height="7.0866"/>
  <rect x="106.2628" y=".0014" width="7.0866" height="7.0866"/>
  <rect x="99.1762" y="7.0881" width="7.0866" height="7.0866"/>
  <rect x="99.1762" y="14.1747" width="7.0866" height="7.0866"/>
  <rect x="99.1762" y="21.2613" width="7.0866" height="7.0866"/>
  <rect x="92.0896" y="14.1747" width="7.0866" height="7.0866"/>
  <rect x="92.0896" y="21.2613" width="7.0866" height="7.0866"/>
  <rect x="92.0896" y="28.3479" width="7.0866" height="7.0866"/>
  <rect x="92.0896" y="42.5211" width="7.0866" height="7.0866"/>
  <rect x="92.0896" y="49.6077" width="7.0866" height="7.0866"/>
  <rect x="92.0896" y="56.6944" width="7.0866" height="7.0866"/>
  <rect x="99.1762" y="49.6077" width="7.0866" height="7.0866"/>
  <rect x="99.1762" y="56.6944" width="7.0866" height="7.0866"/>
  <rect x="99.1762" y="63.781" width="7.0866" height="7.0866"/>
  <rect x="106.2628" y="70.8647" width="7.0866" height="7.0866"/>
  <rect x="85.003" y="35.4345" width="7.0866" height="7.0866"/>
  <rect x="99.1762" y="77.9542" width="7.0866" height="7.0866"/>
  <rect x="99.1762" y="85.0408" width="7.0866" height="7.0866"/>
  <rect x="99.1762" y="92.1274" width="7.0866" height="7.0866"/>
  <rect x="92.0896" y="85.0408" width="7.0866" height="7.0866"/>
  <rect x="92.0896" y="92.1274" width="7.0866" height="7.0866"/>
  <rect x="92.0896" y="99.214" width="7.0866" height="7.0866"/>
  <rect x="92.0896" y="113.3873" width="7.0866" height="7.0866"/>
  <rect x="92.0896" y="120.4739" width="7.0866" height="7.0866"/>
  <rect x="92.0896" y="127.5605" width="7.0866" height="7.0866"/>
  <rect x="99.1762" y="120.4739" width="7.0866" height="7.0866"/>
  <rect x="99.1762" y="127.5605" width="7.0866" height="7.0866"/>
  <rect x="99.1762" y="134.6471" width="7.0866" height="7.0866"/>
  <rect x="106.2628" y="141.7308" width="7.0866" height="7.0866"/>
  <rect x="85.003" y="106.3007" width="7.0866" height="7.0866"/>
  <rect x="134.5616" y=".0014" width="7.0866" height="7.0866"/>
  <rect x="127.475" y="7.0881" width="7.0866" height="7.0866"/>
  <rect x="127.475" y="14.1747" width="7.0866" height="7.0866"/>
  <rect x="127.475" y="21.2613" width="7.0866" height="7.0866"/>
  <rect x="120.3884" y="14.1747" width="7.0866" height="7.0866"/>
  <rect x="120.3884" y="21.2613" width="7.0866" height="7.0866"/>
  <rect x="120.3884" y="28.3479" width="7.0866" height="7.0866"/>
  <rect x="120.3884" y="42.5211" width="7.0866" height="7.0866"/>
  <rect x="120.3884" y="49.6077" width="7.0866" height="7.0866"/>
  <rect x="120.3884" y="56.6944" width="7.0866" height="7.0866"/>
  <rect x="127.475" y="49.6077" width="7.0866" height="7.0866"/>
  <rect x="127.475" y="56.6944" width="7.0866" height="7.0866"/>
  <rect x="127.475" y="63.781" width="7.0866" height="7.0866"/>
  <rect x="134.5616" y="70.8647" width="7.0866" height="7.0866"/>
  <rect x="113.3018" y="35.4345" width="7.0866" height="7.0866"/>
  <rect x="127.475" y="77.9542" width="7.0866" height="7.0866"/>
  <rect x="127.475" y="85.0408" width="7.0866" height="7.0866"/>
  <rect x="127.475" y="92.1274" width="7.0866" height="7.0866"/>
  <rect x="120.3884" y="85.0408" width="7.0866" height="7.0866"/>
  <rect x="120.3884" y="92.1274" width="7.0866" height="7.0866"/>
  <rect x="120.3884" y="99.214" width="7.0866" height="7.0866"/>
  <rect x="120.3884" y="113.3873" width="7.0866" height="7.0866"/>
  <rect x="120.3884" y="120.4739" width="7.0866" height="7.0866"/>
  <rect x="120.3884" y="127.5605" width="7.0866" height="7.0866"/>
  <rect x="127.475" y="120.4739" width="7.0866" height="7.0866"/>
  <rect x="127.475" y="127.5605" width="7.0866" height="7.0866"/>
  <rect x="127.475" y="134.6471" width="7.0866" height="7.0866"/>
  <rect x="134.5616" y="141.7308" width="7.0866" height="7.0866"/>
  <rect x="113.3018" y="106.3007" width="7.0866" height="7.0866"/>
  <rect x="191.3386" width="7.0866" height="7.0866"/>
  <rect x="184.252" y="7.0866" width="7.0866" height="7.0866"/>
  <rect x="184.252" y="14.1732" width="7.0866" height="7.0866"/>
  <rect x="184.252" y="21.2598" width="7.0866" height="7.0866"/>
  <rect x="177.1654" y="14.1732" width="7.0866" height="7.0866"/>
  <rect x="177.1654" y="21.2598" width="7.0866" height="7.0866"/>
  <rect x="177.1654" y="28.3465" width="7.0866" height="7.0866"/>
  <rect x="177.1654" y="42.5197" width="7.0866" height="7.0866"/>
  <rect x="177.1654" y="49.6063" width="7.0866" height="7.0866"/>
  <rect x="177.1654" y="56.6929" width="7.0866" height="7.0866"/>
  <rect x="184.252" y="49.6063" width="7.0866" height="7.0866"/>
  <rect x="184.252" y="56.6929" width="7.0866" height="7.0866"/>
  <rect x="184.252" y="63.7795" width="7.0866" height="7.0866"/>
  <rect x="191.3386" y="70.8632" width="7.0866" height="7.0866"/>
  <rect x="170.0787" y="35.4331" width="7.0866" height="7.0866"/>
  <rect x="184.252" y="77.9528" width="7.0866" height="7.0866"/>
  <rect x="184.252" y="85.0394" width="7.0866" height="7.0866"/>
  <rect x="184.252" y="92.126" width="7.0866" height="7.0866"/>
  <rect x="177.1654" y="85.0394" width="7.0866" height="7.0866"/>
  <rect x="177.1654" y="92.126" width="7.0866" height="7.0866"/>
  <rect x="177.1654" y="99.2126" width="7.0866" height="7.0866"/>
  <rect x="177.1654" y="113.3858" width="7.0866" height="7.0866"/>
  <rect x="177.1654" y="120.4724" width="7.0866" height="7.0866"/>
  <rect x="177.1654" y="127.5591" width="7.0866" height="7.0866"/>
  <rect x="184.252" y="120.4724" width="7.0866" height="7.0866"/>
  <rect x="184.252" y="127.5591" width="7.0866" height="7.0866"/>
  <rect x="184.252" y="134.6457" width="7.0866" height="7.0866"/>
  <rect x="191.3386" y="141.7294" width="7.0866" height="7.0866"/>
  <rect x="170.0787" y="106.2992" width="7.0866" height="7.0866"/>
  <rect x="219.664" width="7.0866" height="7.0866"/>
  <rect x="212.5774" y="7.0866" width="7.0866" height="7.0866"/>
  <rect x="212.5774" y="14.1732" width="7.0866" height="7.0866"/>
  <rect x="212.5774" y="21.2598" width="7.0866" height="7.0866"/>
  <rect x="205.4908" y="14.1732" width="7.0866" height="7.0866"/>
  <rect x="205.4908" y="21.2598" width="7.0866" height="7.0866"/>
  <rect x="205.4908" y="28.3465" width="7.0866" height="7.0866"/>
  <rect x="205.4908" y="42.5197" width="7.0866" height="7.0866"/>
  <rect x="205.4908" y="49.6063" width="7.0866" height="7.0866"/>
  <rect x="205.4908" y="56.6929" width="7.0866" height="7.0866"/>
  <rect x="212.5774" y="49.6063" width="7.0866" height="7.0866"/>
  <rect x="212.5774" y="56.6929" width="7.0866" height="7.0866"/>
  <rect x="212.5774" y="63.7795" width="7.0866" height="7.0866"/>
  <rect x="219.664" y="70.8632" width="7.0866" height="7.0866"/>
  <rect x="198.4042" y="35.4331" width="7.0866" height="7.0866"/>
  <rect x="212.5774" y="77.9528" width="7.0866" height="7.0866"/>
  <rect x="212.5774" y="85.0394" width="7.0866" height="7.0866"/>
  <rect x="212.5774" y="92.126" width="7.0866" height="7.0866"/>
  <rect x="205.4908" y="85.0394" width="7.0866" height="7.0866"/>
  <rect x="205.4908" y="92.126" width="7.0866" height="7.0866"/>
  <rect x="205.4908" y="99.2126" width="7.0866" height="7.0866"/>
  <rect x="205.4908" y="113.3858" width="7.0866" height="7.0866"/>
  <rect x="205.4908" y="120.4724" width="7.0866" height="7.0866"/>
  <rect x="205.4908" y="127.5591" width="7.0866" height="7.0866"/>
  <rect x="212.5774" y="120.4724" width="7.0866" height="7.0866"/>
  <rect x="212.5774" y="127.5591" width="7.0866" height="7.0866"/>
  <rect x="212.5774" y="134.6457" width="7.0866" height="7.0866"/>
  <rect x="219.664" y="141.7294" width="7.0866" height="7.0866"/>
  <rect x="198.4042" y="106.2992" width="7.0866" height="7.0866"/>
  <rect x="248.021" width="7.0866" height="7.0866"/>
  <rect x="240.9344" y="7.0866" width="7.0866" height="7.0866"/>
  <rect x="240.9344" y="14.1732" width="7.0866" height="7.0866"/>
  <rect x="240.9344" y="21.2598" width="7.0866" height="7.0866"/>
  <rect x="233.8478" y="14.1732" width="7.0866" height="7.0866"/>
  <rect x="233.8478" y="21.2598" width="7.0866" height="7.0866"/>
  <rect x="233.8478" y="28.3465" width="7.0866" height="7.0866"/>
  <rect x="233.8478" y="42.5197" width="7.0866" height="7.0866"/>
  <rect x="233.8478" y="49.6063" width="7.0866" height="7.0866"/>
  <rect x="233.8478" y="56.6929" width="7.0866" height="7.0866"/>
  <rect x="240.9344" y="49.6063" width="7.0866" height="7.0866"/>
  <rect x="240.9344" y="56.6929" width="7.0866" height="7.0866"/>
  <rect x="240.9344" y="63.7795" width="7.0866" height="7.0866"/>
  <rect x="248.021" y="70.8632" width="7.0866" height="7.0866"/>
  <rect x="226.7612" y="35.4331" width="7.0866" height="7.0866"/>
  <rect x="240.9344" y="77.9528" width="7.0866" height="7.0866"/>
  <rect x="240.9344" y="85.0394" width="7.0866" height="7.0866"/>
  <rect x="240.9344" y="92.126" width="7.0866" height="7.0866"/>
  <rect x="233.8478" y="85.0394" width="7.0866" height="7.0866"/>
  <rect x="233.8478" y="92.126" width="7.0866" height="7.0866"/>
  <rect x="233.8478" y="99.2126" width="7.0866" height="7.0866"/>
  <rect x="233.8478" y="113.3858" width="7.0866" height="7.0866"/>
  <rect x="233.8478" y="120.4724" width="7.0866" height="7.0866"/>
  <rect x="233.8478" y="127.5591" width="7.0866" height="7.0866"/>
  <rect x="240.9344" y="120.4724" width="7.0866" height="7.0866"/>
  <rect x="240.9344" y="127.5591" width="7.0866" height="7.0866"/>
  <rect x="240.9344" y="134.6457" width="7.0866" height="7.0866"/>
  <rect x="248.021" y="141.7294" width="7.0866" height="7.0866"/>
  <rect x="226.7612" y="106.2992" width="7.0866" height="7.0866"/>
  <rect x="162.9501" y="-.0014" width="7.0866" height="7.0866"/>
  <rect x="155.8635" y="7.0852" width="7.0866" height="7.0866"/>
  <rect x="155.8635" y="14.1718" width="7.0866" height="7.0866"/>
  <rect x="155.8635" y="21.2584" width="7.0866" height="7.0866"/>
  <rect x="148.7769" y="14.1718" width="7.0866" height="7.0866"/>
  <rect x="148.7769" y="21.2584" width="7.0866" height="7.0866"/>
  <rect x="148.7769" y="28.345" width="7.0866" height="7.0866"/>
  <rect x="148.7769" y="42.5182" width="7.0866" height="7.0866"/>
  <rect x="148.7769" y="49.6049" width="7.0866" height="7.0866"/>
  <rect x="148.7769" y="56.6915" width="7.0866" height="7.0866"/>
  <rect x="155.8635" y="49.6049" width="7.0866" height="7.0866"/>
  <rect x="155.8635" y="56.6915" width="7.0866" height="7.0866"/>
  <rect x="155.8635" y="63.7781" width="7.0866" height="7.0866"/>
  <rect x="162.9501" y="70.8618" width="7.0866" height="7.0866"/>
  <rect x="141.6903" y="35.4316" width="7.0866" height="7.0866"/>
  <rect x="155.8635" y="77.9513" width="7.0866" height="7.0866"/>
  <rect x="155.8635" y="85.0379" width="7.0866" height="7.0866"/>
  <rect x="155.8635" y="92.1245" width="7.0866" height="7.0866"/>
  <rect x="148.7769" y="85.0379" width="7.0866" height="7.0866"/>
  <rect x="148.7769" y="92.1245" width="7.0866" height="7.0866"/>
  <rect x="148.7769" y="99.2112" width="7.0866" height="7.0866"/>
  <rect x="148.7769" y="113.3844" width="7.0866" height="7.0866"/>
  <rect x="148.7769" y="120.471" width="7.0866" height="7.0866"/>
  <rect x="148.7769" y="127.5576" width="7.0866" height="7.0866"/>
  <rect x="155.8635" y="120.471" width="7.0866" height="7.0866"/>
  <rect x="155.8635" y="127.5576" width="7.0866" height="7.0866"/>
  <rect x="155.8635" y="134.6442" width="7.0866" height="7.0866"/>
  <rect x="162.9501" y="141.7279" width="7.0866" height="7.0866"/>
  <rect x="141.6903" y="106.2978" width="7.0866" height="7.0866"/>
  <rect x="77.964" y="7.0866" width="7.0866" height="7.0866"/>
  <rect x="77.964" y="14.1732" width="7.0866" height="7.0866"/>
  <rect x="77.964" y="21.2598" width="7.0866" height="7.0866"/>
  <rect x="77.964" y="28.3465" width="7.0866" height="7.0866"/>
  <rect x="77.964" y="35.4331" width="7.0866" height="7.0866"/>
  <rect x="77.964" y="42.5197" width="7.0866" height="7.0866"/>
  <rect x="77.964" y="49.6063" width="7.0866" height="7.0866"/>
  <rect x="77.964" y="56.6929" width="7.0866" height="7.0866"/>
  <rect x="77.964" y="63.7795" width="7.0866" height="7.0866"/>
  <rect x="77.964" y="70.8661" width="7.0866" height="7.0866"/>
  <rect x="77.964" y="77.9528" width="7.0866" height="7.0866"/>
  <rect x="77.964" y="85.0394" width="7.0866" height="7.0866"/>
  <rect x="77.964" y="92.126" width="7.0866" height="7.0866"/>
  <rect x="77.964" y="99.2126" width="7.0866" height="7.0866"/>
  <rect x="77.964" y="106.2992" width="7.0866" height="7.0866"/>
  <rect x="77.964" y="113.3858" width="7.0866" height="7.0866"/>
  <rect x="77.964" y="120.4724" width="7.0866" height="7.0866"/>
  <rect x="77.964" y="127.5591" width="7.0866" height="7.0866"/>
  <rect x="77.964" y="134.6457" width="7.0866" height="7.0866"/>
  <rect x="77.964" y="141.7323" width="7.0866" height="7.0866"/>
  <rect x="255.1181" y="-.0029" width="7.0866" height="7.0866"/>
  <rect x="255.1181" y="7.0837" width="7.0866" height="7.0866"/>
  <rect x="255.1181" y="14.1703" width="7.0866" height="7.0866"/>
  <rect x="255.1181" y="21.2569" width="7.0866" height="7.0866"/>
  <rect x="255.1181" y="28.3436" width="7.0866" height="7.0866"/>
  <rect x="255.1181" y="35.4302" width="7.0866" height="7.0866"/>
  <rect x="255.1181" y="42.5168" width="7.0866" height="7.0866"/>
  <rect x="255.1181" y="49.6034" width="7.0866" height="7.0866"/>
  <rect x="255.1181" y="56.69" width="7.0866" height="7.0866"/>
  <rect x="255.1181" y="63.7766" width="7.0866" height="7.0866"/>
  <rect x="255.1181" y="70.8632" width="7.0866" height="7.0866"/>
  <rect x="255.1181" y="77.9499" width="7.0866" height="7.0866"/>
  <rect x="255.1181" y="85.0365" width="7.0866" height="7.0866"/>
  <rect x="255.1181" y="92.1231" width="7.0866" height="7.0866"/>
  <rect x="255.1181" y="99.2097" width="7.0866" height="7.0866"/>
  <rect x="255.1181" y="106.2963" width="7.0866" height="7.0866"/>
  <rect x="255.1181" y="113.3829" width="7.0866" height="7.0866"/>
  <rect x="255.1181" y="120.4695" width="7.0866" height="7.0866"/>
  <rect x="255.1181" y="127.5562" width="7.0866" height="7.0866"/>
  <rect x="255.1181" y="134.6428" width="7.0866" height="7.0866"/>
  <rect x="255.1181" y="141.7294" width="7.0866" height="7.0866"/>
  <rect x="269.2913" y="-.0029" width="7.0866" height="7.0866"/>
  <rect x="269.2913" y="7.0837" width="7.0866" height="7.0866"/>
  <rect x="269.2913" y="14.1703" width="7.0866" height="7.0866"/>
  <rect x="269.2913" y="21.2569" width="7.0866" height="7.0866"/>
  <rect x="269.2913" y="28.3436" width="7.0866" height="7.0866"/>
  <rect x="269.2913" y="35.4302" width="7.0866" height="7.0866"/>
  <rect x="269.2913" y="42.5168" width="7.0866" height="7.0866"/>
  <rect x="269.2913" y="49.6034" width="7.0866" height="7.0866"/>
  <rect x="269.2913" y="56.69" width="7.0866" height="7.0866"/>
  <rect x="269.2913" y="63.7766" width="7.0866" height="7.0866"/>
  <rect x="269.2913" y="70.8632" width="7.0866" height="7.0866"/>
  <rect x="269.2913" y="77.9499" width="7.0866" height="7.0866"/>
  <rect x="269.2913" y="85.0365" width="7.0866" height="7.0866"/>
  <rect x="269.2913" y="92.1231" width="7.0866" height="7.0866"/>
  <rect x="269.2913" y="99.2097" width="7.0866" height="7.0866"/>
  <rect x="269.2913" y="106.2963" width="7.0866" height="7.0866"/>
  <rect x="269.2913" y="113.3829" width="7.0866" height="7.0866"/>
  <rect x="269.2913" y="120.4695" width="7.0866" height="7.0866"/>
  <rect x="269.2913" y="127.5562" width="7.0866" height="7.0866"/>
  <rect x="269.2913" y="134.6428" width="7.0866" height="7.0866"/>
  <rect x="269.2913" y="141.7294" width="7.0866" height="7.0866"/>
</svg>