<?xml version="1.0" encoding="UTF-8"?>
<svg id="Blocks" xmlns="http://www.w3.org/2000/svg" viewBox="0 0 162.8014 148.8415">
  <rect x=".0888" y=".0069" width="7.0866" height="7.0866"/>
  <rect x="84.9484" y="63.8104" width="7.0866" height="7.0866"/>
  <rect x="84.9484" y="56.7238" width="7.0866" height="7.0866"/>
  <rect x="77.8618" y="49.6372" width="7.0866" height="7.0866"/>
  <rect x="84.9484" y="42.5506" width="7.0866" height="7.0866"/>
  <rect x="106.2082" y="78.015" width="7.0866" height="7.0866"/>
  <rect x="77.8618" y="35.464" width="7.0866" height="7.0866"/>
  <rect x="92.035" y="35.464" width="7.0866" height="7.0866"/>
  <rect x="92.035" y="56.7238" width="7.0866" height="7.0866"/>
  <rect x="99.1216" y="49.6372" width="7.0866" height="7.0866"/>
  <rect x="99.1216" y="92.2197" width="7.0866" height="7.0866"/>
  <rect x="106.2082" y="42.5506" width="7.0866" height="7.0866"/>
  <rect x="92.035" y="63.8104" width="7.0866" height="7.0866"/>
  <rect x="99.1216" y="70.897" width="7.0866" height="7.0866"/>
  <rect x="106.2082" y="63.8104" width="7.0866" height="7.0866"/>
  <rect x="84.9484" y="85.1017" width="7.0866" height="7.0866"/>
  <rect x="84.9484" y="78.015" width="7.0866" height="7.0866"/>
  <rect x="92.035" y="78.015" width="7.0866" height="7.0866"/>
  <rect x="92.035" y="85.1017" width="7.0866" height="7.0866"/>
  <rect x="113.2949" y="42.5506" width="7.0866" height="7.0866"/>
  <rect x="120.3815" y="42.5506" width="7.0866" height="7.0866"/>
  <rect x="127.4486" y="42.5663" width="7.0866" height="7.0866"/>
  <rect x="106.2082" y="28.3774" width="7.0866" height="7.0866"/>
  <rect x="106.2082" y="21.2668" width="7.0866" height="7.0866"/>
  <rect x="113.2851" y="28.3774" width="7.0866" height="7.0866"/>
  <rect x="113.2851" y="21.2907" width="7.0866" height="7.0866"/>
  <rect x="113.2851" y="14.2041" width="7.0866" height="7.0866"/>
  <rect x="120.3815" y="21.2907" width="7.0866" height="7.0866"/>
  <rect x="120.3815" y="14.2041" width="7.0866" height="7.0866"/>
  <rect x="120.3815" y="7.1175" width="7.0866" height="7.0866"/>
  <rect x="120.3815" y="35.464" width="7.0866" height="7.0866"/>
  <rect x="127.4681" y="35.464" width="7.0866" height="7.0866"/>
  <rect x="134.5547" y="35.44" width="7.0866" height="7.0866"/>
  <rect x="127.4681" y="28.3774" width="7.0866" height="7.0866"/>
  <rect x="127.4486" y="28.346" width="7.0866" height="7.0866"/>
  <rect x="134.5547" y="28.346" width="7.0866" height="7.0866"/>
  <rect x="141.6462" y="28.393" width="7.0866" height="7.0866"/>
  <rect x="106.2082" y="35.464" width="7.0866" height="7.0866"/>
  <rect x="106.218" y="99.2906" width="7.0866" height="7.0866"/>
  <rect x="113.3046" y="99.2906" width="7.0866" height="7.0866"/>
  <rect x="120.3912" y="99.2906" width="7.0866" height="7.0866"/>
  <rect x="127.4486" y="99.2906" width="7.0866" height="7.0866"/>
  <rect x="106.218" y="113.4638" width="7.0866" height="7.0866"/>
  <rect x="106.2406" y="120.519" width="7.0866" height="7.0866"/>
  <rect x="113.2949" y="113.4638" width="7.0866" height="7.0866"/>
  <rect x="113.2949" y="120.5504" width="7.0866" height="7.0866"/>
  <rect x="113.2949" y="127.6056" width="7.0866" height="7.0866"/>
  <rect x="120.3912" y="120.5504" width="7.0866" height="7.0866"/>
  <rect x="120.3912" y="127.637" width="7.0866" height="7.0866"/>
  <rect x="120.3912" y="134.6923" width="7.0866" height="7.0866"/>
  <rect x="120.3912" y="106.3772" width="7.0866" height="7.0866"/>
  <rect x="127.4778" y="106.3772" width="7.0866" height="7.0866"/>
  <rect x="134.5547" y="106.3772" width="7.0866" height="7.0866"/>
  <rect x="127.4778" y="113.4638" width="7.0866" height="7.0866"/>
  <rect x="127.4584" y="113.4324" width="7.0866" height="7.0866"/>
  <rect x="134.5547" y="113.4324" width="7.0866" height="7.0866"/>
  <rect x="141.651" y="113.4324" width="7.0866" height="7.0866"/>
  <rect x="106.218" y="106.3772" width="7.0866" height="7.0866"/>
  <rect x="92.035" y="21.2907" width="7.0866" height="7.0866"/>
  <rect x="84.9484" y="28.3774" width="7.0866" height="7.0866"/>
  <rect x="92.035" y="28.3774" width="7.0866" height="7.0866"/>
  <rect x="92.0901" y="14.2041" width="7.0866" height="7.0866"/>
  <rect x="92.0901" y="21.2907" width="7.0866" height="7.0866"/>
  <rect x="85.0035" y="21.2907" width="7.0866" height="7.0866"/>
  <rect x="127.4681" y="56.7238" width="7.0866" height="7.0866" transform="translate(70.7443 191.2785) rotate(-90)"/>
  <rect x="134.5353" y="56.7238" width="7.0866" height="7.0866" transform="translate(77.8114 198.3457) rotate(-90)"/>
  <rect x="113.2949" y="56.7238" width="7.0866" height="7.0866" transform="translate(56.571 177.1053) rotate(-90)"/>
  <rect x="120.3815" y="63.8104" width="7.0866" height="7.0866" transform="translate(56.571 191.2785) rotate(-90)"/>
  <rect x="127.4486" y="63.8104" width="7.0866" height="7.0866" transform="translate(63.6382 198.3457) rotate(-90)"/>
  <rect x="113.2949" y="70.9127" width="7.0866" height="7.0866" transform="translate(42.3821 191.2942) rotate(-90)"/>
  <rect x="120.3815" y="56.7238" width="7.0866" height="7.0866" transform="translate(63.6577 184.1919) rotate(-90)"/>
  <rect x="113.2949" y="85.1017" width="7.0866" height="7.0866" transform="translate(205.4831 -28.1932) rotate(90)"/>
  <rect x="127.4681" y="85.1017" width="7.0866" height="7.0866" transform="translate(219.6564 -42.3664) rotate(90)"/>
  <rect x="134.5353" y="85.1017" width="7.0866" height="7.0866" transform="translate(226.7235 -49.4336) rotate(90)"/>
  <rect x="120.3815" y="78.015" width="7.0866" height="7.0866" transform="translate(205.4831 -42.3664) rotate(90)"/>
  <rect x="127.4486" y="78.0072" width="7.0866" height="7.0866" transform="translate(212.5425 -49.4415) rotate(90)"/>
  <rect x="120.3815" y="70.9127" width="7.0866" height="7.0866" transform="translate(198.3808 -49.4687) rotate(90)"/>
  <rect x="120.3815" y="85.1017" width="7.0866" height="7.0866" transform="translate(212.5697 -35.2798) rotate(90)"/>
  <rect x="77.8618" y="70.9127" width="7.0866" height="7.0866"/>
  <rect x="70.8853" y="63.7869" width="7.0866" height="7.0866" transform="translate(148.8573 134.6604) rotate(-180)"/>
  <rect x="70.8853" y="56.7003" width="7.0866" height="7.0866" transform="translate(148.8573 120.4872) rotate(-180)"/>
  <rect x="70.8853" y="42.527" width="7.0866" height="7.0866" transform="translate(148.8573 92.1407) rotate(-180)"/>
  <rect x="49.6255" y="77.9915" width="7.0866" height="7.0866" transform="translate(106.3376 163.0696) rotate(-180)"/>
  <rect x="63.7987" y="35.4404" width="7.0866" height="7.0866" transform="translate(134.684 77.9675) rotate(-180)"/>
  <rect x="63.7987" y="56.7003" width="7.0866" height="7.0866" transform="translate(134.684 120.4872) rotate(-180)"/>
  <rect x="56.7121" y="49.6137" width="7.0866" height="7.0866" transform="translate(120.5108 106.3139) rotate(-180)"/>
  <rect x="56.7121" y="92.1961" width="7.0866" height="7.0866" transform="translate(120.5108 191.4788) rotate(-180)"/>
  <rect x="49.6255" y="42.527" width="7.0866" height="7.0866" transform="translate(106.3376 92.1407) rotate(-180)"/>
  <rect x="63.7987" y="63.7869" width="7.0866" height="7.0866" transform="translate(134.684 134.6604) rotate(-180)"/>
  <rect x="56.7121" y="70.8735" width="7.0866" height="7.0866" transform="translate(120.5108 148.8336) rotate(-180)"/>
  <rect x="49.6255" y="63.7869" width="7.0866" height="7.0866" transform="translate(106.3376 134.6604) rotate(-180)"/>
  <rect x="70.8853" y="85.0781" width="7.0866" height="7.0866" transform="translate(148.8573 177.2428) rotate(-180)"/>
  <rect x="70.8853" y="77.9915" width="7.0866" height="7.0866" transform="translate(148.8573 163.0696) rotate(-180)"/>
  <rect x="63.7987" y="77.9915" width="7.0866" height="7.0866" transform="translate(134.684 163.0696) rotate(-180)"/>
  <rect x="63.7987" y="85.0781" width="7.0866" height="7.0866" transform="translate(134.684 177.2428) rotate(-180)"/>
  <rect x="42.5389" y="42.527" width="7.0866" height="7.0866" transform="translate(92.1643 92.1407) rotate(-180)"/>
  <rect x="35.4522" y="42.527" width="7.0866" height="7.0866" transform="translate(77.9911 92.1407) rotate(-180)"/>
  <rect x="28.3656" y="42.5235" width="7.0866" height="7.0866" transform="translate(63.8179 92.1336) rotate(-180)"/>
  <rect x="49.6255" y="28.3538" width="7.0866" height="7.0866" transform="translate(106.3376 63.7943) rotate(-180)"/>
  <rect x="49.6255" y="21.2907" width="7.0866" height="7.0866" transform="translate(106.3376 49.6681) rotate(-180)"/>
  <rect x="42.5486" y="28.3538" width="7.0866" height="7.0866" transform="translate(92.1838 63.7943) rotate(-180)"/>
  <rect x="42.5486" y="21.2672" width="7.0866" height="7.0866" transform="translate(92.1838 49.621) rotate(-180)"/>
  <rect x="42.5486" y="14.1801" width="7.0866" height="7.0866" transform="translate(92.1838 35.4469) rotate(-180)"/>
  <rect x="35.4522" y="21.2672" width="7.0866" height="7.0866" transform="translate(77.9911 49.621) rotate(-180)"/>
  <rect x="35.4522" y="14.1806" width="7.0866" height="7.0866" transform="translate(77.9911 35.4478) rotate(-180)"/>
  <rect x="35.4522" y="7.0935" width="7.0866" height="7.0866" transform="translate(77.9911 21.2737) rotate(-180)"/>
  <rect x="35.4522" y="35.4404" width="7.0866" height="7.0866" transform="translate(77.9911 77.9675) rotate(-180)"/>
  <rect x="28.3656" y="35.4404" width="7.0866" height="7.0866" transform="translate(63.8179 77.9675) rotate(-180)"/>
  <rect x="21.2985" y="35.44" width="7.0866" height="7.0866" transform="translate(49.6835 77.9666) rotate(-180)"/>
  <rect x="28.3656" y="28.3538" width="7.0866" height="7.0866" transform="translate(63.8179 63.7943) rotate(-180)"/>
  <rect x="21.2985" y="28.3538" width="7.0866" height="7.0866" transform="translate(49.6835 63.7943) rotate(-180)"/>
  <rect x="14.2272" y="28.3534" width="7.0866" height="7.0866" transform="translate(35.5411 63.7933) rotate(-180)"/>
  <rect x="49.6255" y="35.4404" width="7.0866" height="7.0866" transform="translate(106.3376 77.9675) rotate(-180)"/>
  <rect x="49.6158" y="99.267" width="7.0866" height="7.0866" transform="translate(106.3181 205.6207) rotate(-180)"/>
  <rect x="42.5291" y="99.267" width="7.0866" height="7.0866" transform="translate(92.1449 205.6207) rotate(-180)"/>
  <rect x="35.4425" y="99.267" width="7.0866" height="7.0866" transform="translate(77.9717 205.6207) rotate(-180)"/>
  <rect x="28.4005" y="99.267" width="7.0866" height="7.0866" transform="translate(63.8875 205.6207) rotate(-180)"/>
  <rect x="49.6158" y="113.4403" width="7.0866" height="7.0866" transform="translate(106.3181 233.9671) rotate(-180)"/>
  <rect x="49.6158" y="120.4793" width="7.0866" height="7.0866" transform="translate(106.3181 248.0453) rotate(-180)"/>
  <rect x="42.5389" y="113.4403" width="7.0866" height="7.0866" transform="translate(92.1643 233.9671) rotate(-180)"/>
  <rect x="42.5389" y="120.5269" width="7.0866" height="7.0866" transform="translate(92.1643 248.1404) rotate(-180)"/>
  <rect x="42.5389" y="127.566" width="7.0866" height="7.0866" transform="translate(92.1643 262.2185) rotate(-180)"/>
  <rect x="35.4425" y="120.5269" width="7.0866" height="7.0866" transform="translate(77.9717 248.1404) rotate(-180)"/>
  <rect x="35.4425" y="127.6135" width="7.0866" height="7.0866" transform="translate(77.9717 262.3136) rotate(-180)"/>
  <rect x="35.4425" y="134.6526" width="7.0866" height="7.0866" transform="translate(77.9717 276.3918) rotate(-180)"/>
  <rect x="35.4425" y="106.3537" width="7.0866" height="7.0866" transform="translate(77.9717 219.7939) rotate(-180)"/>
  <rect x="28.3559" y="106.3537" width="7.0866" height="7.0866" transform="translate(63.7984 219.7939) rotate(-180)"/>
  <rect x="21.3138" y="106.3537" width="7.0866" height="7.0866" transform="translate(49.7143 219.7939) rotate(-180)"/>
  <rect x="28.3559" y="113.4403" width="7.0866" height="7.0866" transform="translate(63.7984 233.9671) rotate(-180)"/>
  <rect x="21.2887" y="113.4403" width="7.0866" height="7.0866" transform="translate(49.6641 233.9671) rotate(-180)"/>
  <rect x="14.2216" y="113.3927" width="7.0866" height="7.0866" transform="translate(35.5297 233.8721) rotate(-180)"/>
  <rect x="49.6158" y="106.3537" width="7.0866" height="7.0866" transform="translate(106.3181 219.7939) rotate(-180)"/>
  <rect x="63.7987" y="21.2672" width="7.0866" height="7.0866" transform="translate(134.684 49.621) rotate(-180)"/>
  <rect x="70.8853" y="28.3538" width="7.0866" height="7.0866" transform="translate(148.8573 63.7943) rotate(-180)"/>
  <rect x="63.7987" y="28.3538" width="7.0866" height="7.0866" transform="translate(134.684 63.7943) rotate(-180)"/>
  <rect x="63.7987" y="14.1806" width="7.0866" height="7.0866" transform="translate(134.684 35.4478) rotate(-180)"/>
  <rect x="70.8853" y="21.2672" width="7.0866" height="7.0866" transform="translate(148.8573 49.621) rotate(-180)"/>
  <rect x="78.027" y="28.346" width="7.0866" height="7.0866" transform="translate(163.1406 63.7786) rotate(-180)"/>
  <rect x="63.7987" y="21.2672" width="7.0866" height="7.0866" transform="translate(134.684 49.621) rotate(-180)"/>
  <rect x="78.027" y="92.2628" width="7.0866" height="7.0866" transform="translate(163.1406 191.6122) rotate(180)"/>
  <rect x="70.9404" y="99.3494" width="7.0866" height="7.0866" transform="translate(148.9674 205.7854) rotate(180)"/>
  <rect x="78.027" y="106.436" width="7.0866" height="7.0866" transform="translate(163.1406 219.9587) rotate(180)"/>
  <rect x="63.8538" y="106.436" width="7.0866" height="7.0866" transform="translate(134.7942 219.9587) rotate(180)"/>
  <rect x="63.8538" y="120.6093" width="7.0866" height="7.0866" transform="translate(134.7942 248.3051) rotate(180)"/>
  <rect x="70.9404" y="113.5226" width="7.0866" height="7.0866" transform="translate(148.9674 234.1319) rotate(180)"/>
  <rect x="77.9719" y="113.5226" width="7.0866" height="7.0866" transform="translate(163.0305 234.1319) rotate(180)"/>
  <rect x="63.8538" y="113.5226" width="7.0866" height="7.0866" transform="translate(134.7942 234.1319) rotate(180)"/>
  <rect x="63.8538" y="127.6959" width="7.0866" height="7.0866" transform="translate(134.7942 262.4784) rotate(180)"/>
  <rect x="70.9404" y="120.6093" width="7.0866" height="7.0866" transform="translate(148.9674 248.3051) rotate(180)"/>
  <rect x="63.8538" y="120.6093" width="7.0866" height="7.0866" transform="translate(134.7942 248.3051) rotate(180)"/>
  <rect x="85.0035" y="99.373" width="7.0866" height="7.0866"/>
  <rect x="92.0901" y="106.4596" width="7.0866" height="7.0866"/>
  <rect x="92.0901" y="120.6328" width="7.0866" height="7.0866"/>
  <rect x="85.0035" y="113.5462" width="7.0866" height="7.0866"/>
  <rect x="92.0901" y="113.5462" width="7.0866" height="7.0866"/>
  <rect x="92.0901" y="127.6135" width="7.0866" height="7.0866"/>
  <rect x="85.0035" y="120.5269" width="7.0866" height="7.0866"/>
  <rect x="92.0901" y="120.5269" width="7.0866" height="7.0866"/>
  <rect x="28.3656" y="56.7003" width="7.0866" height="7.0866" transform="translate(-28.3346 92.1525) rotate(-90)"/>
  <rect x="42.5389" y="56.7003" width="7.0866" height="7.0866" transform="translate(-14.1614 106.3258) rotate(-90)"/>
  <rect x="35.4522" y="63.7869" width="7.0866" height="7.0866" transform="translate(-28.3346 106.3258) rotate(-90)"/>
  <rect x="28.4005" y="63.7869" width="7.0866" height="7.0866" transform="translate(-35.3864 99.274) rotate(-90)"/>
  <rect x="35.4522" y="70.8892" width="7.0866" height="7.0866" transform="translate(-35.4369 113.4281) rotate(-90)"/>
  <rect x="42.5389" y="70.8892" width="7.0866" height="7.0866" transform="translate(-28.3503 120.5147) rotate(-90)"/>
  <rect x="35.4522" y="56.7003" width="7.0866" height="7.0866" transform="translate(-21.248 99.2391) rotate(-90)"/>
  <rect x="21.2693" y="56.7003" width="7.0866" height="7.0866" transform="translate(-35.431 85.0562) rotate(-90)"/>
  <rect x="42.5389" y="85.0781" width="7.0866" height="7.0866" transform="translate(134.7036 42.5393) rotate(90)"/>
  <rect x="28.3656" y="85.0781" width="7.0866" height="7.0866" transform="translate(120.5304 56.7125) rotate(90)"/>
  <rect x="35.4522" y="77.9915" width="7.0866" height="7.0866" transform="translate(120.5304 42.5393) rotate(90)"/>
  <rect x="35.4522" y="85.0781" width="7.0866" height="7.0866" transform="translate(127.617 49.6259) rotate(90)"/>
  <rect x="21.3138" y="85.0781" width="7.0866" height="7.0866" transform="translate(113.4786 63.7643) rotate(90)"/>
  <rect x="28.4005" y="77.9915" width="7.0866" height="7.0866" transform="translate(113.4786 49.591) rotate(90)"/>
  <rect x="28.4005" y="85.0781" width="7.0866" height="7.0866" transform="translate(120.5652 56.6777) rotate(90)"/>
  <rect x=".0888" y="7.0935" width="7.0866" height="7.0866"/>
  <rect x=".0888" y="14.1801" width="7.0866" height="7.0866"/>
  <rect x=".0888" y="21.2668" width="7.0866" height="7.0866"/>
  <rect x=".0888" y="28.3534" width="7.0866" height="7.0866"/>
  <rect x=".0888" y="35.44" width="7.0866" height="7.0866"/>
  <rect x=".0888" y="42.5266" width="7.0866" height="7.0866"/>
  <rect x=".0888" y="49.6132" width="7.0866" height="7.0866"/>
  <rect x=".0888" y="56.6998" width="7.0866" height="7.0866"/>
  <rect x=".0888" y="63.7864" width="7.0866" height="7.0866"/>
  <rect x=".0888" y="70.873" width="7.0866" height="7.0866"/>
  <rect x=".0888" y="77.9597" width="7.0866" height="7.0866"/>
  <rect x=".0888" y="85.0463" width="7.0866" height="7.0866"/>
  <rect x=".0888" y="92.1329" width="7.0866" height="7.0866"/>
  <rect x=".0888" y="99.2195" width="7.0866" height="7.0866"/>
  <rect x=".0888" y="106.3061" width="7.0866" height="7.0866"/>
  <rect x=".0888" y="113.3927" width="7.0866" height="7.0866"/>
  <rect x=".0888" y="120.4793" width="7.0866" height="7.0866"/>
  <rect x=".0888" y="127.566" width="7.0866" height="7.0866"/>
  <rect x=".0888" y="134.6526" width="7.0866" height="7.0866"/>
  <rect x=".0888" y="141.7392" width="7.0866" height="7.0866"/>
  <rect x="155.8243" y=".0466" width="7.0866" height="7.0866"/>
  <rect x="155.8243" y="7.1332" width="7.0866" height="7.0866"/>
  <rect x="155.8243" y="14.2198" width="7.0866" height="7.0866"/>
  <rect x="155.8243" y="21.3064" width="7.0866" height="7.0866"/>
  <rect x="155.8243" y="28.393" width="7.0866" height="7.0866"/>
  <rect x="155.8243" y="35.4797" width="7.0866" height="7.0866"/>
  <rect x="155.8243" y="42.5663" width="7.0866" height="7.0866"/>
  <rect x="155.8243" y="49.6529" width="7.0866" height="7.0866"/>
  <rect x="155.8243" y="56.7395" width="7.0866" height="7.0866"/>
  <rect x="155.8243" y="63.8261" width="7.0866" height="7.0866"/>
  <rect x="155.8243" y="70.9127" width="7.0866" height="7.0866"/>
  <rect x="155.8243" y="77.9993" width="7.0866" height="7.0866"/>
  <rect x="155.8243" y="85.086" width="7.0866" height="7.0866"/>
  <rect x="155.8243" y="92.1726" width="7.0866" height="7.0866"/>
  <rect x="155.8243" y="99.2592" width="7.0866" height="7.0866"/>
  <rect x="155.8243" y="106.3458" width="7.0866" height="7.0866"/>
  <rect x="155.8243" y="113.4324" width="7.0866" height="7.0866"/>
  <rect x="155.8243" y="120.519" width="7.0866" height="7.0866"/>
  <rect x="155.8243" y="127.6056" width="7.0866" height="7.0866"/>
  <rect x="155.8243" y="134.6923" width="7.0866" height="7.0866"/>
  <rect x="155.8243" y="141.7789" width="7.0866" height="7.0866"/>
</svg>