<?xml version="1.0" encoding="UTF-8"?>
<svg id="Blocks" xmlns="http://www.w3.org/2000/svg" viewBox="0 0 241.0656 148.7116">
  <rect x="56.7716" y="70.9242" width="7.0866" height="7.0866"/>
  <rect x="92.2047" y="70.9242" width="7.0866" height="7.0866"/>
  <rect x="99.2913" y="63.8376" width="7.0866" height="7.0866"/>
  <rect x="99.2913" y="78.0108" width="7.0866" height="7.0866"/>
  <rect x="106.3779" y="85.0866" width="7.0866" height="7.0866"/>
  <rect x="106.3779" y="56.7618" width="7.0866" height="7.0866"/>
  <rect x="42.5984" y="21.3287" width="7.0866" height="7.0866"/>
  <rect x="35.5118" y="21.3287" width="7.0866" height="7.0866"/>
  <rect x="35.5118" y="14.2529" width="7.0866" height="7.0866"/>
  <rect x="28.4252" y="14.2529" width="7.0866" height="7.0866"/>
  <rect x="28.4252" y="7.1446" width="7.0866" height="7.0866"/>
  <rect x="21.3386" y="7.1446" width="7.0866" height="7.0866"/>
  <rect x="56.7716" y="21.3287" width="7.0866" height="7.0866"/>
  <rect x="70.9449" y="21.3287" width="7.0866" height="7.0866"/>
  <rect x="78.0315" y="21.3395" width="7.0866" height="7.0866"/>
  <rect x="78.0315" y="14.2421" width="7.0866" height="7.0866"/>
  <rect x="85.1181" y="14.2529" width="7.0866" height="7.0866"/>
  <rect x="85.1181" y="7.1446" width="7.0866" height="7.0866"/>
  <rect x="92.2047" y="7.1555" width="7.0866" height="7.0866"/>
  <rect x="63.8583" y="7.1392" width="7.0866" height="7.0866"/>
  <rect x="70.9449" y="7.15" width="7.0866" height="7.0866"/>
  <rect x="70.9449" y="-.0015" width="7.0866" height="7.0866"/>
  <rect x="78.0315" y=".0094" width="7.0866" height="7.0866"/>
  <rect x="42.5984" y="7.1338" width="7.0866" height="7.0866"/>
  <rect x="49.685" y="14.2529" width="7.0866" height="7.0866"/>
  <rect x="49.685" y="7.1446" width="7.0866" height="7.0866"/>
  <rect x="35.5118" y=".0039" width="7.0866" height="7.0866"/>
  <rect x="42.5984" y=".0148" width="7.0866" height="7.0866"/>
  <rect x="63.8583" y="14.2475" width="7.0866" height="7.0866"/>
  <rect x="42.5984" y="120.4514" width="7.0866" height="7.0866"/>
  <rect x="56.7716" y="120.4514" width="7.0866" height="7.0866"/>
  <rect x="63.8583" y="127.538" width="7.0866" height="7.0866"/>
  <rect x="63.8583" y="134.6246" width="7.0866" height="7.0866"/>
  <rect x="70.9449" y="134.6246" width="7.0866" height="7.0866"/>
  <rect x="70.9449" y="141.7112" width="7.0866" height="7.0866"/>
  <rect x="78.0315" y="141.7112" width="7.0866" height="7.0866"/>
  <rect x="49.685" y="127.538" width="7.0866" height="7.0866"/>
  <rect x="42.5984" y="134.6246" width="7.0866" height="7.0866"/>
  <rect x="49.685" y="134.6246" width="7.0866" height="7.0866"/>
  <rect x="35.5118" y="141.7112" width="7.0866" height="7.0866"/>
  <rect x="42.5984" y="141.7112" width="7.0866" height="7.0866"/>
  <rect x="70.9449" y="120.4514" width="7.0866" height="7.0866"/>
  <rect x="49.685" y="63.8376" width="7.0866" height="7.0866"/>
  <rect x="35.5118" y="63.8376" width="7.0866" height="7.0866"/>
  <rect x="42.5984" y="63.8376" width="7.0866" height="7.0866"/>
  <rect x="28.4252" y="63.8376" width="7.0866" height="7.0866"/>
  <rect x="49.685" y="42.5885" width="7.0866" height="7.0866"/>
  <rect x="35.5118" y="42.5885" width="7.0866" height="7.0866"/>
  <rect x="42.5984" y="42.5885" width="7.0866" height="7.0866"/>
  <rect x="28.4252" y="42.5885" width="7.0866" height="7.0866"/>
  <rect x="85.1181" y="42.5885" width="7.0866" height="7.0866"/>
  <rect x="70.9449" y="42.5885" width="7.0866" height="7.0866"/>
  <rect x="78.0315" y="42.5885" width="7.0866" height="7.0866"/>
  <rect x="63.8583" y="42.5885" width="7.0866" height="7.0866"/>
  <rect x="85.1181" y="99.1915" width="7.0866" height="7.0866"/>
  <rect x="70.9449" y="99.1915" width="7.0866" height="7.0866"/>
  <rect x="78.0315" y="99.1915" width="7.0866" height="7.0866"/>
  <rect x="85.1181" y="127.538" width="7.0866" height="7.0866"/>
  <rect x="78.0315" y="127.538" width="7.0866" height="7.0866"/>
  <rect x="35.5118" y="127.538" width="7.0866" height="7.0866"/>
  <rect x="28.4252" y="127.538" width="7.0866" height="7.0866"/>
  <rect x="28.4252" y="134.6246" width="7.0866" height="7.0866"/>
  <rect x="21.3386" y="134.6246" width="7.0866" height="7.0866"/>
  <rect x="92.2047" y="134.6246" width="7.0866" height="7.0866"/>
  <rect x="85.1181" y="134.6246" width="7.0866" height="7.0866"/>
  <rect x="63.8583" y="99.1915" width="7.0866" height="7.0866"/>
  <rect x="49.685" y="99.1915" width="7.0866" height="7.0866"/>
  <rect x="35.5118" y="99.1915" width="7.0866" height="7.0866"/>
  <rect x="42.5984" y="99.1915" width="7.0866" height="7.0866"/>
  <rect x="28.4252" y="99.1915" width="7.0866" height="7.0866"/>
  <rect x="85.1181" y="63.8376" width="7.0866" height="7.0866"/>
  <rect x="70.9449" y="63.8376" width="7.0866" height="7.0866"/>
  <rect x="78.0315" y="63.8376" width="7.0866" height="7.0866"/>
  <rect x="63.8583" y="63.8376" width="7.0866" height="7.0866"/>
  <rect x="56.7716" y="35.5019" width="7.0866" height="7.0866"/>
  <rect x="49.685" y="28.4153" width="7.0866" height="7.0866"/>
  <rect x="63.8583" y="28.4153" width="7.0866" height="7.0866"/>
  <rect x="85.1181" y="78.0108" width="7.0866" height="7.0866"/>
  <rect x="70.9449" y="78.0108" width="7.0866" height="7.0866"/>
  <rect x="78.0315" y="78.0108" width="7.0866" height="7.0866"/>
  <rect x="113.4646" y="70.9242" width="7.0866" height="7.0866"/>
  <rect x="106.3779" y="70.9242" width="7.0866" height="7.0866"/>
  <rect x="120.5512" y="63.6835" width="7.0866" height="7.0866"/>
  <rect x="120.5512" y="77.8568" width="7.0866" height="7.0866"/>
  <rect x="127.6378" y="84.9326" width="7.0866" height="7.0866"/>
  <rect x="127.6378" y="56.6077" width="7.0866" height="7.0866"/>
  <rect x="134.7244" y="70.7702" width="7.0866" height="7.0866"/>
  <rect x="141.811" y="70.7702" width="7.0866" height="7.0866"/>
  <rect x="127.6378" y="70.7702" width="7.0866" height="7.0866"/>
  <rect x="63.8583" y="78.0108" width="7.0866" height="7.0866"/>
  <rect x="49.685" y="78.1016" width="7.0866" height="7.0866"/>
  <rect x="56.7716" y="106.2781" width="7.0866" height="7.0866"/>
  <rect x="63.8583" y="113.3648" width="7.0866" height="7.0866"/>
  <rect x="49.685" y="113.3648" width="7.0866" height="7.0866"/>
  <rect x="35.5118" y="78.1016" width="7.0866" height="7.0866"/>
  <rect x="42.5984" y="78.1016" width="7.0866" height="7.0866"/>
  <rect x="28.4252" y="78.1016" width="7.0866" height="7.0866"/>
  <rect x="28.4252" y="85.0866" width="7.0866" height="7.0866"/>
  <rect x="28.4252" y="92.1732" width="7.0866" height="7.0866"/>
  <rect x="49.685" y="85.0183" width="7.0866" height="7.0866"/>
  <rect x="49.685" y="92.1049" width="7.0866" height="7.0866"/>
  <rect x="63.8583" y="85.0183" width="7.0866" height="7.0866"/>
  <rect x="63.8583" y="92.1049" width="7.0866" height="7.0866"/>
  <rect x="85.1181" y="85.0183" width="7.0866" height="7.0866"/>
  <rect x="85.1181" y="92.1049" width="7.0866" height="7.0866"/>
  <rect x="28.4252" y="49.6751" width="7.0866" height="7.0866"/>
  <rect x="28.4252" y="56.7618" width="7.0866" height="7.0866"/>
  <rect x="63.8583" y="49.6751" width="7.0866" height="7.0866"/>
  <rect x="63.8583" y="56.7618" width="7.0866" height="7.0866"/>
  <rect x="85.1181" y="49.6751" width="7.0866" height="7.0866"/>
  <rect x="85.1181" y="56.7618" width="7.0866" height="7.0866"/>
  <rect x="49.685" y="49.6751" width="7.0866" height="7.0866"/>
  <rect x="49.685" y="56.7618" width="7.0866" height="7.0866"/>
  <rect x="177.2441" y="70.8394" width="7.0866" height="7.0866"/>
  <rect x="163.0709" y="21.244" width="7.0866" height="7.0866"/>
  <rect x="155.9842" y="21.244" width="7.0866" height="7.0866"/>
  <rect x="155.9842" y="14.1682" width="7.0866" height="7.0866"/>
  <rect x="148.8976" y="14.1682" width="7.0866" height="7.0866"/>
  <rect x="148.8976" y="7.0599" width="7.0866" height="7.0866"/>
  <rect x="141.811" y="7.0599" width="7.0866" height="7.0866"/>
  <rect x="177.2441" y="21.244" width="7.0866" height="7.0866"/>
  <rect x="191.4173" y="21.244" width="7.0866" height="7.0866"/>
  <rect x="198.5039" y="21.2548" width="7.0866" height="7.0866"/>
  <rect x="198.5039" y="14.1574" width="7.0866" height="7.0866"/>
  <rect x="205.5905" y="14.1682" width="7.0866" height="7.0866"/>
  <rect x="205.5905" y="7.0599" width="7.0866" height="7.0866"/>
  <rect x="212.6772" y="7.0653" width="7.0866" height="7.0866"/>
  <rect x="184.3307" y="7.0545" width="7.0866" height="7.0866"/>
  <rect x="191.4173" y="7.0653" width="7.0866" height="7.0866"/>
  <rect x="191.4173" y="-.0862" width="7.0866" height="7.0866"/>
  <rect x="198.5039" y="-.0754" width="7.0866" height="7.0866"/>
  <rect x="163.0709" y="7.0491" width="7.0866" height="7.0866"/>
  <rect x="170.1575" y="14.1682" width="7.0866" height="7.0866"/>
  <rect x="170.1575" y="7.0599" width="7.0866" height="7.0866"/>
  <rect x="155.9842" y="-.0808" width="7.0866" height="7.0866"/>
  <rect x="163.0709" y="-.07" width="7.0866" height="7.0866"/>
  <rect x="184.3307" y="14.1628" width="7.0866" height="7.0866"/>
  <rect x="163.0709" y="120.4563" width="7.0866" height="7.0866"/>
  <rect x="177.2441" y="120.4563" width="7.0866" height="7.0866"/>
  <rect x="184.3307" y="127.4533" width="7.0866" height="7.0866"/>
  <rect x="184.3307" y="134.5399" width="7.0866" height="7.0866"/>
  <rect x="191.4173" y="134.5399" width="7.0866" height="7.0866"/>
  <rect x="191.4173" y="141.6265" width="7.0866" height="7.0866"/>
  <rect x="198.5039" y="141.6265" width="7.0866" height="7.0866"/>
  <rect x="170.1575" y="127.5429" width="7.0866" height="7.0866"/>
  <rect x="163.0709" y="134.6295" width="7.0866" height="7.0866"/>
  <rect x="170.1575" y="134.6295" width="7.0866" height="7.0866"/>
  <rect x="155.9842" y="141.6265" width="7.0866" height="7.0866"/>
  <rect x="163.0709" y="141.6265" width="7.0866" height="7.0866"/>
  <rect x="191.4173" y="120.4563" width="7.0866" height="7.0866"/>
  <rect x="170.1575" y="63.7528" width="7.0866" height="7.0866"/>
  <rect x="155.9842" y="63.7528" width="7.0866" height="7.0866"/>
  <rect x="163.0709" y="63.7528" width="7.0866" height="7.0866"/>
  <rect x="148.8976" y="63.7528" width="7.0866" height="7.0866"/>
  <rect x="170.1575" y="42.5038" width="7.0866" height="7.0866"/>
  <rect x="155.9842" y="42.5038" width="7.0866" height="7.0866"/>
  <rect x="163.0709" y="42.5038" width="7.0866" height="7.0866"/>
  <rect x="148.8976" y="42.5038" width="7.0866" height="7.0866"/>
  <rect x="205.5905" y="42.5038" width="7.0866" height="7.0866"/>
  <rect x="191.4173" y="42.5038" width="7.0866" height="7.0866"/>
  <rect x="198.5039" y="42.5038" width="7.0866" height="7.0866"/>
  <rect x="184.3307" y="42.5038" width="7.0866" height="7.0866"/>
  <rect x="205.5905" y="99.1068" width="7.0866" height="7.0866"/>
  <rect x="191.4173" y="99.1068" width="7.0866" height="7.0866"/>
  <rect x="198.5039" y="99.1068" width="7.0866" height="7.0866"/>
  <rect x="205.5905" y="127.5429" width="7.0866" height="7.0866"/>
  <rect x="212.6772" y="134.6295" width="7.0866" height="7.0866"/>
  <rect x="198.5039" y="127.5429" width="7.0866" height="7.0866"/>
  <rect x="155.9842" y="127.5429" width="7.0866" height="7.0866"/>
  <rect x="148.8976" y="127.5429" width="7.0866" height="7.0866"/>
  <rect x="148.8976" y="134.6295" width="7.0866" height="7.0866"/>
  <rect x="141.811" y="134.6295" width="7.0866" height="7.0866"/>
  <rect x="205.5905" y="134.6295" width="7.0866" height="7.0866"/>
  <rect x="184.3307" y="99.1068" width="7.0866" height="7.0866"/>
  <rect x="170.1575" y="99.1068" width="7.0866" height="7.0866"/>
  <rect x="155.9842" y="99.1068" width="7.0866" height="7.0866"/>
  <rect x="163.0709" y="99.1068" width="7.0866" height="7.0866"/>
  <rect x="148.8976" y="99.1068" width="7.0866" height="7.0866"/>
  <rect x="205.5905" y="63.7528" width="7.0866" height="7.0866"/>
  <rect x="191.4173" y="63.7528" width="7.0866" height="7.0866"/>
  <rect x="198.5039" y="63.7528" width="7.0866" height="7.0866"/>
  <rect x="184.3307" y="63.7528" width="7.0866" height="7.0866"/>
  <rect x="177.2441" y="35.4172" width="7.0866" height="7.0866"/>
  <rect x="170.1575" y="28.3306" width="7.0866" height="7.0866"/>
  <rect x="184.3307" y="28.3306" width="7.0866" height="7.0866"/>
  <rect x="205.5905" y="77.9261" width="7.0866" height="7.0866"/>
  <rect x="191.4173" y="77.9261" width="7.0866" height="7.0866"/>
  <rect x="198.5039" y="77.9261" width="7.0866" height="7.0866"/>
  <rect x="184.3307" y="77.9261" width="7.0866" height="7.0866"/>
  <rect x="170.1575" y="78.0169" width="7.0866" height="7.0866"/>
  <rect x="177.2441" y="106.283" width="7.0866" height="7.0866"/>
  <rect x="184.3307" y="113.3697" width="7.0866" height="7.0866"/>
  <rect x="170.1575" y="113.3697" width="7.0866" height="7.0866"/>
  <rect x="155.9842" y="78.0169" width="7.0866" height="7.0866"/>
  <rect x="163.0709" y="78.0169" width="7.0866" height="7.0866"/>
  <rect x="148.8976" y="78.0169" width="7.0866" height="7.0866"/>
  <rect x="148.8976" y="85.0019" width="7.0866" height="7.0866"/>
  <rect x="148.8976" y="92.0885" width="7.0866" height="7.0866"/>
  <rect x="170.1575" y="84.9336" width="7.0866" height="7.0866"/>
  <rect x="170.1575" y="92.0202" width="7.0866" height="7.0866"/>
  <rect x="184.3307" y="84.9336" width="7.0866" height="7.0866"/>
  <rect x="184.3307" y="92.0202" width="7.0866" height="7.0866"/>
  <rect x="205.5905" y="84.9336" width="7.0866" height="7.0866"/>
  <rect x="205.5905" y="92.0202" width="7.0866" height="7.0866"/>
  <rect x="148.8976" y="49.5904" width="7.0866" height="7.0866"/>
  <rect x="148.8976" y="56.677" width="7.0866" height="7.0866"/>
  <rect x="184.3307" y="49.5904" width="7.0866" height="7.0866"/>
  <rect x="184.3307" y="56.677" width="7.0866" height="7.0866"/>
  <rect x="205.5905" y="49.5904" width="7.0866" height="7.0866"/>
  <rect x="205.5905" y="56.677" width="7.0866" height="7.0866"/>
  <rect x="170.1575" y="49.5904" width="7.0866" height="7.0866"/>
  <rect x="170.1575" y="56.677" width="7.0866" height="7.0866"/>
  <rect x="233.937" y="-.0536" width="7.0866" height="7.0866"/>
  <rect x="233.937" y="7.033" width="7.0866" height="7.0866"/>
  <rect x="233.937" y="14.1196" width="7.0866" height="7.0866"/>
  <rect x="233.937" y="21.2062" width="7.0866" height="7.0866"/>
  <rect x="233.937" y="28.2928" width="7.0866" height="7.0866"/>
  <rect x="233.937" y="35.3794" width="7.0866" height="7.0866"/>
  <rect x="233.937" y="42.4661" width="7.0866" height="7.0866"/>
  <rect x="233.937" y="49.5527" width="7.0866" height="7.0866"/>
  <rect x="233.937" y="56.6393" width="7.0866" height="7.0866"/>
  <rect x="233.937" y="63.7259" width="7.0866" height="7.0866"/>
  <rect x="233.937" y="70.8125" width="7.0866" height="7.0866"/>
  <rect x="233.937" y="77.8991" width="7.0866" height="7.0866"/>
  <rect x="233.937" y="84.9857" width="7.0866" height="7.0866"/>
  <rect x="233.937" y="92.0724" width="7.0866" height="7.0866"/>
  <rect x="233.937" y="99.159" width="7.0866" height="7.0866"/>
  <rect x="233.937" y="106.2456" width="7.0866" height="7.0866"/>
  <rect x="233.937" y="113.3322" width="7.0866" height="7.0866"/>
  <rect x="233.937" y="120.4188" width="7.0866" height="7.0866"/>
  <rect x="233.937" y="127.5054" width="7.0866" height="7.0866"/>
  <rect x="233.937" y="134.592" width="7.0866" height="7.0866"/>
  <rect x="233.937" y="141.6787" width="7.0866" height="7.0866"/>
  <rect x=".0787" y=".058" width="7.0866" height="7.0866"/>
  <rect x=".0787" y="7.1446" width="7.0866" height="7.0866"/>
  <rect x=".0787" y="14.2313" width="7.0866" height="7.0866"/>
  <rect x=".0787" y="21.3179" width="7.0866" height="7.0866"/>
  <rect x=".0787" y="28.4045" width="7.0866" height="7.0866"/>
  <rect x=".0787" y="35.4911" width="7.0866" height="7.0866"/>
  <rect x=".0787" y="42.5777" width="7.0866" height="7.0866"/>
  <rect x=".0787" y="49.6643" width="7.0866" height="7.0866"/>
  <rect x=".0787" y="56.7509" width="7.0866" height="7.0866"/>
  <rect x=".0787" y="63.8376" width="7.0866" height="7.0866"/>
  <rect x=".0787" y="70.9242" width="7.0866" height="7.0866"/>
  <rect x=".0787" y="78.0108" width="7.0866" height="7.0866"/>
  <rect x=".0787" y="85.0974" width="7.0866" height="7.0866"/>
  <rect x=".0787" y="92.184" width="7.0866" height="7.0866"/>
  <rect x=".0787" y="99.2706" width="7.0866" height="7.0866"/>
  <rect x=".0787" y="106.3572" width="7.0866" height="7.0866"/>
  <rect x=".0787" y="113.4439" width="7.0866" height="7.0866"/>
  <rect x=".0787" y="120.5305" width="7.0866" height="7.0866"/>
  <rect x=".0787" y="127.6171" width="7.0866" height="7.0866"/>
  <rect x=".0787" y="134.7037" width="7.0866" height="7.0866"/>
  <rect x=".0787" y="141.7903" width="7.0866" height="7.0866"/>
</svg>