<?xml version="1.0" encoding="UTF-8"?>
<svg id="Blocks" xmlns="http://www.w3.org/2000/svg" viewBox="0 0 247.9825 148.8415">
  <rect x=".1148" y=".0069" width="7.0866" height="7.0866"/>
  <rect x=".1148" y="7.0935" width="7.0866" height="7.0866"/>
  <rect x=".1148" y="14.1801" width="7.0866" height="7.0866"/>
  <rect x=".1148" y="21.2668" width="7.0866" height="7.0866"/>
  <rect x=".1148" y="28.3534" width="7.0866" height="7.0866"/>
  <rect x=".1148" y="35.44" width="7.0866" height="7.0866"/>
  <rect x=".1148" y="42.5266" width="7.0866" height="7.0866"/>
  <rect x=".1148" y="49.6132" width="7.0866" height="7.0866"/>
  <rect x=".1148" y="56.6998" width="7.0866" height="7.0866"/>
  <rect x=".1148" y="63.7864" width="7.0866" height="7.0866"/>
  <rect x=".1148" y="70.873" width="7.0866" height="7.0866"/>
  <rect x=".1148" y="77.9597" width="7.0866" height="7.0866"/>
  <rect x=".1148" y="85.0463" width="7.0866" height="7.0866"/>
  <rect x=".1148" y="92.1329" width="7.0866" height="7.0866"/>
  <rect x="120.4602" y="14.1801" width="7.0866" height="7.0866"/>
  <rect x="120.4602" y="21.2668" width="7.0866" height="7.0866"/>
  <rect x="113.3736" y="14.1801" width="7.0866" height="7.0866"/>
  <rect x="113.3736" y="21.2668" width="7.0866" height="7.0866"/>
  <rect x="127.5468" y="14.1801" width="7.0866" height="7.0866"/>
  <rect x="113.3736" y="7.0935" width="7.0866" height="7.0866"/>
  <rect x="106.287" y="7.0935" width="7.0866" height="7.0866"/>
  <rect x="120.4602" y="7.0935" width="7.0866" height="7.0866"/>
  <rect x="127.5468" y="7.0935" width="7.0866" height="7.0866"/>
  <rect x="134.6334" y="7.0935" width="7.0866" height="7.0866"/>
  <rect x="162.9761" y="21.2668" width="7.0866" height="7.0866"/>
  <rect x="170.0627" y="21.2668" width="7.0866" height="7.0866"/>
  <rect x="127.5468" y="21.2668" width="7.0866" height="7.0866"/>
  <rect x="120.4564" y="127.566" width="7.0866" height="7.0866" transform="translate(247.9994 262.2185) rotate(180)"/>
  <rect x="120.4564" y="120.4793" width="7.0866" height="7.0866" transform="translate(247.9994 248.0453) rotate(180)"/>
  <rect x="127.543" y="127.566" width="7.0866" height="7.0866" transform="translate(262.1726 262.2185) rotate(180)"/>
  <rect x="127.543" y="120.4793" width="7.0866" height="7.0866" transform="translate(262.1726 248.0453) rotate(180)"/>
  <rect x="134.6254" y="113.3927" width="7.0866" height="7.0866" transform="translate(276.3374 233.8721) rotate(180)"/>
  <rect x="134.6254" y="106.3061" width="7.0866" height="7.0866" transform="translate(276.3374 219.6989) rotate(180)"/>
  <rect x="141.7115" y="106.3061" width="7.0866" height="7.0866" transform="translate(290.5095 219.6989) rotate(180)"/>
  <rect x="141.7117" y="113.3927" width="7.0866" height="7.0866" transform="translate(290.5101 233.8721) rotate(180)"/>
  <rect x="148.7978" y="113.3927" width="7.0866" height="7.0866" transform="translate(304.6822 233.8721) rotate(180)"/>
  <rect x="155.8854" y="106.3061" width="7.0866" height="7.0866" transform="translate(318.8575 219.6989) rotate(180)"/>
  <rect x="134.6254" y="99.2195" width="7.0866" height="7.0866" transform="translate(276.3374 205.5256) rotate(180)"/>
  <rect x="113.3698" y="127.566" width="7.0866" height="7.0866" transform="translate(233.8262 262.2185) rotate(180)"/>
  <rect x="127.543" y="134.6526" width="7.0866" height="7.0866" transform="translate(262.1726 276.3918) rotate(180)"/>
  <rect x="134.6296" y="134.6526" width="7.0866" height="7.0866" transform="translate(276.3459 276.3918) rotate(180)"/>
  <rect x="120.4564" y="134.6526" width="7.0866" height="7.0866" transform="translate(247.9994 276.3918) rotate(180)"/>
  <rect x="113.3698" y="134.6526" width="7.0866" height="7.0866" transform="translate(233.8262 276.3918) rotate(180)"/>
  <rect x="106.2832" y="134.6526" width="7.0866" height="7.0866" transform="translate(219.653 276.3918) rotate(180)"/>
  <rect x="113.3698" y="120.4793" width="7.0866" height="7.0866" transform="translate(233.8262 248.0453) rotate(180)"/>
  <rect x="120.4602" y="28.3534" width="7.0866" height="7.0866"/>
  <rect x="120.4602" y="35.44" width="7.0866" height="7.0866"/>
  <rect x="120.4602" y="42.5266" width="7.0866" height="7.0866"/>
  <rect x="120.4602" y="49.6132" width="7.0866" height="7.0866"/>
  <rect x="120.4602" y="56.6998" width="7.0866" height="7.0866"/>
  <rect x="134.6334" y="28.3534" width="7.0866" height="7.0866"/>
  <rect x="148.8056" y="21.2668" width="7.0866" height="7.0866"/>
  <rect x="141.7195" y="21.2668" width="7.0866" height="7.0866"/>
  <rect x="155.8917" y="21.2668" width="7.0866" height="7.0866"/>
  <rect x="148.8034" y="14.1801" width="7.0866" height="7.0866"/>
  <rect x="155.8895" y="14.1801" width="7.0866" height="7.0866"/>
  <rect x="162.9759" y="14.1801" width="7.0866" height="7.0866"/>
  <rect x="134.6334" y="35.44" width="7.0866" height="7.0866"/>
  <rect x="170.0627" y="28.3534" width="7.0866" height="7.0866"/>
  <rect x="162.9761" y="28.3534" width="7.0866" height="7.0866"/>
  <rect x="162.9761" y="35.44" width="7.0866" height="7.0866"/>
  <rect x="155.8917" y="35.44" width="7.0866" height="7.0866"/>
  <rect x="134.6334" y="42.5266" width="7.0866" height="7.0866"/>
  <rect x="134.6334" y="49.6132" width="7.0866" height="7.0866"/>
  <rect x="134.6334" y="56.6998" width="7.0866" height="7.0866"/>
  <rect x="141.7195" y="28.3534" width="7.0866" height="7.0866"/>
  <rect x="141.7195" y="35.44" width="7.0866" height="7.0866"/>
  <rect x="141.7195" y="42.5266" width="7.0866" height="7.0866"/>
  <rect x="219.6691" y="77.9597" width="7.0866" height="7.0866"/>
  <rect x="212.5696" y="77.9597" width="7.0866" height="7.0866"/>
  <rect x="212.5696" y="85.0463" width="7.0866" height="7.0866"/>
  <rect x="205.4947" y="85.0463" width="7.0866" height="7.0866"/>
  <rect x="205.4947" y="92.1329" width="7.0866" height="7.0866"/>
  <rect x="219.6691" y="85.0463" width="7.0866" height="7.0866"/>
  <rect x="219.6691" y="92.1329" width="7.0866" height="7.0866"/>
  <rect x="226.7552" y="85.0463" width="7.0866" height="7.0866"/>
  <rect x="226.7552" y="92.1329" width="7.0866" height="7.0866"/>
  <rect x="141.7195" y="49.6132" width="7.0866" height="7.0866"/>
  <rect x="141.7195" y="56.6998" width="7.0866" height="7.0866"/>
  <rect x="134.632" y="63.7864" width="7.0866" height="7.0866"/>
  <rect x="134.6254" y="77.9597" width="7.0866" height="7.0866"/>
  <rect x="134.6254" y="85.0463" width="7.0866" height="7.0866"/>
  <rect x="141.718" y="63.7864" width="7.0866" height="7.0866"/>
  <rect x="141.7115" y="77.9597" width="7.0866" height="7.0866"/>
  <rect x="141.7115" y="85.0463" width="7.0866" height="7.0866"/>
  <rect x="148.799" y="85.0463" width="7.0866" height="7.0866"/>
  <rect x="155.8851" y="85.0463" width="7.0866" height="7.0866"/>
  <rect x="141.7115" y="92.1329" width="7.0866" height="7.0866"/>
  <rect x="148.7991" y="92.1329" width="7.0866" height="7.0866"/>
  <rect x="155.8852" y="92.1329" width="7.0866" height="7.0866"/>
  <rect x="148.7994" y="99.2195" width="7.0866" height="7.0866"/>
  <rect x="155.8854" y="99.2195" width="7.0866" height="7.0866"/>
  <rect x="162.969" y="99.2195" width="7.0866" height="7.0866"/>
  <rect x="170.0608" y="99.2195" width="7.0866" height="7.0866"/>
  <rect x="162.9722" y="106.3061" width="7.0866" height="7.0866"/>
  <rect x="170.0582" y="106.3061" width="7.0866" height="7.0866"/>
  <rect x="177.1418" y="106.3061" width="7.0866" height="7.0866"/>
  <rect x="170.0595" y="113.3927" width="7.0866" height="7.0866"/>
  <rect x="177.1431" y="113.3927" width="7.0866" height="7.0866"/>
  <rect x="184.2311" y="106.3061" width="7.0866" height="7.0866"/>
  <rect x="191.3172" y="106.3061" width="7.0866" height="7.0866"/>
  <rect x="212.5696" y="106.3061" width="7.0866" height="7.0866"/>
  <rect x="184.2323" y="113.3927" width="7.0866" height="7.0866"/>
  <rect x="191.3184" y="113.3927" width="7.0866" height="7.0866"/>
  <rect x="191.3181" y="106.3061" width="7.0866" height="7.0866"/>
  <rect x="198.4041" y="106.3061" width="7.0866" height="7.0866"/>
  <rect x="191.3193" y="113.3927" width="7.0866" height="7.0866"/>
  <rect x="198.4054" y="113.3927" width="7.0866" height="7.0866"/>
  <rect x="205.4862" y="106.3061" width="7.0866" height="7.0866"/>
  <rect x="205.4874" y="113.3927" width="7.0866" height="7.0866"/>
  <rect x="212.5708" y="113.3927" width="7.0866" height="7.0866"/>
  <rect x="187.7735" y="124.0227" width="7.0866" height="7.0866"/>
  <rect x="194.8571" y="124.0227" width="7.0866" height="7.0866"/>
  <rect x="201.9464" y="124.0227" width="7.0866" height="7.0866"/>
  <rect x="209.0324" y="124.0227" width="7.0866" height="7.0866"/>
  <rect x="209.0333" y="124.0227" width="7.0866" height="7.0866"/>
  <rect x="216.1194" y="124.0227" width="7.0866" height="7.0866"/>
  <rect x="223.2014" y="124.0227" width="7.0866" height="7.0866"/>
  <rect x="230.2849" y="124.0227" width="7.0866" height="7.0866"/>
  <rect x="138.154" y="124.0227" width="7.0866" height="7.0866"/>
  <rect x="145.2376" y="124.0227" width="7.0866" height="7.0866"/>
  <rect x="152.3269" y="124.0227" width="7.0866" height="7.0866"/>
  <rect x="159.4129" y="124.0227" width="7.0866" height="7.0866"/>
  <rect x="159.4138" y="124.0227" width="7.0866" height="7.0866"/>
  <rect x="166.4999" y="124.0227" width="7.0866" height="7.0866"/>
  <rect x="173.582" y="124.0227" width="7.0866" height="7.0866"/>
  <rect x="180.6654" y="124.0227" width="7.0866" height="7.0866"/>
  <rect x="60.381" y="124.0227" width="7.0866" height="7.0866"/>
  <rect x="67.4646" y="124.0227" width="7.0866" height="7.0866"/>
  <rect x="74.5539" y="124.0227" width="7.0866" height="7.0866"/>
  <rect x="81.6399" y="124.0227" width="7.0866" height="7.0866"/>
  <rect x="81.6408" y="124.0227" width="7.0866" height="7.0866"/>
  <rect x="88.7269" y="124.0227" width="7.0866" height="7.0866"/>
  <rect x="95.809" y="124.0227" width="7.0866" height="7.0866"/>
  <rect x="102.8924" y="124.0227" width="7.0866" height="7.0866"/>
  <rect x="10.7615" y="124.0227" width="7.0866" height="7.0866"/>
  <rect x="17.8451" y="124.0227" width="7.0866" height="7.0866"/>
  <rect x="24.9344" y="124.0227" width="7.0866" height="7.0866"/>
  <rect x="32.0205" y="124.0227" width="7.0866" height="7.0866"/>
  <rect x="32.0214" y="124.0227" width="7.0866" height="7.0866"/>
  <rect x="39.1074" y="124.0227" width="7.0866" height="7.0866"/>
  <rect x="46.1895" y="124.0227" width="7.0866" height="7.0866"/>
  <rect x="53.2729" y="124.0227" width="7.0866" height="7.0866"/>
  <rect x="212.579" y="99.2195" width="7.0866" height="7.0866"/>
  <rect x="219.6625" y="99.2195" width="7.0866" height="7.0866"/>
  <rect x="226.7415" y="99.2195" width="7.0866" height="7.0866"/>
  <rect x="219.6638" y="106.3061" width="7.0866" height="7.0866"/>
  <rect x="155.8898" y="49.6132" width="7.0866" height="7.0866"/>
  <rect x="155.8898" y="56.6998" width="7.0866" height="7.0866"/>
  <rect x="155.8898" y="63.7864" width="7.0866" height="7.0866"/>
  <rect x="162.9696" y="77.9597" width="7.0866" height="7.0866"/>
  <rect x="170.0562" y="85.0463" width="7.0866" height="7.0866"/>
  <rect x="184.2328" y="85.0463" width="7.0866" height="7.0866"/>
  <rect x="162.9759" y="49.6132" width="7.0866" height="7.0866"/>
  <rect x="170.0627" y="42.5266" width="7.0866" height="7.0866"/>
  <rect x="177.1496" y="42.5266" width="7.0866" height="7.0866"/>
  <rect x="184.236" y="35.44" width="7.0866" height="7.0866"/>
  <rect x="191.3215" y="28.3534" width="7.0866" height="7.0866"/>
  <rect x="191.3215" y="21.2668" width="7.0866" height="7.0866"/>
  <rect x="191.3215" y="14.1801" width="7.0866" height="7.0866"/>
  <rect x="198.4083" y="21.2668" width="7.0866" height="7.0866"/>
  <rect x="198.4083" y="14.1801" width="7.0866" height="7.0866"/>
  <rect x="191.3217" y="7.0935" width="7.0866" height="7.0866"/>
  <rect x="198.4085" y="7.0935" width="7.0866" height="7.0866"/>
  <rect x="184.2362" y="7.0935" width="7.0866" height="7.0866"/>
  <rect x="162.9759" y="56.6998" width="7.0866" height="7.0866"/>
  <rect x="170.063" y="49.6132" width="7.0866" height="7.0866"/>
  <rect x="170.063" y="56.6998" width="7.0866" height="7.0866"/>
  <rect x="162.9759" y="63.7864" width="7.0866" height="7.0866"/>
  <rect x="184.2389" y="49.6132" width="7.0866" height="7.0866"/>
  <rect x="184.2389" y="56.6998" width="7.0866" height="7.0866"/>
  <rect x="170.0635" y="63.7864" width="7.0866" height="7.0866"/>
  <rect x="170.057" y="77.9597" width="7.0866" height="7.0866"/>
  <rect x="184.2394" y="63.7864" width="7.0866" height="7.0866"/>
  <rect x="191.3263" y="56.6998" width="7.0866" height="7.0866"/>
  <rect x="198.4124" y="56.6998" width="7.0866" height="7.0866"/>
  <rect x="191.3268" y="63.7864" width="7.0866" height="7.0866"/>
  <rect x="198.4129" y="63.7864" width="7.0866" height="7.0866"/>
  <rect x="184.2328" y="77.9597" width="7.0866" height="7.0866"/>
  <rect x="177.1436" y="85.0463" width="7.0866" height="7.0866"/>
  <rect x="177.1496" y="49.6132" width="7.0866" height="7.0866"/>
  <rect x="177.1496" y="56.6998" width="7.0866" height="7.0866"/>
  <rect x="177.1502" y="63.7864" width="7.0866" height="7.0866"/>
  <rect x="177.1436" y="77.9597" width="7.0866" height="7.0866"/>
  <rect x="191.3203" y="77.9597" width="7.0866" height="7.0866"/>
  <rect x="184.2362" y="42.5266" width="7.0866" height="7.0866"/>
  <rect x="191.326" y="49.6132" width="7.0866" height="7.0866"/>
  <rect x="191.3223" y="42.5266" width="7.0866" height="7.0866"/>
  <rect x="198.4083" y="42.5266" width="7.0866" height="7.0866"/>
  <rect x="205.4934" y="42.5266" width="7.0866" height="7.0866"/>
  <rect x="212.5793" y="35.44" width="7.0866" height="7.0866"/>
  <rect x="219.6644" y="35.44" width="7.0866" height="7.0866"/>
  <rect x="205.495" y="28.3534" width="7.0866" height="7.0866"/>
  <rect x="212.5793" y="42.5266" width="7.0866" height="7.0866"/>
  <rect x="219.6644" y="56.6998" width="7.0866" height="7.0866"/>
  <rect x="212.5845" y="56.6998" width="7.0866" height="7.0866"/>
  <rect x="219.6666" y="42.5266" width="7.0866" height="7.0866"/>
  <rect x="219.6757" y="49.6132" width="7.0866" height="7.0866"/>
  <rect x="226.7524" y="42.5266" width="7.0866" height="7.0866"/>
  <rect x="212.5817" y="14.1801" width="7.0866" height="7.0866"/>
  <rect x="219.6666" y="14.1801" width="7.0866" height="7.0866"/>
  <rect x="226.7532" y="7.0935" width="7.0866" height="7.0866"/>
  <rect x="212.5839" y="7.0935" width="7.0866" height="7.0866"/>
  <rect x="212.5839" y="21.2668" width="7.0866" height="7.0866"/>
  <rect x="219.6666" y="21.2668" width="7.0866" height="7.0866"/>
  <rect x="226.7532" y="21.2668" width="7.0866" height="7.0866"/>
  <rect x="226.7524" y="49.6132" width="7.0866" height="7.0866"/>
  <rect x="198.4121" y="49.6132" width="7.0866" height="7.0866"/>
  <rect x="191.3223" y="35.44" width="7.0866" height="7.0866"/>
  <rect x="120.4602" y="63.7864" width="7.0866" height="7.0866"/>
  <rect x="134.6211" y="70.8774" width="7.0866" height="7.0866"/>
  <rect x="141.7072" y="70.8774" width="7.0866" height="7.0866"/>
  <rect x="155.8789" y="70.8774" width="7.0866" height="7.0866"/>
  <rect x="162.965" y="70.8774" width="7.0866" height="7.0866"/>
  <rect x="170.0527" y="70.8774" width="7.0866" height="7.0866"/>
  <rect x="184.2286" y="70.8774" width="7.0866" height="7.0866"/>
  <rect x="191.316" y="70.8774" width="7.0866" height="7.0866"/>
  <rect x="198.4021" y="70.8774" width="7.0866" height="7.0866"/>
  <rect x="177.1393" y="70.8774" width="7.0866" height="7.0866"/>
  <rect x="78.0794" y="21.2668" width="7.0866" height="7.0866" transform="translate(163.2454 49.6201) rotate(-180)"/>
  <rect x="70.9928" y="21.2668" width="7.0866" height="7.0866" transform="translate(149.0721 49.6201) rotate(-180)"/>
  <rect x="106.4301" y="113.3927" width="7.0866" height="7.0866"/>
  <rect x="106.4301" y="106.3061" width="7.0866" height="7.0866"/>
  <rect x="99.344" y="106.3061" width="7.0866" height="7.0866"/>
  <rect x="99.3438" y="113.3927" width="7.0866" height="7.0866"/>
  <rect x="92.2577" y="113.3927" width="7.0866" height="7.0866"/>
  <rect x="85.1701" y="106.3061" width="7.0866" height="7.0866"/>
  <rect x="106.4301" y="99.2195" width="7.0866" height="7.0866"/>
  <rect x="106.4221" y="28.3534" width="7.0866" height="7.0866" transform="translate(219.9307 63.7933) rotate(-180)"/>
  <rect x="92.2499" y="21.2668" width="7.0866" height="7.0866" transform="translate(191.5864 49.6201) rotate(-180)"/>
  <rect x="99.336" y="21.2668" width="7.0866" height="7.0866" transform="translate(205.7586 49.6201) rotate(-180)"/>
  <rect x="85.1638" y="21.2668" width="7.0866" height="7.0866" transform="translate(177.4143 49.6201) rotate(-180)"/>
  <rect x="92.2521" y="14.1801" width="7.0866" height="7.0866" transform="translate(191.5907 35.4469) rotate(-180)"/>
  <rect x="85.166" y="14.1801" width="7.0866" height="7.0866" transform="translate(177.4186 35.4469) rotate(-180)"/>
  <rect x="78.0796" y="14.1801" width="7.0866" height="7.0866" transform="translate(163.2459 35.4469) rotate(-180)"/>
  <rect x="106.4221" y="35.44" width="7.0866" height="7.0866" transform="translate(219.9307 77.9666) rotate(-180)"/>
  <rect x="70.9928" y="28.3534" width="7.0866" height="7.0866" transform="translate(149.0721 63.7933) rotate(-180)"/>
  <rect x="78.0794" y="28.3534" width="7.0866" height="7.0866" transform="translate(163.2454 63.7933) rotate(-180)"/>
  <rect x="78.0794" y="35.44" width="7.0866" height="7.0866" transform="translate(163.2454 77.9666) rotate(-180)"/>
  <rect x="85.1638" y="35.44" width="7.0866" height="7.0866" transform="translate(177.4143 77.9666) rotate(-180)"/>
  <rect x="106.4221" y="42.5266" width="7.0866" height="7.0866" transform="translate(219.9307 92.1398) rotate(-180)"/>
  <rect x="106.4221" y="49.6132" width="7.0866" height="7.0866" transform="translate(219.9307 106.313) rotate(-180)"/>
  <rect x="106.4221" y="56.6998" width="7.0866" height="7.0866" transform="translate(219.9307 120.4863) rotate(-180)"/>
  <rect x="99.336" y="28.3534" width="7.0866" height="7.0866" transform="translate(205.7586 63.7933) rotate(-180)"/>
  <rect x="99.336" y="35.44" width="7.0866" height="7.0866" transform="translate(205.7586 77.9666) rotate(-180)"/>
  <rect x="99.336" y="42.5266" width="7.0866" height="7.0866" transform="translate(205.7586 92.1398) rotate(-180)"/>
  <rect x="21.3864" y="77.9597" width="7.0866" height="7.0866" transform="translate(49.8594 163.0059) rotate(-180)"/>
  <rect x="28.4859" y="77.9597" width="7.0866" height="7.0866" transform="translate(64.0584 163.0059) rotate(-180)"/>
  <rect x="28.4859" y="85.0463" width="7.0866" height="7.0866" transform="translate(64.0584 177.1792) rotate(-180)"/>
  <rect x="35.5608" y="85.0463" width="7.0866" height="7.0866" transform="translate(78.2083 177.1792) rotate(-180)"/>
  <rect x="35.5608" y="92.1329" width="7.0866" height="7.0866" transform="translate(78.2083 191.3524) rotate(-180)"/>
  <rect x="21.3864" y="85.0463" width="7.0866" height="7.0866" transform="translate(49.8594 177.1792) rotate(-180)"/>
  <rect x="21.3864" y="92.1329" width="7.0866" height="7.0866" transform="translate(49.8594 191.3524) rotate(-180)"/>
  <rect x="14.3003" y="85.0463" width="7.0866" height="7.0866" transform="translate(35.6873 177.1792) rotate(-180)"/>
  <rect x="14.3003" y="92.1329" width="7.0866" height="7.0866" transform="translate(35.6873 191.3524) rotate(-180)"/>
  <rect x="99.336" y="49.6132" width="7.0866" height="7.0866" transform="translate(205.7586 106.313) rotate(-180)"/>
  <rect x="99.336" y="56.6998" width="7.0866" height="7.0866" transform="translate(205.7586 120.4863) rotate(-180)"/>
  <rect x="106.4235" y="63.7864" width="7.0866" height="7.0866" transform="translate(219.9337 134.6595) rotate(-180)"/>
  <rect x="106.4301" y="77.9597" width="7.0866" height="7.0866" transform="translate(219.9468 163.0059) rotate(-180)"/>
  <rect x="106.4301" y="85.0463" width="7.0866" height="7.0866" transform="translate(219.9468 177.1792) rotate(-180)"/>
  <rect x="99.3375" y="63.7864" width="7.0866" height="7.0866" transform="translate(205.7615 134.6595) rotate(-180)"/>
  <rect x="99.344" y="77.9597" width="7.0866" height="7.0866" transform="translate(205.7747 163.0059) rotate(-180)"/>
  <rect x="99.344" y="85.0463" width="7.0866" height="7.0866" transform="translate(205.7747 177.1792) rotate(-180)"/>
  <rect x="92.2565" y="85.0463" width="7.0866" height="7.0866" transform="translate(191.5996 177.1792) rotate(-180)"/>
  <rect x="85.1704" y="85.0463" width="7.0866" height="7.0866" transform="translate(177.4274 177.1792) rotate(-180)"/>
  <rect x="99.344" y="92.1329" width="7.0866" height="7.0866" transform="translate(205.7745 191.3524) rotate(-180)"/>
  <rect x="92.2564" y="92.1329" width="7.0866" height="7.0866" transform="translate(191.5994 191.3524) rotate(-180)"/>
  <rect x="85.1703" y="92.1329" width="7.0866" height="7.0866" transform="translate(177.4273 191.3524) rotate(-180)"/>
  <rect x="92.2561" y="99.2195" width="7.0866" height="7.0866" transform="translate(191.5989 205.5256) rotate(-180)"/>
  <rect x="85.1701" y="99.2195" width="7.0866" height="7.0866" transform="translate(177.4267 205.5256) rotate(-180)"/>
  <rect x="78.0865" y="99.2195" width="7.0866" height="7.0866" transform="translate(163.2596 205.5256) rotate(-180)"/>
  <rect x="70.9947" y="99.2195" width="7.0866" height="7.0866" transform="translate(149.076 205.5256) rotate(-180)"/>
  <rect x="78.0833" y="106.3061" width="7.0866" height="7.0866" transform="translate(163.2533 219.6989) rotate(-180)"/>
  <rect x="70.9973" y="106.3061" width="7.0866" height="7.0866" transform="translate(149.0812 219.6989) rotate(-180)"/>
  <rect x="63.9137" y="106.3061" width="7.0866" height="7.0866" transform="translate(134.914 219.6989) rotate(-180)"/>
  <rect x="70.996" y="113.3927" width="7.0866" height="7.0866" transform="translate(149.0787 233.8721) rotate(-180)"/>
  <rect x="63.9124" y="113.3927" width="7.0866" height="7.0866" transform="translate(134.9115 233.8721) rotate(-180)"/>
  <rect x="56.8244" y="106.3061" width="7.0866" height="7.0866" transform="translate(120.7354 219.6989) rotate(-180)"/>
  <rect x="49.7383" y="106.3061" width="7.0866" height="7.0866" transform="translate(106.5633 219.6989) rotate(-180)"/>
  <rect x="28.4859" y="106.3061" width="7.0866" height="7.0866" transform="translate(64.0584 219.6989) rotate(-180)"/>
  <rect x="56.8231" y="113.3927" width="7.0866" height="7.0866" transform="translate(120.7329 233.8721) rotate(-180)"/>
  <rect x="49.7371" y="113.3927" width="7.0866" height="7.0866" transform="translate(106.5608 233.8721) rotate(-180)"/>
  <rect x="49.7374" y="106.3061" width="7.0866" height="7.0866" transform="translate(106.5615 219.6989) rotate(-180)"/>
  <rect x="42.6514" y="106.3061" width="7.0866" height="7.0866" transform="translate(92.3893 219.6989) rotate(-180)"/>
  <rect x="49.7362" y="113.3927" width="7.0866" height="7.0866" transform="translate(106.559 233.8721) rotate(-180)"/>
  <rect x="42.6501" y="113.3927" width="7.0866" height="7.0866" transform="translate(92.3868 233.8721) rotate(-180)"/>
  <rect x="35.5693" y="106.3061" width="7.0866" height="7.0866" transform="translate(78.2252 219.6989) rotate(-180)"/>
  <rect x="35.5681" y="113.3927" width="7.0866" height="7.0866" transform="translate(78.2227 233.8721) rotate(-180)"/>
  <rect x="28.4847" y="113.3927" width="7.0866" height="7.0866" transform="translate(64.0559 233.8721) rotate(-180)"/>
  <rect x="28.4765" y="99.2195" width="7.0866" height="7.0866" transform="translate(64.0397 205.5256) rotate(-180)"/>
  <rect x="21.393" y="99.2195" width="7.0866" height="7.0866" transform="translate(49.8725 205.5256) rotate(-180)"/>
  <rect x="14.314" y="99.2195" width="7.0866" height="7.0866" transform="translate(35.7146 205.5256) rotate(-180)"/>
  <rect x="21.3917" y="106.3061" width="7.0866" height="7.0866" transform="translate(49.8701 219.6989) rotate(-180)"/>
  <rect x="85.1657" y="49.6132" width="7.0866" height="7.0866" transform="translate(177.418 106.313) rotate(-180)"/>
  <rect x="85.1657" y="56.6998" width="7.0866" height="7.0866" transform="translate(177.418 120.4863) rotate(-180)"/>
  <rect x="85.1657" y="63.7864" width="7.0866" height="7.0866" transform="translate(177.418 134.6595) rotate(-180)"/>
  <rect x="78.0859" y="77.9597" width="7.0866" height="7.0866" transform="translate(163.2585 163.0059) rotate(-180)"/>
  <rect x="70.9993" y="85.0463" width="7.0866" height="7.0866" transform="translate(149.0853 177.1792) rotate(-180)"/>
  <rect x="56.8227" y="85.0463" width="7.0866" height="7.0866" transform="translate(120.7319 177.1792) rotate(-180)"/>
  <rect x="78.0796" y="49.6132" width="7.0866" height="7.0866" transform="translate(163.2459 106.313) rotate(-180)"/>
  <rect x="70.9928" y="42.5266" width="7.0866" height="7.0866" transform="translate(149.0721 92.1398) rotate(-180)"/>
  <rect x="63.9059" y="42.5266" width="7.0866" height="7.0866" transform="translate(134.8984 92.1398) rotate(-180)"/>
  <rect x="56.8195" y="35.44" width="7.0866" height="7.0866" transform="translate(120.7257 77.9666) rotate(-180)"/>
  <rect x="49.734" y="28.3534" width="7.0866" height="7.0866" transform="translate(106.5546 63.7933) rotate(-180)"/>
  <rect x="49.734" y="21.2668" width="7.0866" height="7.0866" transform="translate(106.5546 49.6201) rotate(-180)"/>
  <rect x="49.734" y="14.1801" width="7.0866" height="7.0866" transform="translate(106.5546 35.4469) rotate(-180)"/>
  <rect x="42.6472" y="21.2668" width="7.0866" height="7.0866" transform="translate(92.3811 49.6201) rotate(-180)"/>
  <rect x="42.6472" y="14.1801" width="7.0866" height="7.0866" transform="translate(92.3811 35.4469) rotate(-180)"/>
  <rect x="49.7338" y="7.0935" width="7.0866" height="7.0866" transform="translate(106.5542 21.2737) rotate(-180)"/>
  <rect x="42.647" y="7.0935" width="7.0866" height="7.0866" transform="translate(92.3807 21.2737) rotate(-180)"/>
  <rect x="56.8193" y="7.0935" width="7.0866" height="7.0866" transform="translate(120.7253 21.2737) rotate(-180)"/>
  <rect x="78.0796" y="56.6998" width="7.0866" height="7.0866" transform="translate(163.2459 120.4863) rotate(-180)"/>
  <rect x="70.9925" y="49.6132" width="7.0866" height="7.0866" transform="translate(149.0716 106.313) rotate(-180)"/>
  <rect x="70.9925" y="56.6998" width="7.0866" height="7.0866" transform="translate(149.0716 120.4863) rotate(-180)"/>
  <rect x="78.0796" y="63.7864" width="7.0866" height="7.0866" transform="translate(163.2459 134.6595) rotate(-180)"/>
  <rect x="56.8166" y="49.6132" width="7.0866" height="7.0866" transform="translate(120.7199 106.313) rotate(-180)"/>
  <rect x="56.8166" y="56.6998" width="7.0866" height="7.0866" transform="translate(120.7199 120.4863) rotate(-180)"/>
  <rect x="70.9919" y="63.7864" width="7.0866" height="7.0866" transform="translate(149.0705 134.6595) rotate(-180)"/>
  <rect x="70.9985" y="77.9597" width="7.0866" height="7.0866" transform="translate(149.0837 163.0059) rotate(-180)"/>
  <rect x="56.8161" y="63.7864" width="7.0866" height="7.0866" transform="translate(120.7188 134.6595) rotate(-180)"/>
  <rect x="49.7292" y="56.6998" width="7.0866" height="7.0866" transform="translate(106.545 120.4863) rotate(-180)"/>
  <rect x="42.6431" y="56.6998" width="7.0866" height="7.0866" transform="translate(92.3729 120.4863) rotate(-180)"/>
  <rect x="49.7287" y="63.7864" width="7.0866" height="7.0866" transform="translate(106.5439 134.6595) rotate(-180)"/>
  <rect x="42.6426" y="63.7864" width="7.0866" height="7.0866" transform="translate(92.3718 134.6595) rotate(-180)"/>
  <rect x="56.8227" y="77.9597" width="7.0866" height="7.0866" transform="translate(120.7319 163.0059) rotate(-180)"/>
  <rect x="63.9119" y="85.0463" width="7.0866" height="7.0866" transform="translate(134.9104 177.1792) rotate(-180)"/>
  <rect x="63.9059" y="49.6132" width="7.0866" height="7.0866" transform="translate(134.8984 106.313) rotate(-180)"/>
  <rect x="63.9059" y="56.6998" width="7.0866" height="7.0866" transform="translate(134.8984 120.4863) rotate(-180)"/>
  <rect x="63.9053" y="63.7864" width="7.0866" height="7.0866" transform="translate(134.8973 134.6595) rotate(-180)"/>
  <rect x="63.9119" y="77.9597" width="7.0866" height="7.0866" transform="translate(134.9104 163.0059) rotate(-180)"/>
  <rect x="49.7352" y="77.9597" width="7.0866" height="7.0866" transform="translate(106.5571 163.0059) rotate(-180)"/>
  <rect x="56.8193" y="42.5266" width="7.0866" height="7.0866" transform="translate(120.7251 92.1398) rotate(-180)"/>
  <rect x="49.7295" y="49.6132" width="7.0866" height="7.0866" transform="translate(106.5456 106.313) rotate(-180)"/>
  <rect x="49.7332" y="42.5266" width="7.0866" height="7.0866" transform="translate(106.553 92.1398) rotate(-180)"/>
  <rect x="42.6472" y="42.5266" width="7.0866" height="7.0866" transform="translate(92.3811 92.1398) rotate(-180)"/>
  <rect x="35.5621" y="42.5266" width="7.0866" height="7.0866" transform="translate(78.2108 92.1398) rotate(-180)"/>
  <rect x="28.4762" y="35.44" width="7.0866" height="7.0866" transform="translate(64.0391 77.9666) rotate(-180)"/>
  <rect x="21.391" y="35.44" width="7.0866" height="7.0866" transform="translate(49.8687 77.9666) rotate(-180)"/>
  <rect x="35.5605" y="28.3534" width="7.0866" height="7.0866" transform="translate(78.2076 63.7933) rotate(-180)"/>
  <rect x="28.4762" y="42.5266" width="7.0866" height="7.0866" transform="translate(64.0391 92.1398) rotate(-180)"/>
  <rect x="21.391" y="56.6998" width="7.0866" height="7.0866" transform="translate(49.8687 120.4863) rotate(-180)"/>
  <rect x="28.471" y="56.6998" width="7.0866" height="7.0866" transform="translate(64.0286 120.4863) rotate(-180)"/>
  <rect x="21.3889" y="42.5266" width="7.0866" height="7.0866" transform="translate(49.8644 92.1398) rotate(-180)"/>
  <rect x="21.3798" y="49.6132" width="7.0866" height="7.0866" transform="translate(49.8463 106.313) rotate(-180)"/>
  <rect x="14.3031" y="42.5266" width="7.0866" height="7.0866" transform="translate(35.6928 92.1398) rotate(-180)"/>
  <rect x="28.4737" y="14.1801" width="7.0866" height="7.0866" transform="translate(64.0341 35.4469) rotate(-180)"/>
  <rect x="21.3889" y="14.1801" width="7.0866" height="7.0866" transform="translate(49.8644 35.4469) rotate(-180)"/>
  <rect x="14.3023" y="7.0935" width="7.0866" height="7.0866" transform="translate(35.6912 21.2737) rotate(-180)"/>
  <rect x="28.4716" y="7.0935" width="7.0866" height="7.0866" transform="translate(64.0298 21.2737) rotate(-180)"/>
  <rect x="28.4716" y="21.2668" width="7.0866" height="7.0866" transform="translate(64.0298 49.6201) rotate(-180)"/>
  <rect x="21.3889" y="21.2668" width="7.0866" height="7.0866" transform="translate(49.8644 49.6201) rotate(-180)"/>
  <rect x="14.3023" y="21.2668" width="7.0866" height="7.0866" transform="translate(35.6912 49.6201) rotate(-180)"/>
  <rect x="14.3031" y="49.6132" width="7.0866" height="7.0866" transform="translate(35.6928 106.313) rotate(-180)"/>
  <rect x="42.6434" y="49.6132" width="7.0866" height="7.0866" transform="translate(92.3734 106.313) rotate(-180)"/>
  <rect x="49.7332" y="35.44" width="7.0866" height="7.0866" transform="translate(106.553 77.9666) rotate(-180)"/>
  <rect x="106.4344" y="70.8774" width="7.0866" height="7.0866" transform="translate(219.9554 148.8415) rotate(-180)"/>
  <rect x="99.3483" y="70.8774" width="7.0866" height="7.0866" transform="translate(205.7832 148.8415) rotate(-180)"/>
  <rect x="85.1766" y="70.8774" width="7.0866" height="7.0866" transform="translate(177.4398 148.8415) rotate(-180)"/>
  <rect x="78.0905" y="70.8774" width="7.0866" height="7.0866" transform="translate(163.2676 148.8415) rotate(-180)"/>
  <rect x="71.0028" y="70.8774" width="7.0866" height="7.0866" transform="translate(149.0922 148.8415) rotate(-180)"/>
  <rect x="56.8269" y="70.8774" width="7.0866" height="7.0866" transform="translate(120.7405 148.8415) rotate(-180)"/>
  <rect x="49.7395" y="70.8774" width="7.0866" height="7.0866" transform="translate(106.5657 148.8415) rotate(-180)"/>
  <rect x="42.6534" y="70.8774" width="7.0866" height="7.0866" transform="translate(92.3935 148.8415) rotate(-180)"/>
  <rect x="63.9162" y="70.8774" width="7.0866" height="7.0866" transform="translate(134.919 148.8415) rotate(-180)"/>
  <rect x="120.4494" y="70.8774" width="7.0866" height="7.0866"/>
  <rect x="120.4536" y="77.9597" width="7.0866" height="7.0866"/>
  <rect x="120.4536" y="85.0463" width="7.0866" height="7.0866"/>
  <rect x="120.4536" y="92.1329" width="7.0866" height="7.0866"/>
  <rect x="120.4536" y="99.2195" width="7.0866" height="7.0866"/>
  <rect x="120.4536" y="106.3061" width="7.0866" height="7.0866"/>
  <rect x="120.4536" y="113.3927" width="7.0866" height="7.0866"/>
  <rect x=".1148" y="99.2195" width="7.0866" height="7.0866"/>
  <rect x=".1148" y="106.3061" width="7.0866" height="7.0866"/>
  <rect x=".1148" y="113.3927" width="7.0866" height="7.0866"/>
  <rect x=".1148" y="120.4793" width="7.0866" height="7.0866"/>
  <rect x=".1148" y="127.566" width="7.0866" height="7.0866"/>
  <rect x=".1148" y="134.6526" width="7.0866" height="7.0866"/>
  <rect x=".1148" y="141.7392" width="7.0866" height="7.0866"/>
  <rect x="240.8958" y=".0069" width="7.0866" height="7.0866"/>
  <rect x="240.8958" y="7.0935" width="7.0866" height="7.0866"/>
  <rect x="240.8958" y="14.1801" width="7.0866" height="7.0866"/>
  <rect x="240.8958" y="21.2668" width="7.0866" height="7.0866"/>
  <rect x="240.8958" y="28.3534" width="7.0866" height="7.0866"/>
  <rect x="240.8958" y="35.44" width="7.0866" height="7.0866"/>
  <rect x="240.8958" y="42.5266" width="7.0866" height="7.0866"/>
  <rect x="240.8958" y="49.6132" width="7.0866" height="7.0866"/>
  <rect x="240.8958" y="56.6998" width="7.0866" height="7.0866"/>
  <rect x="240.8958" y="63.7864" width="7.0866" height="7.0866"/>
  <rect x="240.8958" y="70.873" width="7.0866" height="7.0866"/>
  <rect x="240.8958" y="77.9597" width="7.0866" height="7.0866"/>
  <rect x="240.8958" y="85.0463" width="7.0866" height="7.0866"/>
  <rect x="240.8958" y="92.1329" width="7.0866" height="7.0866"/>
  <rect x="240.8958" y="99.2195" width="7.0866" height="7.0866"/>
  <rect x="240.8958" y="106.3061" width="7.0866" height="7.0866"/>
  <rect x="240.8958" y="113.3927" width="7.0866" height="7.0866"/>
  <rect x="240.8958" y="120.4793" width="7.0866" height="7.0866"/>
  <rect x="240.8958" y="127.566" width="7.0866" height="7.0866"/>
  <rect x="240.8958" y="134.6526" width="7.0866" height="7.0866"/>
  <rect x="240.8958" y="141.7392" width="7.0866" height="7.0866"/>
</svg>